%TF.GenerationSoftware,KiCad,Pcbnew,(6.0.7)*%
%TF.CreationDate,2022-08-26T15:14:46-04:00*%
%TF.ProjectId,thocc-master,74686f63-632d-46d6-9173-7465722e6b69,rev?*%
%TF.SameCoordinates,Original*%
%TF.FileFunction,Legend,Bot*%
%TF.FilePolarity,Positive*%
%FSLAX46Y46*%
G04 Gerber Fmt 4.6, Leading zero omitted, Abs format (unit mm)*
G04 Created by KiCad (PCBNEW (6.0.7)) date 2022-08-26 15:14:46*
%MOMM*%
%LPD*%
G01*
G04 APERTURE LIST*
%ADD10C,0.150000*%
%ADD11C,0.120000*%
G04 APERTURE END LIST*
D10*
%TO.C,C7*%
X229166666Y-130707142D02*
X229214285Y-130754761D01*
X229357142Y-130802380D01*
X229452380Y-130802380D01*
X229595238Y-130754761D01*
X229690476Y-130659523D01*
X229738095Y-130564285D01*
X229785714Y-130373809D01*
X229785714Y-130230952D01*
X229738095Y-130040476D01*
X229690476Y-129945238D01*
X229595238Y-129850000D01*
X229452380Y-129802380D01*
X229357142Y-129802380D01*
X229214285Y-129850000D01*
X229166666Y-129897619D01*
X228833333Y-129802380D02*
X228166666Y-129802380D01*
X228595238Y-130802380D01*
%TO.C,J2*%
X235552380Y-145466666D02*
X236266666Y-145466666D01*
X236409523Y-145419047D01*
X236504761Y-145323809D01*
X236552380Y-145180952D01*
X236552380Y-145085714D01*
X235647619Y-145895238D02*
X235600000Y-145942857D01*
X235552380Y-146038095D01*
X235552380Y-146276190D01*
X235600000Y-146371428D01*
X235647619Y-146419047D01*
X235742857Y-146466666D01*
X235838095Y-146466666D01*
X235980952Y-146419047D01*
X236552380Y-145847619D01*
X236552380Y-146466666D01*
%TO.C,C6*%
X220987142Y-117083333D02*
X221034761Y-117035714D01*
X221082380Y-116892857D01*
X221082380Y-116797619D01*
X221034761Y-116654761D01*
X220939523Y-116559523D01*
X220844285Y-116511904D01*
X220653809Y-116464285D01*
X220510952Y-116464285D01*
X220320476Y-116511904D01*
X220225238Y-116559523D01*
X220130000Y-116654761D01*
X220082380Y-116797619D01*
X220082380Y-116892857D01*
X220130000Y-117035714D01*
X220177619Y-117083333D01*
X220082380Y-117940476D02*
X220082380Y-117750000D01*
X220130000Y-117654761D01*
X220177619Y-117607142D01*
X220320476Y-117511904D01*
X220510952Y-117464285D01*
X220891904Y-117464285D01*
X220987142Y-117511904D01*
X221034761Y-117559523D01*
X221082380Y-117654761D01*
X221082380Y-117845238D01*
X221034761Y-117940476D01*
X220987142Y-117988095D01*
X220891904Y-118035714D01*
X220653809Y-118035714D01*
X220558571Y-117988095D01*
X220510952Y-117940476D01*
X220463333Y-117845238D01*
X220463333Y-117654761D01*
X220510952Y-117559523D01*
X220558571Y-117511904D01*
X220653809Y-117464285D01*
%TO.C,C5*%
X231227142Y-127283333D02*
X231274761Y-127235714D01*
X231322380Y-127092857D01*
X231322380Y-126997619D01*
X231274761Y-126854761D01*
X231179523Y-126759523D01*
X231084285Y-126711904D01*
X230893809Y-126664285D01*
X230750952Y-126664285D01*
X230560476Y-126711904D01*
X230465238Y-126759523D01*
X230370000Y-126854761D01*
X230322380Y-126997619D01*
X230322380Y-127092857D01*
X230370000Y-127235714D01*
X230417619Y-127283333D01*
X230322380Y-128188095D02*
X230322380Y-127711904D01*
X230798571Y-127664285D01*
X230750952Y-127711904D01*
X230703333Y-127807142D01*
X230703333Y-128045238D01*
X230750952Y-128140476D01*
X230798571Y-128188095D01*
X230893809Y-128235714D01*
X231131904Y-128235714D01*
X231227142Y-128188095D01*
X231274761Y-128140476D01*
X231322380Y-128045238D01*
X231322380Y-127807142D01*
X231274761Y-127711904D01*
X231227142Y-127664285D01*
%TO.C,C4*%
X223866666Y-129677142D02*
X223914285Y-129724761D01*
X224057142Y-129772380D01*
X224152380Y-129772380D01*
X224295238Y-129724761D01*
X224390476Y-129629523D01*
X224438095Y-129534285D01*
X224485714Y-129343809D01*
X224485714Y-129200952D01*
X224438095Y-129010476D01*
X224390476Y-128915238D01*
X224295238Y-128820000D01*
X224152380Y-128772380D01*
X224057142Y-128772380D01*
X223914285Y-128820000D01*
X223866666Y-128867619D01*
X223009523Y-129105714D02*
X223009523Y-129772380D01*
X223247619Y-128724761D02*
X223485714Y-129439047D01*
X222866666Y-129439047D01*
%TO.C,C3*%
X225457142Y-109783333D02*
X225504761Y-109735714D01*
X225552380Y-109592857D01*
X225552380Y-109497619D01*
X225504761Y-109354761D01*
X225409523Y-109259523D01*
X225314285Y-109211904D01*
X225123809Y-109164285D01*
X224980952Y-109164285D01*
X224790476Y-109211904D01*
X224695238Y-109259523D01*
X224600000Y-109354761D01*
X224552380Y-109497619D01*
X224552380Y-109592857D01*
X224600000Y-109735714D01*
X224647619Y-109783333D01*
X224552380Y-110116666D02*
X224552380Y-110735714D01*
X224933333Y-110402380D01*
X224933333Y-110545238D01*
X224980952Y-110640476D01*
X225028571Y-110688095D01*
X225123809Y-110735714D01*
X225361904Y-110735714D01*
X225457142Y-110688095D01*
X225504761Y-110640476D01*
X225552380Y-110545238D01*
X225552380Y-110259523D01*
X225504761Y-110164285D01*
X225457142Y-110116666D01*
%TO.C,C2*%
X230216666Y-118187142D02*
X230264285Y-118234761D01*
X230407142Y-118282380D01*
X230502380Y-118282380D01*
X230645238Y-118234761D01*
X230740476Y-118139523D01*
X230788095Y-118044285D01*
X230835714Y-117853809D01*
X230835714Y-117710952D01*
X230788095Y-117520476D01*
X230740476Y-117425238D01*
X230645238Y-117330000D01*
X230502380Y-117282380D01*
X230407142Y-117282380D01*
X230264285Y-117330000D01*
X230216666Y-117377619D01*
X229835714Y-117377619D02*
X229788095Y-117330000D01*
X229692857Y-117282380D01*
X229454761Y-117282380D01*
X229359523Y-117330000D01*
X229311904Y-117377619D01*
X229264285Y-117472857D01*
X229264285Y-117568095D01*
X229311904Y-117710952D01*
X229883333Y-118282380D01*
X229264285Y-118282380D01*
%TO.C,C1*%
X223866666Y-135337142D02*
X223914285Y-135384761D01*
X224057142Y-135432380D01*
X224152380Y-135432380D01*
X224295238Y-135384761D01*
X224390476Y-135289523D01*
X224438095Y-135194285D01*
X224485714Y-135003809D01*
X224485714Y-134860952D01*
X224438095Y-134670476D01*
X224390476Y-134575238D01*
X224295238Y-134480000D01*
X224152380Y-134432380D01*
X224057142Y-134432380D01*
X223914285Y-134480000D01*
X223866666Y-134527619D01*
X222914285Y-135432380D02*
X223485714Y-135432380D01*
X223200000Y-135432380D02*
X223200000Y-134432380D01*
X223295238Y-134575238D01*
X223390476Y-134670476D01*
X223485714Y-134718095D01*
%TO.C,J1*%
X221072380Y-98066666D02*
X221786666Y-98066666D01*
X221929523Y-98019047D01*
X222024761Y-97923809D01*
X222072380Y-97780952D01*
X222072380Y-97685714D01*
X222072380Y-99066666D02*
X222072380Y-98495238D01*
X222072380Y-98780952D02*
X221072380Y-98780952D01*
X221215238Y-98685714D01*
X221310476Y-98590476D01*
X221358095Y-98495238D01*
%TO.C,D78*%
X463752380Y-158085714D02*
X462752380Y-158085714D01*
X462752380Y-158323809D01*
X462800000Y-158466666D01*
X462895238Y-158561904D01*
X462990476Y-158609523D01*
X463180952Y-158657142D01*
X463323809Y-158657142D01*
X463514285Y-158609523D01*
X463609523Y-158561904D01*
X463704761Y-158466666D01*
X463752380Y-158323809D01*
X463752380Y-158085714D01*
X462752380Y-158990476D02*
X462752380Y-159657142D01*
X463752380Y-159228571D01*
X463180952Y-160180952D02*
X463133333Y-160085714D01*
X463085714Y-160038095D01*
X462990476Y-159990476D01*
X462942857Y-159990476D01*
X462847619Y-160038095D01*
X462800000Y-160085714D01*
X462752380Y-160180952D01*
X462752380Y-160371428D01*
X462800000Y-160466666D01*
X462847619Y-160514285D01*
X462942857Y-160561904D01*
X462990476Y-160561904D01*
X463085714Y-160514285D01*
X463133333Y-160466666D01*
X463180952Y-160371428D01*
X463180952Y-160180952D01*
X463228571Y-160085714D01*
X463276190Y-160038095D01*
X463371428Y-159990476D01*
X463561904Y-159990476D01*
X463657142Y-160038095D01*
X463704761Y-160085714D01*
X463752380Y-160180952D01*
X463752380Y-160371428D01*
X463704761Y-160466666D01*
X463657142Y-160514285D01*
X463561904Y-160561904D01*
X463371428Y-160561904D01*
X463276190Y-160514285D01*
X463228571Y-160466666D01*
X463180952Y-160371428D01*
%TO.C,U1*%
X233311904Y-103702380D02*
X233311904Y-104511904D01*
X233264285Y-104607142D01*
X233216666Y-104654761D01*
X233121428Y-104702380D01*
X232930952Y-104702380D01*
X232835714Y-104654761D01*
X232788095Y-104607142D01*
X232740476Y-104511904D01*
X232740476Y-103702380D01*
X231740476Y-104702380D02*
X232311904Y-104702380D01*
X232026190Y-104702380D02*
X232026190Y-103702380D01*
X232121428Y-103845238D01*
X232216666Y-103940476D01*
X232311904Y-103988095D01*
%TO.C,D54*%
X289752380Y-138935714D02*
X288752380Y-138935714D01*
X288752380Y-139173809D01*
X288800000Y-139316666D01*
X288895238Y-139411904D01*
X288990476Y-139459523D01*
X289180952Y-139507142D01*
X289323809Y-139507142D01*
X289514285Y-139459523D01*
X289609523Y-139411904D01*
X289704761Y-139316666D01*
X289752380Y-139173809D01*
X289752380Y-138935714D01*
X288752380Y-140411904D02*
X288752380Y-139935714D01*
X289228571Y-139888095D01*
X289180952Y-139935714D01*
X289133333Y-140030952D01*
X289133333Y-140269047D01*
X289180952Y-140364285D01*
X289228571Y-140411904D01*
X289323809Y-140459523D01*
X289561904Y-140459523D01*
X289657142Y-140411904D01*
X289704761Y-140364285D01*
X289752380Y-140269047D01*
X289752380Y-140030952D01*
X289704761Y-139935714D01*
X289657142Y-139888095D01*
X289085714Y-141316666D02*
X289752380Y-141316666D01*
X288704761Y-141078571D02*
X289419047Y-140840476D01*
X289419047Y-141459523D01*
%TO.C,D4*%
X265902380Y-82361904D02*
X264902380Y-82361904D01*
X264902380Y-82600000D01*
X264950000Y-82742857D01*
X265045238Y-82838095D01*
X265140476Y-82885714D01*
X265330952Y-82933333D01*
X265473809Y-82933333D01*
X265664285Y-82885714D01*
X265759523Y-82838095D01*
X265854761Y-82742857D01*
X265902380Y-82600000D01*
X265902380Y-82361904D01*
X265235714Y-83790476D02*
X265902380Y-83790476D01*
X264854761Y-83552380D02*
X265569047Y-83314285D01*
X265569047Y-83933333D01*
%TO.C,D24*%
X313552380Y-100885714D02*
X312552380Y-100885714D01*
X312552380Y-101123809D01*
X312600000Y-101266666D01*
X312695238Y-101361904D01*
X312790476Y-101409523D01*
X312980952Y-101457142D01*
X313123809Y-101457142D01*
X313314285Y-101409523D01*
X313409523Y-101361904D01*
X313504761Y-101266666D01*
X313552380Y-101123809D01*
X313552380Y-100885714D01*
X312647619Y-101838095D02*
X312600000Y-101885714D01*
X312552380Y-101980952D01*
X312552380Y-102219047D01*
X312600000Y-102314285D01*
X312647619Y-102361904D01*
X312742857Y-102409523D01*
X312838095Y-102409523D01*
X312980952Y-102361904D01*
X313552380Y-101790476D01*
X313552380Y-102409523D01*
X312885714Y-103266666D02*
X313552380Y-103266666D01*
X312504761Y-103028571D02*
X313219047Y-102790476D01*
X313219047Y-103409523D01*
%TO.C,D25*%
X332552380Y-100885714D02*
X331552380Y-100885714D01*
X331552380Y-101123809D01*
X331600000Y-101266666D01*
X331695238Y-101361904D01*
X331790476Y-101409523D01*
X331980952Y-101457142D01*
X332123809Y-101457142D01*
X332314285Y-101409523D01*
X332409523Y-101361904D01*
X332504761Y-101266666D01*
X332552380Y-101123809D01*
X332552380Y-100885714D01*
X331647619Y-101838095D02*
X331600000Y-101885714D01*
X331552380Y-101980952D01*
X331552380Y-102219047D01*
X331600000Y-102314285D01*
X331647619Y-102361904D01*
X331742857Y-102409523D01*
X331838095Y-102409523D01*
X331980952Y-102361904D01*
X332552380Y-101790476D01*
X332552380Y-102409523D01*
X331552380Y-103314285D02*
X331552380Y-102838095D01*
X332028571Y-102790476D01*
X331980952Y-102838095D01*
X331933333Y-102933333D01*
X331933333Y-103171428D01*
X331980952Y-103266666D01*
X332028571Y-103314285D01*
X332123809Y-103361904D01*
X332361904Y-103361904D01*
X332457142Y-103314285D01*
X332504761Y-103266666D01*
X332552380Y-103171428D01*
X332552380Y-102933333D01*
X332504761Y-102838095D01*
X332457142Y-102790476D01*
%TO.C,D10*%
X380202380Y-81885714D02*
X379202380Y-81885714D01*
X379202380Y-82123809D01*
X379250000Y-82266666D01*
X379345238Y-82361904D01*
X379440476Y-82409523D01*
X379630952Y-82457142D01*
X379773809Y-82457142D01*
X379964285Y-82409523D01*
X380059523Y-82361904D01*
X380154761Y-82266666D01*
X380202380Y-82123809D01*
X380202380Y-81885714D01*
X380202380Y-83409523D02*
X380202380Y-82838095D01*
X380202380Y-83123809D02*
X379202380Y-83123809D01*
X379345238Y-83028571D01*
X379440476Y-82933333D01*
X379488095Y-82838095D01*
X379202380Y-84028571D02*
X379202380Y-84123809D01*
X379250000Y-84219047D01*
X379297619Y-84266666D01*
X379392857Y-84314285D01*
X379583333Y-84361904D01*
X379821428Y-84361904D01*
X380011904Y-84314285D01*
X380107142Y-84266666D01*
X380154761Y-84219047D01*
X380202380Y-84123809D01*
X380202380Y-84028571D01*
X380154761Y-83933333D01*
X380107142Y-83885714D01*
X380011904Y-83838095D01*
X379821428Y-83790476D01*
X379583333Y-83790476D01*
X379392857Y-83838095D01*
X379297619Y-83885714D01*
X379250000Y-83933333D01*
X379202380Y-84028571D01*
%TO.C,D27*%
X370652380Y-100885714D02*
X369652380Y-100885714D01*
X369652380Y-101123809D01*
X369700000Y-101266666D01*
X369795238Y-101361904D01*
X369890476Y-101409523D01*
X370080952Y-101457142D01*
X370223809Y-101457142D01*
X370414285Y-101409523D01*
X370509523Y-101361904D01*
X370604761Y-101266666D01*
X370652380Y-101123809D01*
X370652380Y-100885714D01*
X369747619Y-101838095D02*
X369700000Y-101885714D01*
X369652380Y-101980952D01*
X369652380Y-102219047D01*
X369700000Y-102314285D01*
X369747619Y-102361904D01*
X369842857Y-102409523D01*
X369938095Y-102409523D01*
X370080952Y-102361904D01*
X370652380Y-101790476D01*
X370652380Y-102409523D01*
X369652380Y-102742857D02*
X369652380Y-103409523D01*
X370652380Y-102980952D01*
%TO.C,D2*%
X223051380Y-82361904D02*
X222051380Y-82361904D01*
X222051380Y-82600000D01*
X222099000Y-82742857D01*
X222194238Y-82838095D01*
X222289476Y-82885714D01*
X222479952Y-82933333D01*
X222622809Y-82933333D01*
X222813285Y-82885714D01*
X222908523Y-82838095D01*
X223003761Y-82742857D01*
X223051380Y-82600000D01*
X223051380Y-82361904D01*
X222146619Y-83314285D02*
X222099000Y-83361904D01*
X222051380Y-83457142D01*
X222051380Y-83695238D01*
X222099000Y-83790476D01*
X222146619Y-83838095D01*
X222241857Y-83885714D01*
X222337095Y-83885714D01*
X222479952Y-83838095D01*
X223051380Y-83266666D01*
X223051380Y-83885714D01*
%TO.C,D1*%
X204001380Y-82361904D02*
X203001380Y-82361904D01*
X203001380Y-82600000D01*
X203049000Y-82742857D01*
X203144238Y-82838095D01*
X203239476Y-82885714D01*
X203429952Y-82933333D01*
X203572809Y-82933333D01*
X203763285Y-82885714D01*
X203858523Y-82838095D01*
X203953761Y-82742857D01*
X204001380Y-82600000D01*
X204001380Y-82361904D01*
X204001380Y-83885714D02*
X204001380Y-83314285D01*
X204001380Y-83600000D02*
X203001380Y-83600000D01*
X203144238Y-83504761D01*
X203239476Y-83409523D01*
X203287095Y-83314285D01*
%TO.C,U2*%
X230702380Y-122488095D02*
X231511904Y-122488095D01*
X231607142Y-122535714D01*
X231654761Y-122583333D01*
X231702380Y-122678571D01*
X231702380Y-122869047D01*
X231654761Y-122964285D01*
X231607142Y-123011904D01*
X231511904Y-123059523D01*
X230702380Y-123059523D01*
X230797619Y-123488095D02*
X230750000Y-123535714D01*
X230702380Y-123630952D01*
X230702380Y-123869047D01*
X230750000Y-123964285D01*
X230797619Y-124011904D01*
X230892857Y-124059523D01*
X230988095Y-124059523D01*
X231130952Y-124011904D01*
X231702380Y-123440476D01*
X231702380Y-124059523D01*
%TO.C,D66*%
X492704285Y-150566380D02*
X492704285Y-149566380D01*
X492466190Y-149566380D01*
X492323333Y-149614000D01*
X492228095Y-149709238D01*
X492180476Y-149804476D01*
X492132857Y-149994952D01*
X492132857Y-150137809D01*
X492180476Y-150328285D01*
X492228095Y-150423523D01*
X492323333Y-150518761D01*
X492466190Y-150566380D01*
X492704285Y-150566380D01*
X491275714Y-149566380D02*
X491466190Y-149566380D01*
X491561428Y-149614000D01*
X491609047Y-149661619D01*
X491704285Y-149804476D01*
X491751904Y-149994952D01*
X491751904Y-150375904D01*
X491704285Y-150471142D01*
X491656666Y-150518761D01*
X491561428Y-150566380D01*
X491370952Y-150566380D01*
X491275714Y-150518761D01*
X491228095Y-150471142D01*
X491180476Y-150375904D01*
X491180476Y-150137809D01*
X491228095Y-150042571D01*
X491275714Y-149994952D01*
X491370952Y-149947333D01*
X491561428Y-149947333D01*
X491656666Y-149994952D01*
X491704285Y-150042571D01*
X491751904Y-150137809D01*
X490323333Y-149566380D02*
X490513809Y-149566380D01*
X490609047Y-149614000D01*
X490656666Y-149661619D01*
X490751904Y-149804476D01*
X490799523Y-149994952D01*
X490799523Y-150375904D01*
X490751904Y-150471142D01*
X490704285Y-150518761D01*
X490609047Y-150566380D01*
X490418571Y-150566380D01*
X490323333Y-150518761D01*
X490275714Y-150471142D01*
X490228095Y-150375904D01*
X490228095Y-150137809D01*
X490275714Y-150042571D01*
X490323333Y-149994952D01*
X490418571Y-149947333D01*
X490609047Y-149947333D01*
X490704285Y-149994952D01*
X490751904Y-150042571D01*
X490799523Y-150137809D01*
%TO.C,D17*%
X488132380Y-102417714D02*
X487132380Y-102417714D01*
X487132380Y-102655809D01*
X487180000Y-102798666D01*
X487275238Y-102893904D01*
X487370476Y-102941523D01*
X487560952Y-102989142D01*
X487703809Y-102989142D01*
X487894285Y-102941523D01*
X487989523Y-102893904D01*
X488084761Y-102798666D01*
X488132380Y-102655809D01*
X488132380Y-102417714D01*
X488132380Y-103941523D02*
X488132380Y-103370095D01*
X488132380Y-103655809D02*
X487132380Y-103655809D01*
X487275238Y-103560571D01*
X487370476Y-103465333D01*
X487418095Y-103370095D01*
X487132380Y-104274857D02*
X487132380Y-104941523D01*
X488132380Y-104512952D01*
%TO.C,D37*%
X254052380Y-119985714D02*
X253052380Y-119985714D01*
X253052380Y-120223809D01*
X253100000Y-120366666D01*
X253195238Y-120461904D01*
X253290476Y-120509523D01*
X253480952Y-120557142D01*
X253623809Y-120557142D01*
X253814285Y-120509523D01*
X253909523Y-120461904D01*
X254004761Y-120366666D01*
X254052380Y-120223809D01*
X254052380Y-119985714D01*
X253052380Y-120890476D02*
X253052380Y-121509523D01*
X253433333Y-121176190D01*
X253433333Y-121319047D01*
X253480952Y-121414285D01*
X253528571Y-121461904D01*
X253623809Y-121509523D01*
X253861904Y-121509523D01*
X253957142Y-121461904D01*
X254004761Y-121414285D01*
X254052380Y-121319047D01*
X254052380Y-121033333D01*
X254004761Y-120938095D01*
X253957142Y-120890476D01*
X253052380Y-121842857D02*
X253052380Y-122509523D01*
X254052380Y-122080952D01*
%TO.C,D48*%
X451752380Y-119985714D02*
X450752380Y-119985714D01*
X450752380Y-120223809D01*
X450800000Y-120366666D01*
X450895238Y-120461904D01*
X450990476Y-120509523D01*
X451180952Y-120557142D01*
X451323809Y-120557142D01*
X451514285Y-120509523D01*
X451609523Y-120461904D01*
X451704761Y-120366666D01*
X451752380Y-120223809D01*
X451752380Y-119985714D01*
X451085714Y-121414285D02*
X451752380Y-121414285D01*
X450704761Y-121176190D02*
X451419047Y-120938095D01*
X451419047Y-121557142D01*
X451180952Y-122080952D02*
X451133333Y-121985714D01*
X451085714Y-121938095D01*
X450990476Y-121890476D01*
X450942857Y-121890476D01*
X450847619Y-121938095D01*
X450800000Y-121985714D01*
X450752380Y-122080952D01*
X450752380Y-122271428D01*
X450800000Y-122366666D01*
X450847619Y-122414285D01*
X450942857Y-122461904D01*
X450990476Y-122461904D01*
X451085714Y-122414285D01*
X451133333Y-122366666D01*
X451180952Y-122271428D01*
X451180952Y-122080952D01*
X451228571Y-121985714D01*
X451276190Y-121938095D01*
X451371428Y-121890476D01*
X451561904Y-121890476D01*
X451657142Y-121938095D01*
X451704761Y-121985714D01*
X451752380Y-122080952D01*
X451752380Y-122271428D01*
X451704761Y-122366666D01*
X451657142Y-122414285D01*
X451561904Y-122461904D01*
X451371428Y-122461904D01*
X451276190Y-122414285D01*
X451228571Y-122366666D01*
X451180952Y-122271428D01*
%TO.C,D16*%
X459430380Y-83367714D02*
X458430380Y-83367714D01*
X458430380Y-83605809D01*
X458478000Y-83748666D01*
X458573238Y-83843904D01*
X458668476Y-83891523D01*
X458858952Y-83939142D01*
X459001809Y-83939142D01*
X459192285Y-83891523D01*
X459287523Y-83843904D01*
X459382761Y-83748666D01*
X459430380Y-83605809D01*
X459430380Y-83367714D01*
X459430380Y-84891523D02*
X459430380Y-84320095D01*
X459430380Y-84605809D02*
X458430380Y-84605809D01*
X458573238Y-84510571D01*
X458668476Y-84415333D01*
X458716095Y-84320095D01*
X458430380Y-85748666D02*
X458430380Y-85558190D01*
X458478000Y-85462952D01*
X458525619Y-85415333D01*
X458668476Y-85320095D01*
X458858952Y-85272476D01*
X459239904Y-85272476D01*
X459335142Y-85320095D01*
X459382761Y-85367714D01*
X459430380Y-85462952D01*
X459430380Y-85653428D01*
X459382761Y-85748666D01*
X459335142Y-85796285D01*
X459239904Y-85843904D01*
X459001809Y-85843904D01*
X458906571Y-85796285D01*
X458858952Y-85748666D01*
X458811333Y-85653428D01*
X458811333Y-85462952D01*
X458858952Y-85367714D01*
X458906571Y-85320095D01*
X459001809Y-85272476D01*
%TO.C,R2*%
X222402380Y-103033333D02*
X221926190Y-102700000D01*
X222402380Y-102461904D02*
X221402380Y-102461904D01*
X221402380Y-102842857D01*
X221450000Y-102938095D01*
X221497619Y-102985714D01*
X221592857Y-103033333D01*
X221735714Y-103033333D01*
X221830952Y-102985714D01*
X221878571Y-102938095D01*
X221926190Y-102842857D01*
X221926190Y-102461904D01*
X221497619Y-103414285D02*
X221450000Y-103461904D01*
X221402380Y-103557142D01*
X221402380Y-103795238D01*
X221450000Y-103890476D01*
X221497619Y-103938095D01*
X221592857Y-103985714D01*
X221688095Y-103985714D01*
X221830952Y-103938095D01*
X222402380Y-103366666D01*
X222402380Y-103985714D01*
%TO.C,D59*%
X384952380Y-138935714D02*
X383952380Y-138935714D01*
X383952380Y-139173809D01*
X384000000Y-139316666D01*
X384095238Y-139411904D01*
X384190476Y-139459523D01*
X384380952Y-139507142D01*
X384523809Y-139507142D01*
X384714285Y-139459523D01*
X384809523Y-139411904D01*
X384904761Y-139316666D01*
X384952380Y-139173809D01*
X384952380Y-138935714D01*
X383952380Y-140411904D02*
X383952380Y-139935714D01*
X384428571Y-139888095D01*
X384380952Y-139935714D01*
X384333333Y-140030952D01*
X384333333Y-140269047D01*
X384380952Y-140364285D01*
X384428571Y-140411904D01*
X384523809Y-140459523D01*
X384761904Y-140459523D01*
X384857142Y-140411904D01*
X384904761Y-140364285D01*
X384952380Y-140269047D01*
X384952380Y-140030952D01*
X384904761Y-139935714D01*
X384857142Y-139888095D01*
X384952380Y-140935714D02*
X384952380Y-141126190D01*
X384904761Y-141221428D01*
X384857142Y-141269047D01*
X384714285Y-141364285D01*
X384523809Y-141411904D01*
X384142857Y-141411904D01*
X384047619Y-141364285D01*
X384000000Y-141316666D01*
X383952380Y-141221428D01*
X383952380Y-141030952D01*
X384000000Y-140935714D01*
X384047619Y-140888095D01*
X384142857Y-140840476D01*
X384380952Y-140840476D01*
X384476190Y-140888095D01*
X384523809Y-140935714D01*
X384571428Y-141030952D01*
X384571428Y-141221428D01*
X384523809Y-141316666D01*
X384476190Y-141364285D01*
X384380952Y-141411904D01*
%TO.C,D63*%
X461202380Y-138935714D02*
X460202380Y-138935714D01*
X460202380Y-139173809D01*
X460250000Y-139316666D01*
X460345238Y-139411904D01*
X460440476Y-139459523D01*
X460630952Y-139507142D01*
X460773809Y-139507142D01*
X460964285Y-139459523D01*
X461059523Y-139411904D01*
X461154761Y-139316666D01*
X461202380Y-139173809D01*
X461202380Y-138935714D01*
X460202380Y-140364285D02*
X460202380Y-140173809D01*
X460250000Y-140078571D01*
X460297619Y-140030952D01*
X460440476Y-139935714D01*
X460630952Y-139888095D01*
X461011904Y-139888095D01*
X461107142Y-139935714D01*
X461154761Y-139983333D01*
X461202380Y-140078571D01*
X461202380Y-140269047D01*
X461154761Y-140364285D01*
X461107142Y-140411904D01*
X461011904Y-140459523D01*
X460773809Y-140459523D01*
X460678571Y-140411904D01*
X460630952Y-140364285D01*
X460583333Y-140269047D01*
X460583333Y-140078571D01*
X460630952Y-139983333D01*
X460678571Y-139935714D01*
X460773809Y-139888095D01*
X460202380Y-140792857D02*
X460202380Y-141411904D01*
X460583333Y-141078571D01*
X460583333Y-141221428D01*
X460630952Y-141316666D01*
X460678571Y-141364285D01*
X460773809Y-141411904D01*
X461011904Y-141411904D01*
X461107142Y-141364285D01*
X461154761Y-141316666D01*
X461202380Y-141221428D01*
X461202380Y-140935714D01*
X461154761Y-140840476D01*
X461107142Y-140792857D01*
%TO.C,D82*%
X492704285Y-153106380D02*
X492704285Y-152106380D01*
X492466190Y-152106380D01*
X492323333Y-152154000D01*
X492228095Y-152249238D01*
X492180476Y-152344476D01*
X492132857Y-152534952D01*
X492132857Y-152677809D01*
X492180476Y-152868285D01*
X492228095Y-152963523D01*
X492323333Y-153058761D01*
X492466190Y-153106380D01*
X492704285Y-153106380D01*
X491561428Y-152534952D02*
X491656666Y-152487333D01*
X491704285Y-152439714D01*
X491751904Y-152344476D01*
X491751904Y-152296857D01*
X491704285Y-152201619D01*
X491656666Y-152154000D01*
X491561428Y-152106380D01*
X491370952Y-152106380D01*
X491275714Y-152154000D01*
X491228095Y-152201619D01*
X491180476Y-152296857D01*
X491180476Y-152344476D01*
X491228095Y-152439714D01*
X491275714Y-152487333D01*
X491370952Y-152534952D01*
X491561428Y-152534952D01*
X491656666Y-152582571D01*
X491704285Y-152630190D01*
X491751904Y-152725428D01*
X491751904Y-152915904D01*
X491704285Y-153011142D01*
X491656666Y-153058761D01*
X491561428Y-153106380D01*
X491370952Y-153106380D01*
X491275714Y-153058761D01*
X491228095Y-153011142D01*
X491180476Y-152915904D01*
X491180476Y-152725428D01*
X491228095Y-152630190D01*
X491275714Y-152582571D01*
X491370952Y-152534952D01*
X490799523Y-152201619D02*
X490751904Y-152154000D01*
X490656666Y-152106380D01*
X490418571Y-152106380D01*
X490323333Y-152154000D01*
X490275714Y-152201619D01*
X490228095Y-152296857D01*
X490228095Y-152392095D01*
X490275714Y-152534952D01*
X490847142Y-153106380D01*
X490228095Y-153106380D01*
%TO.C,D71*%
X275552380Y-158085714D02*
X274552380Y-158085714D01*
X274552380Y-158323809D01*
X274600000Y-158466666D01*
X274695238Y-158561904D01*
X274790476Y-158609523D01*
X274980952Y-158657142D01*
X275123809Y-158657142D01*
X275314285Y-158609523D01*
X275409523Y-158561904D01*
X275504761Y-158466666D01*
X275552380Y-158323809D01*
X275552380Y-158085714D01*
X274552380Y-158990476D02*
X274552380Y-159657142D01*
X275552380Y-159228571D01*
X275552380Y-160561904D02*
X275552380Y-159990476D01*
X275552380Y-160276190D02*
X274552380Y-160276190D01*
X274695238Y-160180952D01*
X274790476Y-160085714D01*
X274838095Y-159990476D01*
%TO.C,D62*%
X442152380Y-138935714D02*
X441152380Y-138935714D01*
X441152380Y-139173809D01*
X441200000Y-139316666D01*
X441295238Y-139411904D01*
X441390476Y-139459523D01*
X441580952Y-139507142D01*
X441723809Y-139507142D01*
X441914285Y-139459523D01*
X442009523Y-139411904D01*
X442104761Y-139316666D01*
X442152380Y-139173809D01*
X442152380Y-138935714D01*
X441152380Y-140364285D02*
X441152380Y-140173809D01*
X441200000Y-140078571D01*
X441247619Y-140030952D01*
X441390476Y-139935714D01*
X441580952Y-139888095D01*
X441961904Y-139888095D01*
X442057142Y-139935714D01*
X442104761Y-139983333D01*
X442152380Y-140078571D01*
X442152380Y-140269047D01*
X442104761Y-140364285D01*
X442057142Y-140411904D01*
X441961904Y-140459523D01*
X441723809Y-140459523D01*
X441628571Y-140411904D01*
X441580952Y-140364285D01*
X441533333Y-140269047D01*
X441533333Y-140078571D01*
X441580952Y-139983333D01*
X441628571Y-139935714D01*
X441723809Y-139888095D01*
X441247619Y-140840476D02*
X441200000Y-140888095D01*
X441152380Y-140983333D01*
X441152380Y-141221428D01*
X441200000Y-141316666D01*
X441247619Y-141364285D01*
X441342857Y-141411904D01*
X441438095Y-141411904D01*
X441580952Y-141364285D01*
X442152380Y-140792857D01*
X442152380Y-141411904D01*
%TO.C,D67*%
X200350380Y-159567714D02*
X199350380Y-159567714D01*
X199350380Y-159805809D01*
X199398000Y-159948666D01*
X199493238Y-160043904D01*
X199588476Y-160091523D01*
X199778952Y-160139142D01*
X199921809Y-160139142D01*
X200112285Y-160091523D01*
X200207523Y-160043904D01*
X200302761Y-159948666D01*
X200350380Y-159805809D01*
X200350380Y-159567714D01*
X199350380Y-160996285D02*
X199350380Y-160805809D01*
X199398000Y-160710571D01*
X199445619Y-160662952D01*
X199588476Y-160567714D01*
X199778952Y-160520095D01*
X200159904Y-160520095D01*
X200255142Y-160567714D01*
X200302761Y-160615333D01*
X200350380Y-160710571D01*
X200350380Y-160901047D01*
X200302761Y-160996285D01*
X200255142Y-161043904D01*
X200159904Y-161091523D01*
X199921809Y-161091523D01*
X199826571Y-161043904D01*
X199778952Y-160996285D01*
X199731333Y-160901047D01*
X199731333Y-160710571D01*
X199778952Y-160615333D01*
X199826571Y-160567714D01*
X199921809Y-160520095D01*
X199350380Y-161424857D02*
X199350380Y-162091523D01*
X200350380Y-161662952D01*
%TO.C,D77*%
X439752380Y-158085714D02*
X438752380Y-158085714D01*
X438752380Y-158323809D01*
X438800000Y-158466666D01*
X438895238Y-158561904D01*
X438990476Y-158609523D01*
X439180952Y-158657142D01*
X439323809Y-158657142D01*
X439514285Y-158609523D01*
X439609523Y-158561904D01*
X439704761Y-158466666D01*
X439752380Y-158323809D01*
X439752380Y-158085714D01*
X438752380Y-158990476D02*
X438752380Y-159657142D01*
X439752380Y-159228571D01*
X438752380Y-159942857D02*
X438752380Y-160609523D01*
X439752380Y-160180952D01*
%TO.C,D11*%
X399302380Y-81885714D02*
X398302380Y-81885714D01*
X398302380Y-82123809D01*
X398350000Y-82266666D01*
X398445238Y-82361904D01*
X398540476Y-82409523D01*
X398730952Y-82457142D01*
X398873809Y-82457142D01*
X399064285Y-82409523D01*
X399159523Y-82361904D01*
X399254761Y-82266666D01*
X399302380Y-82123809D01*
X399302380Y-81885714D01*
X399302380Y-83409523D02*
X399302380Y-82838095D01*
X399302380Y-83123809D02*
X398302380Y-83123809D01*
X398445238Y-83028571D01*
X398540476Y-82933333D01*
X398588095Y-82838095D01*
X399302380Y-84361904D02*
X399302380Y-83790476D01*
X399302380Y-84076190D02*
X398302380Y-84076190D01*
X398445238Y-83980952D01*
X398540476Y-83885714D01*
X398588095Y-83790476D01*
%TO.C,D30*%
X427852380Y-100885714D02*
X426852380Y-100885714D01*
X426852380Y-101123809D01*
X426900000Y-101266666D01*
X426995238Y-101361904D01*
X427090476Y-101409523D01*
X427280952Y-101457142D01*
X427423809Y-101457142D01*
X427614285Y-101409523D01*
X427709523Y-101361904D01*
X427804761Y-101266666D01*
X427852380Y-101123809D01*
X427852380Y-100885714D01*
X426852380Y-101790476D02*
X426852380Y-102409523D01*
X427233333Y-102076190D01*
X427233333Y-102219047D01*
X427280952Y-102314285D01*
X427328571Y-102361904D01*
X427423809Y-102409523D01*
X427661904Y-102409523D01*
X427757142Y-102361904D01*
X427804761Y-102314285D01*
X427852380Y-102219047D01*
X427852380Y-101933333D01*
X427804761Y-101838095D01*
X427757142Y-101790476D01*
X426852380Y-103028571D02*
X426852380Y-103123809D01*
X426900000Y-103219047D01*
X426947619Y-103266666D01*
X427042857Y-103314285D01*
X427233333Y-103361904D01*
X427471428Y-103361904D01*
X427661904Y-103314285D01*
X427757142Y-103266666D01*
X427804761Y-103219047D01*
X427852380Y-103123809D01*
X427852380Y-103028571D01*
X427804761Y-102933333D01*
X427757142Y-102885714D01*
X427661904Y-102838095D01*
X427471428Y-102790476D01*
X427233333Y-102790476D01*
X427042857Y-102838095D01*
X426947619Y-102885714D01*
X426900000Y-102933333D01*
X426852380Y-103028571D01*
%TO.C,D75*%
X380152380Y-158085714D02*
X379152380Y-158085714D01*
X379152380Y-158323809D01*
X379200000Y-158466666D01*
X379295238Y-158561904D01*
X379390476Y-158609523D01*
X379580952Y-158657142D01*
X379723809Y-158657142D01*
X379914285Y-158609523D01*
X380009523Y-158561904D01*
X380104761Y-158466666D01*
X380152380Y-158323809D01*
X380152380Y-158085714D01*
X379152380Y-158990476D02*
X379152380Y-159657142D01*
X380152380Y-159228571D01*
X379152380Y-160514285D02*
X379152380Y-160038095D01*
X379628571Y-159990476D01*
X379580952Y-160038095D01*
X379533333Y-160133333D01*
X379533333Y-160371428D01*
X379580952Y-160466666D01*
X379628571Y-160514285D01*
X379723809Y-160561904D01*
X379961904Y-160561904D01*
X380057142Y-160514285D01*
X380104761Y-160466666D01*
X380152380Y-160371428D01*
X380152380Y-160133333D01*
X380104761Y-160038095D01*
X380057142Y-159990476D01*
%TO.C,D5*%
X284952380Y-82361904D02*
X283952380Y-82361904D01*
X283952380Y-82600000D01*
X284000000Y-82742857D01*
X284095238Y-82838095D01*
X284190476Y-82885714D01*
X284380952Y-82933333D01*
X284523809Y-82933333D01*
X284714285Y-82885714D01*
X284809523Y-82838095D01*
X284904761Y-82742857D01*
X284952380Y-82600000D01*
X284952380Y-82361904D01*
X283952380Y-83838095D02*
X283952380Y-83361904D01*
X284428571Y-83314285D01*
X284380952Y-83361904D01*
X284333333Y-83457142D01*
X284333333Y-83695238D01*
X284380952Y-83790476D01*
X284428571Y-83838095D01*
X284523809Y-83885714D01*
X284761904Y-83885714D01*
X284857142Y-83838095D01*
X284904761Y-83790476D01*
X284952380Y-83695238D01*
X284952380Y-83457142D01*
X284904761Y-83361904D01*
X284857142Y-83314285D01*
%TO.C,D12*%
X418302380Y-81885714D02*
X417302380Y-81885714D01*
X417302380Y-82123809D01*
X417350000Y-82266666D01*
X417445238Y-82361904D01*
X417540476Y-82409523D01*
X417730952Y-82457142D01*
X417873809Y-82457142D01*
X418064285Y-82409523D01*
X418159523Y-82361904D01*
X418254761Y-82266666D01*
X418302380Y-82123809D01*
X418302380Y-81885714D01*
X418302380Y-83409523D02*
X418302380Y-82838095D01*
X418302380Y-83123809D02*
X417302380Y-83123809D01*
X417445238Y-83028571D01*
X417540476Y-82933333D01*
X417588095Y-82838095D01*
X417397619Y-83790476D02*
X417350000Y-83838095D01*
X417302380Y-83933333D01*
X417302380Y-84171428D01*
X417350000Y-84266666D01*
X417397619Y-84314285D01*
X417492857Y-84361904D01*
X417588095Y-84361904D01*
X417730952Y-84314285D01*
X418302380Y-83742857D01*
X418302380Y-84361904D01*
%TO.C,D57*%
X346902380Y-138935714D02*
X345902380Y-138935714D01*
X345902380Y-139173809D01*
X345950000Y-139316666D01*
X346045238Y-139411904D01*
X346140476Y-139459523D01*
X346330952Y-139507142D01*
X346473809Y-139507142D01*
X346664285Y-139459523D01*
X346759523Y-139411904D01*
X346854761Y-139316666D01*
X346902380Y-139173809D01*
X346902380Y-138935714D01*
X345902380Y-140411904D02*
X345902380Y-139935714D01*
X346378571Y-139888095D01*
X346330952Y-139935714D01*
X346283333Y-140030952D01*
X346283333Y-140269047D01*
X346330952Y-140364285D01*
X346378571Y-140411904D01*
X346473809Y-140459523D01*
X346711904Y-140459523D01*
X346807142Y-140411904D01*
X346854761Y-140364285D01*
X346902380Y-140269047D01*
X346902380Y-140030952D01*
X346854761Y-139935714D01*
X346807142Y-139888095D01*
X345902380Y-140792857D02*
X345902380Y-141459523D01*
X346902380Y-141030952D01*
%TO.C,D73*%
X299252380Y-158085714D02*
X298252380Y-158085714D01*
X298252380Y-158323809D01*
X298300000Y-158466666D01*
X298395238Y-158561904D01*
X298490476Y-158609523D01*
X298680952Y-158657142D01*
X298823809Y-158657142D01*
X299014285Y-158609523D01*
X299109523Y-158561904D01*
X299204761Y-158466666D01*
X299252380Y-158323809D01*
X299252380Y-158085714D01*
X298252380Y-158990476D02*
X298252380Y-159657142D01*
X299252380Y-159228571D01*
X298252380Y-159942857D02*
X298252380Y-160561904D01*
X298633333Y-160228571D01*
X298633333Y-160371428D01*
X298680952Y-160466666D01*
X298728571Y-160514285D01*
X298823809Y-160561904D01*
X299061904Y-160561904D01*
X299157142Y-160514285D01*
X299204761Y-160466666D01*
X299252380Y-160371428D01*
X299252380Y-160085714D01*
X299204761Y-159990476D01*
X299157142Y-159942857D01*
%TO.C,D3*%
X246852380Y-82361904D02*
X245852380Y-82361904D01*
X245852380Y-82600000D01*
X245900000Y-82742857D01*
X245995238Y-82838095D01*
X246090476Y-82885714D01*
X246280952Y-82933333D01*
X246423809Y-82933333D01*
X246614285Y-82885714D01*
X246709523Y-82838095D01*
X246804761Y-82742857D01*
X246852380Y-82600000D01*
X246852380Y-82361904D01*
X245852380Y-83266666D02*
X245852380Y-83885714D01*
X246233333Y-83552380D01*
X246233333Y-83695238D01*
X246280952Y-83790476D01*
X246328571Y-83838095D01*
X246423809Y-83885714D01*
X246661904Y-83885714D01*
X246757142Y-83838095D01*
X246804761Y-83790476D01*
X246852380Y-83695238D01*
X246852380Y-83409523D01*
X246804761Y-83314285D01*
X246757142Y-83266666D01*
%TO.C,D61*%
X423052380Y-138935714D02*
X422052380Y-138935714D01*
X422052380Y-139173809D01*
X422100000Y-139316666D01*
X422195238Y-139411904D01*
X422290476Y-139459523D01*
X422480952Y-139507142D01*
X422623809Y-139507142D01*
X422814285Y-139459523D01*
X422909523Y-139411904D01*
X423004761Y-139316666D01*
X423052380Y-139173809D01*
X423052380Y-138935714D01*
X422052380Y-140364285D02*
X422052380Y-140173809D01*
X422100000Y-140078571D01*
X422147619Y-140030952D01*
X422290476Y-139935714D01*
X422480952Y-139888095D01*
X422861904Y-139888095D01*
X422957142Y-139935714D01*
X423004761Y-139983333D01*
X423052380Y-140078571D01*
X423052380Y-140269047D01*
X423004761Y-140364285D01*
X422957142Y-140411904D01*
X422861904Y-140459523D01*
X422623809Y-140459523D01*
X422528571Y-140411904D01*
X422480952Y-140364285D01*
X422433333Y-140269047D01*
X422433333Y-140078571D01*
X422480952Y-139983333D01*
X422528571Y-139935714D01*
X422623809Y-139888095D01*
X423052380Y-141411904D02*
X423052380Y-140840476D01*
X423052380Y-141126190D02*
X422052380Y-141126190D01*
X422195238Y-141030952D01*
X422290476Y-140935714D01*
X422338095Y-140840476D01*
%TO.C,D34*%
X482552380Y-119985714D02*
X481552380Y-119985714D01*
X481552380Y-120223809D01*
X481600000Y-120366666D01*
X481695238Y-120461904D01*
X481790476Y-120509523D01*
X481980952Y-120557142D01*
X482123809Y-120557142D01*
X482314285Y-120509523D01*
X482409523Y-120461904D01*
X482504761Y-120366666D01*
X482552380Y-120223809D01*
X482552380Y-119985714D01*
X481552380Y-120890476D02*
X481552380Y-121509523D01*
X481933333Y-121176190D01*
X481933333Y-121319047D01*
X481980952Y-121414285D01*
X482028571Y-121461904D01*
X482123809Y-121509523D01*
X482361904Y-121509523D01*
X482457142Y-121461904D01*
X482504761Y-121414285D01*
X482552380Y-121319047D01*
X482552380Y-121033333D01*
X482504761Y-120938095D01*
X482457142Y-120890476D01*
X481885714Y-122366666D02*
X482552380Y-122366666D01*
X481504761Y-122128571D02*
X482219047Y-121890476D01*
X482219047Y-122509523D01*
%TO.C,D23*%
X294452380Y-100885714D02*
X293452380Y-100885714D01*
X293452380Y-101123809D01*
X293500000Y-101266666D01*
X293595238Y-101361904D01*
X293690476Y-101409523D01*
X293880952Y-101457142D01*
X294023809Y-101457142D01*
X294214285Y-101409523D01*
X294309523Y-101361904D01*
X294404761Y-101266666D01*
X294452380Y-101123809D01*
X294452380Y-100885714D01*
X293547619Y-101838095D02*
X293500000Y-101885714D01*
X293452380Y-101980952D01*
X293452380Y-102219047D01*
X293500000Y-102314285D01*
X293547619Y-102361904D01*
X293642857Y-102409523D01*
X293738095Y-102409523D01*
X293880952Y-102361904D01*
X294452380Y-101790476D01*
X294452380Y-102409523D01*
X293452380Y-102742857D02*
X293452380Y-103361904D01*
X293833333Y-103028571D01*
X293833333Y-103171428D01*
X293880952Y-103266666D01*
X293928571Y-103314285D01*
X294023809Y-103361904D01*
X294261904Y-103361904D01*
X294357142Y-103314285D01*
X294404761Y-103266666D01*
X294452380Y-103171428D01*
X294452380Y-102885714D01*
X294404761Y-102790476D01*
X294357142Y-102742857D01*
%TO.C,D58*%
X365952380Y-138935714D02*
X364952380Y-138935714D01*
X364952380Y-139173809D01*
X365000000Y-139316666D01*
X365095238Y-139411904D01*
X365190476Y-139459523D01*
X365380952Y-139507142D01*
X365523809Y-139507142D01*
X365714285Y-139459523D01*
X365809523Y-139411904D01*
X365904761Y-139316666D01*
X365952380Y-139173809D01*
X365952380Y-138935714D01*
X364952380Y-140411904D02*
X364952380Y-139935714D01*
X365428571Y-139888095D01*
X365380952Y-139935714D01*
X365333333Y-140030952D01*
X365333333Y-140269047D01*
X365380952Y-140364285D01*
X365428571Y-140411904D01*
X365523809Y-140459523D01*
X365761904Y-140459523D01*
X365857142Y-140411904D01*
X365904761Y-140364285D01*
X365952380Y-140269047D01*
X365952380Y-140030952D01*
X365904761Y-139935714D01*
X365857142Y-139888095D01*
X365380952Y-141030952D02*
X365333333Y-140935714D01*
X365285714Y-140888095D01*
X365190476Y-140840476D01*
X365142857Y-140840476D01*
X365047619Y-140888095D01*
X365000000Y-140935714D01*
X364952380Y-141030952D01*
X364952380Y-141221428D01*
X365000000Y-141316666D01*
X365047619Y-141364285D01*
X365142857Y-141411904D01*
X365190476Y-141411904D01*
X365285714Y-141364285D01*
X365333333Y-141316666D01*
X365380952Y-141221428D01*
X365380952Y-141030952D01*
X365428571Y-140935714D01*
X365476190Y-140888095D01*
X365571428Y-140840476D01*
X365761904Y-140840476D01*
X365857142Y-140888095D01*
X365904761Y-140935714D01*
X365952380Y-141030952D01*
X365952380Y-141221428D01*
X365904761Y-141316666D01*
X365857142Y-141364285D01*
X365761904Y-141411904D01*
X365571428Y-141411904D01*
X365476190Y-141364285D01*
X365428571Y-141316666D01*
X365380952Y-141221428D01*
%TO.C,D35*%
X200096380Y-121467714D02*
X199096380Y-121467714D01*
X199096380Y-121705809D01*
X199144000Y-121848666D01*
X199239238Y-121943904D01*
X199334476Y-121991523D01*
X199524952Y-122039142D01*
X199667809Y-122039142D01*
X199858285Y-121991523D01*
X199953523Y-121943904D01*
X200048761Y-121848666D01*
X200096380Y-121705809D01*
X200096380Y-121467714D01*
X199096380Y-122372476D02*
X199096380Y-122991523D01*
X199477333Y-122658190D01*
X199477333Y-122801047D01*
X199524952Y-122896285D01*
X199572571Y-122943904D01*
X199667809Y-122991523D01*
X199905904Y-122991523D01*
X200001142Y-122943904D01*
X200048761Y-122896285D01*
X200096380Y-122801047D01*
X200096380Y-122515333D01*
X200048761Y-122420095D01*
X200001142Y-122372476D01*
X199096380Y-123896285D02*
X199096380Y-123420095D01*
X199572571Y-123372476D01*
X199524952Y-123420095D01*
X199477333Y-123515333D01*
X199477333Y-123753428D01*
X199524952Y-123848666D01*
X199572571Y-123896285D01*
X199667809Y-123943904D01*
X199905904Y-123943904D01*
X200001142Y-123896285D01*
X200048761Y-123848666D01*
X200096380Y-123753428D01*
X200096380Y-123515333D01*
X200048761Y-123420095D01*
X200001142Y-123372476D01*
%TO.C,D36*%
X207208380Y-121975714D02*
X206208380Y-121975714D01*
X206208380Y-122213809D01*
X206256000Y-122356666D01*
X206351238Y-122451904D01*
X206446476Y-122499523D01*
X206636952Y-122547142D01*
X206779809Y-122547142D01*
X206970285Y-122499523D01*
X207065523Y-122451904D01*
X207160761Y-122356666D01*
X207208380Y-122213809D01*
X207208380Y-121975714D01*
X206208380Y-122880476D02*
X206208380Y-123499523D01*
X206589333Y-123166190D01*
X206589333Y-123309047D01*
X206636952Y-123404285D01*
X206684571Y-123451904D01*
X206779809Y-123499523D01*
X207017904Y-123499523D01*
X207113142Y-123451904D01*
X207160761Y-123404285D01*
X207208380Y-123309047D01*
X207208380Y-123023333D01*
X207160761Y-122928095D01*
X207113142Y-122880476D01*
X206208380Y-124356666D02*
X206208380Y-124166190D01*
X206256000Y-124070952D01*
X206303619Y-124023333D01*
X206446476Y-123928095D01*
X206636952Y-123880476D01*
X207017904Y-123880476D01*
X207113142Y-123928095D01*
X207160761Y-123975714D01*
X207208380Y-124070952D01*
X207208380Y-124261428D01*
X207160761Y-124356666D01*
X207113142Y-124404285D01*
X207017904Y-124451904D01*
X206779809Y-124451904D01*
X206684571Y-124404285D01*
X206636952Y-124356666D01*
X206589333Y-124261428D01*
X206589333Y-124070952D01*
X206636952Y-123975714D01*
X206684571Y-123928095D01*
X206779809Y-123880476D01*
%TO.C,D46*%
X413552380Y-119985714D02*
X412552380Y-119985714D01*
X412552380Y-120223809D01*
X412600000Y-120366666D01*
X412695238Y-120461904D01*
X412790476Y-120509523D01*
X412980952Y-120557142D01*
X413123809Y-120557142D01*
X413314285Y-120509523D01*
X413409523Y-120461904D01*
X413504761Y-120366666D01*
X413552380Y-120223809D01*
X413552380Y-119985714D01*
X412885714Y-121414285D02*
X413552380Y-121414285D01*
X412504761Y-121176190D02*
X413219047Y-120938095D01*
X413219047Y-121557142D01*
X412552380Y-122366666D02*
X412552380Y-122176190D01*
X412600000Y-122080952D01*
X412647619Y-122033333D01*
X412790476Y-121938095D01*
X412980952Y-121890476D01*
X413361904Y-121890476D01*
X413457142Y-121938095D01*
X413504761Y-121985714D01*
X413552380Y-122080952D01*
X413552380Y-122271428D01*
X413504761Y-122366666D01*
X413457142Y-122414285D01*
X413361904Y-122461904D01*
X413123809Y-122461904D01*
X413028571Y-122414285D01*
X412980952Y-122366666D01*
X412933333Y-122271428D01*
X412933333Y-122080952D01*
X412980952Y-121985714D01*
X413028571Y-121938095D01*
X413123809Y-121890476D01*
%TO.C,D14*%
X452318380Y-83113714D02*
X451318380Y-83113714D01*
X451318380Y-83351809D01*
X451366000Y-83494666D01*
X451461238Y-83589904D01*
X451556476Y-83637523D01*
X451746952Y-83685142D01*
X451889809Y-83685142D01*
X452080285Y-83637523D01*
X452175523Y-83589904D01*
X452270761Y-83494666D01*
X452318380Y-83351809D01*
X452318380Y-83113714D01*
X452318380Y-84637523D02*
X452318380Y-84066095D01*
X452318380Y-84351809D02*
X451318380Y-84351809D01*
X451461238Y-84256571D01*
X451556476Y-84161333D01*
X451604095Y-84066095D01*
X451651714Y-85494666D02*
X452318380Y-85494666D01*
X451270761Y-85256571D02*
X451985047Y-85018476D01*
X451985047Y-85637523D01*
%TO.C,D28*%
X389752380Y-100885714D02*
X388752380Y-100885714D01*
X388752380Y-101123809D01*
X388800000Y-101266666D01*
X388895238Y-101361904D01*
X388990476Y-101409523D01*
X389180952Y-101457142D01*
X389323809Y-101457142D01*
X389514285Y-101409523D01*
X389609523Y-101361904D01*
X389704761Y-101266666D01*
X389752380Y-101123809D01*
X389752380Y-100885714D01*
X388847619Y-101838095D02*
X388800000Y-101885714D01*
X388752380Y-101980952D01*
X388752380Y-102219047D01*
X388800000Y-102314285D01*
X388847619Y-102361904D01*
X388942857Y-102409523D01*
X389038095Y-102409523D01*
X389180952Y-102361904D01*
X389752380Y-101790476D01*
X389752380Y-102409523D01*
X389180952Y-102980952D02*
X389133333Y-102885714D01*
X389085714Y-102838095D01*
X388990476Y-102790476D01*
X388942857Y-102790476D01*
X388847619Y-102838095D01*
X388800000Y-102885714D01*
X388752380Y-102980952D01*
X388752380Y-103171428D01*
X388800000Y-103266666D01*
X388847619Y-103314285D01*
X388942857Y-103361904D01*
X388990476Y-103361904D01*
X389085714Y-103314285D01*
X389133333Y-103266666D01*
X389180952Y-103171428D01*
X389180952Y-102980952D01*
X389228571Y-102885714D01*
X389276190Y-102838095D01*
X389371428Y-102790476D01*
X389561904Y-102790476D01*
X389657142Y-102838095D01*
X389704761Y-102885714D01*
X389752380Y-102980952D01*
X389752380Y-103171428D01*
X389704761Y-103266666D01*
X389657142Y-103314285D01*
X389561904Y-103361904D01*
X389371428Y-103361904D01*
X389276190Y-103314285D01*
X389228571Y-103266666D01*
X389180952Y-103171428D01*
%TO.C,D51*%
X200350380Y-140517714D02*
X199350380Y-140517714D01*
X199350380Y-140755809D01*
X199398000Y-140898666D01*
X199493238Y-140993904D01*
X199588476Y-141041523D01*
X199778952Y-141089142D01*
X199921809Y-141089142D01*
X200112285Y-141041523D01*
X200207523Y-140993904D01*
X200302761Y-140898666D01*
X200350380Y-140755809D01*
X200350380Y-140517714D01*
X199350380Y-141993904D02*
X199350380Y-141517714D01*
X199826571Y-141470095D01*
X199778952Y-141517714D01*
X199731333Y-141612952D01*
X199731333Y-141851047D01*
X199778952Y-141946285D01*
X199826571Y-141993904D01*
X199921809Y-142041523D01*
X200159904Y-142041523D01*
X200255142Y-141993904D01*
X200302761Y-141946285D01*
X200350380Y-141851047D01*
X200350380Y-141612952D01*
X200302761Y-141517714D01*
X200255142Y-141470095D01*
X200350380Y-142993904D02*
X200350380Y-142422476D01*
X200350380Y-142708190D02*
X199350380Y-142708190D01*
X199493238Y-142612952D01*
X199588476Y-142517714D01*
X199636095Y-142422476D01*
%TO.C,D41*%
X318352380Y-119985714D02*
X317352380Y-119985714D01*
X317352380Y-120223809D01*
X317400000Y-120366666D01*
X317495238Y-120461904D01*
X317590476Y-120509523D01*
X317780952Y-120557142D01*
X317923809Y-120557142D01*
X318114285Y-120509523D01*
X318209523Y-120461904D01*
X318304761Y-120366666D01*
X318352380Y-120223809D01*
X318352380Y-119985714D01*
X317685714Y-121414285D02*
X318352380Y-121414285D01*
X317304761Y-121176190D02*
X318019047Y-120938095D01*
X318019047Y-121557142D01*
X318352380Y-122461904D02*
X318352380Y-121890476D01*
X318352380Y-122176190D02*
X317352380Y-122176190D01*
X317495238Y-122080952D01*
X317590476Y-121985714D01*
X317638095Y-121890476D01*
%TO.C,D32*%
X461970380Y-102417714D02*
X460970380Y-102417714D01*
X460970380Y-102655809D01*
X461018000Y-102798666D01*
X461113238Y-102893904D01*
X461208476Y-102941523D01*
X461398952Y-102989142D01*
X461541809Y-102989142D01*
X461732285Y-102941523D01*
X461827523Y-102893904D01*
X461922761Y-102798666D01*
X461970380Y-102655809D01*
X461970380Y-102417714D01*
X460970380Y-103322476D02*
X460970380Y-103941523D01*
X461351333Y-103608190D01*
X461351333Y-103751047D01*
X461398952Y-103846285D01*
X461446571Y-103893904D01*
X461541809Y-103941523D01*
X461779904Y-103941523D01*
X461875142Y-103893904D01*
X461922761Y-103846285D01*
X461970380Y-103751047D01*
X461970380Y-103465333D01*
X461922761Y-103370095D01*
X461875142Y-103322476D01*
X461065619Y-104322476D02*
X461018000Y-104370095D01*
X460970380Y-104465333D01*
X460970380Y-104703428D01*
X461018000Y-104798666D01*
X461065619Y-104846285D01*
X461160857Y-104893904D01*
X461256095Y-104893904D01*
X461398952Y-104846285D01*
X461970380Y-104274857D01*
X461970380Y-104893904D01*
%TO.C,D8*%
X342102380Y-82361904D02*
X341102380Y-82361904D01*
X341102380Y-82600000D01*
X341150000Y-82742857D01*
X341245238Y-82838095D01*
X341340476Y-82885714D01*
X341530952Y-82933333D01*
X341673809Y-82933333D01*
X341864285Y-82885714D01*
X341959523Y-82838095D01*
X342054761Y-82742857D01*
X342102380Y-82600000D01*
X342102380Y-82361904D01*
X341530952Y-83504761D02*
X341483333Y-83409523D01*
X341435714Y-83361904D01*
X341340476Y-83314285D01*
X341292857Y-83314285D01*
X341197619Y-83361904D01*
X341150000Y-83409523D01*
X341102380Y-83504761D01*
X341102380Y-83695238D01*
X341150000Y-83790476D01*
X341197619Y-83838095D01*
X341292857Y-83885714D01*
X341340476Y-83885714D01*
X341435714Y-83838095D01*
X341483333Y-83790476D01*
X341530952Y-83695238D01*
X341530952Y-83504761D01*
X341578571Y-83409523D01*
X341626190Y-83361904D01*
X341721428Y-83314285D01*
X341911904Y-83314285D01*
X342007142Y-83361904D01*
X342054761Y-83409523D01*
X342102380Y-83504761D01*
X342102380Y-83695238D01*
X342054761Y-83790476D01*
X342007142Y-83838095D01*
X341911904Y-83885714D01*
X341721428Y-83885714D01*
X341626190Y-83838095D01*
X341578571Y-83790476D01*
X341530952Y-83695238D01*
%TO.C,D80*%
X487402380Y-158085714D02*
X486402380Y-158085714D01*
X486402380Y-158323809D01*
X486450000Y-158466666D01*
X486545238Y-158561904D01*
X486640476Y-158609523D01*
X486830952Y-158657142D01*
X486973809Y-158657142D01*
X487164285Y-158609523D01*
X487259523Y-158561904D01*
X487354761Y-158466666D01*
X487402380Y-158323809D01*
X487402380Y-158085714D01*
X486830952Y-159228571D02*
X486783333Y-159133333D01*
X486735714Y-159085714D01*
X486640476Y-159038095D01*
X486592857Y-159038095D01*
X486497619Y-159085714D01*
X486450000Y-159133333D01*
X486402380Y-159228571D01*
X486402380Y-159419047D01*
X486450000Y-159514285D01*
X486497619Y-159561904D01*
X486592857Y-159609523D01*
X486640476Y-159609523D01*
X486735714Y-159561904D01*
X486783333Y-159514285D01*
X486830952Y-159419047D01*
X486830952Y-159228571D01*
X486878571Y-159133333D01*
X486926190Y-159085714D01*
X487021428Y-159038095D01*
X487211904Y-159038095D01*
X487307142Y-159085714D01*
X487354761Y-159133333D01*
X487402380Y-159228571D01*
X487402380Y-159419047D01*
X487354761Y-159514285D01*
X487307142Y-159561904D01*
X487211904Y-159609523D01*
X487021428Y-159609523D01*
X486926190Y-159561904D01*
X486878571Y-159514285D01*
X486830952Y-159419047D01*
X486402380Y-160228571D02*
X486402380Y-160323809D01*
X486450000Y-160419047D01*
X486497619Y-160466666D01*
X486592857Y-160514285D01*
X486783333Y-160561904D01*
X487021428Y-160561904D01*
X487211904Y-160514285D01*
X487307142Y-160466666D01*
X487354761Y-160419047D01*
X487402380Y-160323809D01*
X487402380Y-160228571D01*
X487354761Y-160133333D01*
X487307142Y-160085714D01*
X487211904Y-160038095D01*
X487021428Y-159990476D01*
X486783333Y-159990476D01*
X486592857Y-160038095D01*
X486497619Y-160085714D01*
X486450000Y-160133333D01*
X486402380Y-160228571D01*
%TO.C,D42*%
X337352380Y-119985714D02*
X336352380Y-119985714D01*
X336352380Y-120223809D01*
X336400000Y-120366666D01*
X336495238Y-120461904D01*
X336590476Y-120509523D01*
X336780952Y-120557142D01*
X336923809Y-120557142D01*
X337114285Y-120509523D01*
X337209523Y-120461904D01*
X337304761Y-120366666D01*
X337352380Y-120223809D01*
X337352380Y-119985714D01*
X336685714Y-121414285D02*
X337352380Y-121414285D01*
X336304761Y-121176190D02*
X337019047Y-120938095D01*
X337019047Y-121557142D01*
X336447619Y-121890476D02*
X336400000Y-121938095D01*
X336352380Y-122033333D01*
X336352380Y-122271428D01*
X336400000Y-122366666D01*
X336447619Y-122414285D01*
X336542857Y-122461904D01*
X336638095Y-122461904D01*
X336780952Y-122414285D01*
X337352380Y-121842857D01*
X337352380Y-122461904D01*
%TO.C,D21*%
X251752380Y-100885714D02*
X250752380Y-100885714D01*
X250752380Y-101123809D01*
X250800000Y-101266666D01*
X250895238Y-101361904D01*
X250990476Y-101409523D01*
X251180952Y-101457142D01*
X251323809Y-101457142D01*
X251514285Y-101409523D01*
X251609523Y-101361904D01*
X251704761Y-101266666D01*
X251752380Y-101123809D01*
X251752380Y-100885714D01*
X250847619Y-101838095D02*
X250800000Y-101885714D01*
X250752380Y-101980952D01*
X250752380Y-102219047D01*
X250800000Y-102314285D01*
X250847619Y-102361904D01*
X250942857Y-102409523D01*
X251038095Y-102409523D01*
X251180952Y-102361904D01*
X251752380Y-101790476D01*
X251752380Y-102409523D01*
X251752380Y-103361904D02*
X251752380Y-102790476D01*
X251752380Y-103076190D02*
X250752380Y-103076190D01*
X250895238Y-102980952D01*
X250990476Y-102885714D01*
X251038095Y-102790476D01*
%TO.C,D43*%
X356452380Y-119985714D02*
X355452380Y-119985714D01*
X355452380Y-120223809D01*
X355500000Y-120366666D01*
X355595238Y-120461904D01*
X355690476Y-120509523D01*
X355880952Y-120557142D01*
X356023809Y-120557142D01*
X356214285Y-120509523D01*
X356309523Y-120461904D01*
X356404761Y-120366666D01*
X356452380Y-120223809D01*
X356452380Y-119985714D01*
X355785714Y-121414285D02*
X356452380Y-121414285D01*
X355404761Y-121176190D02*
X356119047Y-120938095D01*
X356119047Y-121557142D01*
X355452380Y-121842857D02*
X355452380Y-122461904D01*
X355833333Y-122128571D01*
X355833333Y-122271428D01*
X355880952Y-122366666D01*
X355928571Y-122414285D01*
X356023809Y-122461904D01*
X356261904Y-122461904D01*
X356357142Y-122414285D01*
X356404761Y-122366666D01*
X356452380Y-122271428D01*
X356452380Y-121985714D01*
X356404761Y-121890476D01*
X356357142Y-121842857D01*
%TO.C,D45*%
X394552380Y-119985714D02*
X393552380Y-119985714D01*
X393552380Y-120223809D01*
X393600000Y-120366666D01*
X393695238Y-120461904D01*
X393790476Y-120509523D01*
X393980952Y-120557142D01*
X394123809Y-120557142D01*
X394314285Y-120509523D01*
X394409523Y-120461904D01*
X394504761Y-120366666D01*
X394552380Y-120223809D01*
X394552380Y-119985714D01*
X393885714Y-121414285D02*
X394552380Y-121414285D01*
X393504761Y-121176190D02*
X394219047Y-120938095D01*
X394219047Y-121557142D01*
X393552380Y-122414285D02*
X393552380Y-121938095D01*
X394028571Y-121890476D01*
X393980952Y-121938095D01*
X393933333Y-122033333D01*
X393933333Y-122271428D01*
X393980952Y-122366666D01*
X394028571Y-122414285D01*
X394123809Y-122461904D01*
X394361904Y-122461904D01*
X394457142Y-122414285D01*
X394504761Y-122366666D01*
X394552380Y-122271428D01*
X394552380Y-122033333D01*
X394504761Y-121938095D01*
X394457142Y-121890476D01*
%TO.C,D68*%
X206700380Y-159313714D02*
X205700380Y-159313714D01*
X205700380Y-159551809D01*
X205748000Y-159694666D01*
X205843238Y-159789904D01*
X205938476Y-159837523D01*
X206128952Y-159885142D01*
X206271809Y-159885142D01*
X206462285Y-159837523D01*
X206557523Y-159789904D01*
X206652761Y-159694666D01*
X206700380Y-159551809D01*
X206700380Y-159313714D01*
X205700380Y-160742285D02*
X205700380Y-160551809D01*
X205748000Y-160456571D01*
X205795619Y-160408952D01*
X205938476Y-160313714D01*
X206128952Y-160266095D01*
X206509904Y-160266095D01*
X206605142Y-160313714D01*
X206652761Y-160361333D01*
X206700380Y-160456571D01*
X206700380Y-160647047D01*
X206652761Y-160742285D01*
X206605142Y-160789904D01*
X206509904Y-160837523D01*
X206271809Y-160837523D01*
X206176571Y-160789904D01*
X206128952Y-160742285D01*
X206081333Y-160647047D01*
X206081333Y-160456571D01*
X206128952Y-160361333D01*
X206176571Y-160313714D01*
X206271809Y-160266095D01*
X206128952Y-161408952D02*
X206081333Y-161313714D01*
X206033714Y-161266095D01*
X205938476Y-161218476D01*
X205890857Y-161218476D01*
X205795619Y-161266095D01*
X205748000Y-161313714D01*
X205700380Y-161408952D01*
X205700380Y-161599428D01*
X205748000Y-161694666D01*
X205795619Y-161742285D01*
X205890857Y-161789904D01*
X205938476Y-161789904D01*
X206033714Y-161742285D01*
X206081333Y-161694666D01*
X206128952Y-161599428D01*
X206128952Y-161408952D01*
X206176571Y-161313714D01*
X206224190Y-161266095D01*
X206319428Y-161218476D01*
X206509904Y-161218476D01*
X206605142Y-161266095D01*
X206652761Y-161313714D01*
X206700380Y-161408952D01*
X206700380Y-161599428D01*
X206652761Y-161694666D01*
X206605142Y-161742285D01*
X206509904Y-161789904D01*
X206319428Y-161789904D01*
X206224190Y-161742285D01*
X206176571Y-161694666D01*
X206128952Y-161599428D01*
%TO.C,D19*%
X200350380Y-102417714D02*
X199350380Y-102417714D01*
X199350380Y-102655809D01*
X199398000Y-102798666D01*
X199493238Y-102893904D01*
X199588476Y-102941523D01*
X199778952Y-102989142D01*
X199921809Y-102989142D01*
X200112285Y-102941523D01*
X200207523Y-102893904D01*
X200302761Y-102798666D01*
X200350380Y-102655809D01*
X200350380Y-102417714D01*
X200350380Y-103941523D02*
X200350380Y-103370095D01*
X200350380Y-103655809D02*
X199350380Y-103655809D01*
X199493238Y-103560571D01*
X199588476Y-103465333D01*
X199636095Y-103370095D01*
X200350380Y-104417714D02*
X200350380Y-104608190D01*
X200302761Y-104703428D01*
X200255142Y-104751047D01*
X200112285Y-104846285D01*
X199921809Y-104893904D01*
X199540857Y-104893904D01*
X199445619Y-104846285D01*
X199398000Y-104798666D01*
X199350380Y-104703428D01*
X199350380Y-104512952D01*
X199398000Y-104417714D01*
X199445619Y-104370095D01*
X199540857Y-104322476D01*
X199778952Y-104322476D01*
X199874190Y-104370095D01*
X199921809Y-104417714D01*
X199969428Y-104512952D01*
X199969428Y-104703428D01*
X199921809Y-104798666D01*
X199874190Y-104846285D01*
X199778952Y-104893904D01*
%TO.C,D26*%
X351652380Y-100885714D02*
X350652380Y-100885714D01*
X350652380Y-101123809D01*
X350700000Y-101266666D01*
X350795238Y-101361904D01*
X350890476Y-101409523D01*
X351080952Y-101457142D01*
X351223809Y-101457142D01*
X351414285Y-101409523D01*
X351509523Y-101361904D01*
X351604761Y-101266666D01*
X351652380Y-101123809D01*
X351652380Y-100885714D01*
X350747619Y-101838095D02*
X350700000Y-101885714D01*
X350652380Y-101980952D01*
X350652380Y-102219047D01*
X350700000Y-102314285D01*
X350747619Y-102361904D01*
X350842857Y-102409523D01*
X350938095Y-102409523D01*
X351080952Y-102361904D01*
X351652380Y-101790476D01*
X351652380Y-102409523D01*
X350652380Y-103266666D02*
X350652380Y-103076190D01*
X350700000Y-102980952D01*
X350747619Y-102933333D01*
X350890476Y-102838095D01*
X351080952Y-102790476D01*
X351461904Y-102790476D01*
X351557142Y-102838095D01*
X351604761Y-102885714D01*
X351652380Y-102980952D01*
X351652380Y-103171428D01*
X351604761Y-103266666D01*
X351557142Y-103314285D01*
X351461904Y-103361904D01*
X351223809Y-103361904D01*
X351128571Y-103314285D01*
X351080952Y-103266666D01*
X351033333Y-103171428D01*
X351033333Y-102980952D01*
X351080952Y-102885714D01*
X351128571Y-102838095D01*
X351223809Y-102790476D01*
%TO.C,D39*%
X280252380Y-119985714D02*
X279252380Y-119985714D01*
X279252380Y-120223809D01*
X279300000Y-120366666D01*
X279395238Y-120461904D01*
X279490476Y-120509523D01*
X279680952Y-120557142D01*
X279823809Y-120557142D01*
X280014285Y-120509523D01*
X280109523Y-120461904D01*
X280204761Y-120366666D01*
X280252380Y-120223809D01*
X280252380Y-119985714D01*
X279252380Y-120890476D02*
X279252380Y-121509523D01*
X279633333Y-121176190D01*
X279633333Y-121319047D01*
X279680952Y-121414285D01*
X279728571Y-121461904D01*
X279823809Y-121509523D01*
X280061904Y-121509523D01*
X280157142Y-121461904D01*
X280204761Y-121414285D01*
X280252380Y-121319047D01*
X280252380Y-121033333D01*
X280204761Y-120938095D01*
X280157142Y-120890476D01*
X280252380Y-121985714D02*
X280252380Y-122176190D01*
X280204761Y-122271428D01*
X280157142Y-122319047D01*
X280014285Y-122414285D01*
X279823809Y-122461904D01*
X279442857Y-122461904D01*
X279347619Y-122414285D01*
X279300000Y-122366666D01*
X279252380Y-122271428D01*
X279252380Y-122080952D01*
X279300000Y-121985714D01*
X279347619Y-121938095D01*
X279442857Y-121890476D01*
X279680952Y-121890476D01*
X279776190Y-121938095D01*
X279823809Y-121985714D01*
X279871428Y-122080952D01*
X279871428Y-122271428D01*
X279823809Y-122366666D01*
X279776190Y-122414285D01*
X279680952Y-122461904D01*
%TO.C,D7*%
X323052380Y-82361904D02*
X322052380Y-82361904D01*
X322052380Y-82600000D01*
X322100000Y-82742857D01*
X322195238Y-82838095D01*
X322290476Y-82885714D01*
X322480952Y-82933333D01*
X322623809Y-82933333D01*
X322814285Y-82885714D01*
X322909523Y-82838095D01*
X323004761Y-82742857D01*
X323052380Y-82600000D01*
X323052380Y-82361904D01*
X322052380Y-83266666D02*
X322052380Y-83933333D01*
X323052380Y-83504761D01*
%TO.C,R1*%
X223016666Y-115452380D02*
X223350000Y-114976190D01*
X223588095Y-115452380D02*
X223588095Y-114452380D01*
X223207142Y-114452380D01*
X223111904Y-114500000D01*
X223064285Y-114547619D01*
X223016666Y-114642857D01*
X223016666Y-114785714D01*
X223064285Y-114880952D01*
X223111904Y-114928571D01*
X223207142Y-114976190D01*
X223588095Y-114976190D01*
X222064285Y-115452380D02*
X222635714Y-115452380D01*
X222350000Y-115452380D02*
X222350000Y-114452380D01*
X222445238Y-114595238D01*
X222540476Y-114690476D01*
X222635714Y-114738095D01*
%TO.C,D55*%
X308802380Y-138935714D02*
X307802380Y-138935714D01*
X307802380Y-139173809D01*
X307850000Y-139316666D01*
X307945238Y-139411904D01*
X308040476Y-139459523D01*
X308230952Y-139507142D01*
X308373809Y-139507142D01*
X308564285Y-139459523D01*
X308659523Y-139411904D01*
X308754761Y-139316666D01*
X308802380Y-139173809D01*
X308802380Y-138935714D01*
X307802380Y-140411904D02*
X307802380Y-139935714D01*
X308278571Y-139888095D01*
X308230952Y-139935714D01*
X308183333Y-140030952D01*
X308183333Y-140269047D01*
X308230952Y-140364285D01*
X308278571Y-140411904D01*
X308373809Y-140459523D01*
X308611904Y-140459523D01*
X308707142Y-140411904D01*
X308754761Y-140364285D01*
X308802380Y-140269047D01*
X308802380Y-140030952D01*
X308754761Y-139935714D01*
X308707142Y-139888095D01*
X307802380Y-141364285D02*
X307802380Y-140888095D01*
X308278571Y-140840476D01*
X308230952Y-140888095D01*
X308183333Y-140983333D01*
X308183333Y-141221428D01*
X308230952Y-141316666D01*
X308278571Y-141364285D01*
X308373809Y-141411904D01*
X308611904Y-141411904D01*
X308707142Y-141364285D01*
X308754761Y-141316666D01*
X308802380Y-141221428D01*
X308802380Y-140983333D01*
X308754761Y-140888095D01*
X308707142Y-140840476D01*
%TO.C,D31*%
X446852380Y-100885714D02*
X445852380Y-100885714D01*
X445852380Y-101123809D01*
X445900000Y-101266666D01*
X445995238Y-101361904D01*
X446090476Y-101409523D01*
X446280952Y-101457142D01*
X446423809Y-101457142D01*
X446614285Y-101409523D01*
X446709523Y-101361904D01*
X446804761Y-101266666D01*
X446852380Y-101123809D01*
X446852380Y-100885714D01*
X445852380Y-101790476D02*
X445852380Y-102409523D01*
X446233333Y-102076190D01*
X446233333Y-102219047D01*
X446280952Y-102314285D01*
X446328571Y-102361904D01*
X446423809Y-102409523D01*
X446661904Y-102409523D01*
X446757142Y-102361904D01*
X446804761Y-102314285D01*
X446852380Y-102219047D01*
X446852380Y-101933333D01*
X446804761Y-101838095D01*
X446757142Y-101790476D01*
X446852380Y-103361904D02*
X446852380Y-102790476D01*
X446852380Y-103076190D02*
X445852380Y-103076190D01*
X445995238Y-102980952D01*
X446090476Y-102885714D01*
X446138095Y-102790476D01*
%TO.C,D22*%
X275452380Y-100885714D02*
X274452380Y-100885714D01*
X274452380Y-101123809D01*
X274500000Y-101266666D01*
X274595238Y-101361904D01*
X274690476Y-101409523D01*
X274880952Y-101457142D01*
X275023809Y-101457142D01*
X275214285Y-101409523D01*
X275309523Y-101361904D01*
X275404761Y-101266666D01*
X275452380Y-101123809D01*
X275452380Y-100885714D01*
X274547619Y-101838095D02*
X274500000Y-101885714D01*
X274452380Y-101980952D01*
X274452380Y-102219047D01*
X274500000Y-102314285D01*
X274547619Y-102361904D01*
X274642857Y-102409523D01*
X274738095Y-102409523D01*
X274880952Y-102361904D01*
X275452380Y-101790476D01*
X275452380Y-102409523D01*
X274547619Y-102790476D02*
X274500000Y-102838095D01*
X274452380Y-102933333D01*
X274452380Y-103171428D01*
X274500000Y-103266666D01*
X274547619Y-103314285D01*
X274642857Y-103361904D01*
X274738095Y-103361904D01*
X274880952Y-103314285D01*
X275452380Y-102742857D01*
X275452380Y-103361904D01*
%TO.C,D60*%
X404052380Y-138935714D02*
X403052380Y-138935714D01*
X403052380Y-139173809D01*
X403100000Y-139316666D01*
X403195238Y-139411904D01*
X403290476Y-139459523D01*
X403480952Y-139507142D01*
X403623809Y-139507142D01*
X403814285Y-139459523D01*
X403909523Y-139411904D01*
X404004761Y-139316666D01*
X404052380Y-139173809D01*
X404052380Y-138935714D01*
X403052380Y-140364285D02*
X403052380Y-140173809D01*
X403100000Y-140078571D01*
X403147619Y-140030952D01*
X403290476Y-139935714D01*
X403480952Y-139888095D01*
X403861904Y-139888095D01*
X403957142Y-139935714D01*
X404004761Y-139983333D01*
X404052380Y-140078571D01*
X404052380Y-140269047D01*
X404004761Y-140364285D01*
X403957142Y-140411904D01*
X403861904Y-140459523D01*
X403623809Y-140459523D01*
X403528571Y-140411904D01*
X403480952Y-140364285D01*
X403433333Y-140269047D01*
X403433333Y-140078571D01*
X403480952Y-139983333D01*
X403528571Y-139935714D01*
X403623809Y-139888095D01*
X403052380Y-141078571D02*
X403052380Y-141173809D01*
X403100000Y-141269047D01*
X403147619Y-141316666D01*
X403242857Y-141364285D01*
X403433333Y-141411904D01*
X403671428Y-141411904D01*
X403861904Y-141364285D01*
X403957142Y-141316666D01*
X404004761Y-141269047D01*
X404052380Y-141173809D01*
X404052380Y-141078571D01*
X404004761Y-140983333D01*
X403957142Y-140935714D01*
X403861904Y-140888095D01*
X403671428Y-140840476D01*
X403433333Y-140840476D01*
X403242857Y-140888095D01*
X403147619Y-140935714D01*
X403100000Y-140983333D01*
X403052380Y-141078571D01*
%TO.C,D15*%
X469082380Y-102417714D02*
X468082380Y-102417714D01*
X468082380Y-102655809D01*
X468130000Y-102798666D01*
X468225238Y-102893904D01*
X468320476Y-102941523D01*
X468510952Y-102989142D01*
X468653809Y-102989142D01*
X468844285Y-102941523D01*
X468939523Y-102893904D01*
X469034761Y-102798666D01*
X469082380Y-102655809D01*
X469082380Y-102417714D01*
X469082380Y-103941523D02*
X469082380Y-103370095D01*
X469082380Y-103655809D02*
X468082380Y-103655809D01*
X468225238Y-103560571D01*
X468320476Y-103465333D01*
X468368095Y-103370095D01*
X468082380Y-104846285D02*
X468082380Y-104370095D01*
X468558571Y-104322476D01*
X468510952Y-104370095D01*
X468463333Y-104465333D01*
X468463333Y-104703428D01*
X468510952Y-104798666D01*
X468558571Y-104846285D01*
X468653809Y-104893904D01*
X468891904Y-104893904D01*
X468987142Y-104846285D01*
X469034761Y-104798666D01*
X469082380Y-104703428D01*
X469082380Y-104465333D01*
X469034761Y-104370095D01*
X468987142Y-104322476D01*
%TO.C,D53*%
X258802380Y-138935714D02*
X257802380Y-138935714D01*
X257802380Y-139173809D01*
X257850000Y-139316666D01*
X257945238Y-139411904D01*
X258040476Y-139459523D01*
X258230952Y-139507142D01*
X258373809Y-139507142D01*
X258564285Y-139459523D01*
X258659523Y-139411904D01*
X258754761Y-139316666D01*
X258802380Y-139173809D01*
X258802380Y-138935714D01*
X257802380Y-140411904D02*
X257802380Y-139935714D01*
X258278571Y-139888095D01*
X258230952Y-139935714D01*
X258183333Y-140030952D01*
X258183333Y-140269047D01*
X258230952Y-140364285D01*
X258278571Y-140411904D01*
X258373809Y-140459523D01*
X258611904Y-140459523D01*
X258707142Y-140411904D01*
X258754761Y-140364285D01*
X258802380Y-140269047D01*
X258802380Y-140030952D01*
X258754761Y-139935714D01*
X258707142Y-139888095D01*
X257802380Y-140792857D02*
X257802380Y-141411904D01*
X258183333Y-141078571D01*
X258183333Y-141221428D01*
X258230952Y-141316666D01*
X258278571Y-141364285D01*
X258373809Y-141411904D01*
X258611904Y-141411904D01*
X258707142Y-141364285D01*
X258754761Y-141316666D01*
X258802380Y-141221428D01*
X258802380Y-140935714D01*
X258754761Y-140840476D01*
X258707142Y-140792857D01*
%TO.C,D20*%
X207152380Y-102671714D02*
X206152380Y-102671714D01*
X206152380Y-102909809D01*
X206200000Y-103052666D01*
X206295238Y-103147904D01*
X206390476Y-103195523D01*
X206580952Y-103243142D01*
X206723809Y-103243142D01*
X206914285Y-103195523D01*
X207009523Y-103147904D01*
X207104761Y-103052666D01*
X207152380Y-102909809D01*
X207152380Y-102671714D01*
X206247619Y-103624095D02*
X206200000Y-103671714D01*
X206152380Y-103766952D01*
X206152380Y-104005047D01*
X206200000Y-104100285D01*
X206247619Y-104147904D01*
X206342857Y-104195523D01*
X206438095Y-104195523D01*
X206580952Y-104147904D01*
X207152380Y-103576476D01*
X207152380Y-104195523D01*
X206152380Y-104814571D02*
X206152380Y-104909809D01*
X206200000Y-105005047D01*
X206247619Y-105052666D01*
X206342857Y-105100285D01*
X206533333Y-105147904D01*
X206771428Y-105147904D01*
X206961904Y-105100285D01*
X207057142Y-105052666D01*
X207104761Y-105005047D01*
X207152380Y-104909809D01*
X207152380Y-104814571D01*
X207104761Y-104719333D01*
X207057142Y-104671714D01*
X206961904Y-104624095D01*
X206771428Y-104576476D01*
X206533333Y-104576476D01*
X206342857Y-104624095D01*
X206247619Y-104671714D01*
X206200000Y-104719333D01*
X206152380Y-104814571D01*
%TO.C,D6*%
X304002380Y-82361904D02*
X303002380Y-82361904D01*
X303002380Y-82600000D01*
X303050000Y-82742857D01*
X303145238Y-82838095D01*
X303240476Y-82885714D01*
X303430952Y-82933333D01*
X303573809Y-82933333D01*
X303764285Y-82885714D01*
X303859523Y-82838095D01*
X303954761Y-82742857D01*
X304002380Y-82600000D01*
X304002380Y-82361904D01*
X303002380Y-83790476D02*
X303002380Y-83600000D01*
X303050000Y-83504761D01*
X303097619Y-83457142D01*
X303240476Y-83361904D01*
X303430952Y-83314285D01*
X303811904Y-83314285D01*
X303907142Y-83361904D01*
X303954761Y-83409523D01*
X304002380Y-83504761D01*
X304002380Y-83695238D01*
X303954761Y-83790476D01*
X303907142Y-83838095D01*
X303811904Y-83885714D01*
X303573809Y-83885714D01*
X303478571Y-83838095D01*
X303430952Y-83790476D01*
X303383333Y-83695238D01*
X303383333Y-83504761D01*
X303430952Y-83409523D01*
X303478571Y-83361904D01*
X303573809Y-83314285D01*
%TO.C,D47*%
X432652380Y-119985714D02*
X431652380Y-119985714D01*
X431652380Y-120223809D01*
X431700000Y-120366666D01*
X431795238Y-120461904D01*
X431890476Y-120509523D01*
X432080952Y-120557142D01*
X432223809Y-120557142D01*
X432414285Y-120509523D01*
X432509523Y-120461904D01*
X432604761Y-120366666D01*
X432652380Y-120223809D01*
X432652380Y-119985714D01*
X431985714Y-121414285D02*
X432652380Y-121414285D01*
X431604761Y-121176190D02*
X432319047Y-120938095D01*
X432319047Y-121557142D01*
X431652380Y-121842857D02*
X431652380Y-122509523D01*
X432652380Y-122080952D01*
%TO.C,D56*%
X327852380Y-138935714D02*
X326852380Y-138935714D01*
X326852380Y-139173809D01*
X326900000Y-139316666D01*
X326995238Y-139411904D01*
X327090476Y-139459523D01*
X327280952Y-139507142D01*
X327423809Y-139507142D01*
X327614285Y-139459523D01*
X327709523Y-139411904D01*
X327804761Y-139316666D01*
X327852380Y-139173809D01*
X327852380Y-138935714D01*
X326852380Y-140411904D02*
X326852380Y-139935714D01*
X327328571Y-139888095D01*
X327280952Y-139935714D01*
X327233333Y-140030952D01*
X327233333Y-140269047D01*
X327280952Y-140364285D01*
X327328571Y-140411904D01*
X327423809Y-140459523D01*
X327661904Y-140459523D01*
X327757142Y-140411904D01*
X327804761Y-140364285D01*
X327852380Y-140269047D01*
X327852380Y-140030952D01*
X327804761Y-139935714D01*
X327757142Y-139888095D01*
X326852380Y-141316666D02*
X326852380Y-141126190D01*
X326900000Y-141030952D01*
X326947619Y-140983333D01*
X327090476Y-140888095D01*
X327280952Y-140840476D01*
X327661904Y-140840476D01*
X327757142Y-140888095D01*
X327804761Y-140935714D01*
X327852380Y-141030952D01*
X327852380Y-141221428D01*
X327804761Y-141316666D01*
X327757142Y-141364285D01*
X327661904Y-141411904D01*
X327423809Y-141411904D01*
X327328571Y-141364285D01*
X327280952Y-141316666D01*
X327233333Y-141221428D01*
X327233333Y-141030952D01*
X327280952Y-140935714D01*
X327328571Y-140888095D01*
X327423809Y-140840476D01*
%TO.C,D49*%
X470752380Y-119985714D02*
X469752380Y-119985714D01*
X469752380Y-120223809D01*
X469800000Y-120366666D01*
X469895238Y-120461904D01*
X469990476Y-120509523D01*
X470180952Y-120557142D01*
X470323809Y-120557142D01*
X470514285Y-120509523D01*
X470609523Y-120461904D01*
X470704761Y-120366666D01*
X470752380Y-120223809D01*
X470752380Y-119985714D01*
X470085714Y-121414285D02*
X470752380Y-121414285D01*
X469704761Y-121176190D02*
X470419047Y-120938095D01*
X470419047Y-121557142D01*
X470752380Y-121985714D02*
X470752380Y-122176190D01*
X470704761Y-122271428D01*
X470657142Y-122319047D01*
X470514285Y-122414285D01*
X470323809Y-122461904D01*
X469942857Y-122461904D01*
X469847619Y-122414285D01*
X469800000Y-122366666D01*
X469752380Y-122271428D01*
X469752380Y-122080952D01*
X469800000Y-121985714D01*
X469847619Y-121938095D01*
X469942857Y-121890476D01*
X470180952Y-121890476D01*
X470276190Y-121938095D01*
X470323809Y-121985714D01*
X470371428Y-122080952D01*
X470371428Y-122271428D01*
X470323809Y-122366666D01*
X470276190Y-122414285D01*
X470180952Y-122461904D01*
%TO.C,D69*%
X251752380Y-158085714D02*
X250752380Y-158085714D01*
X250752380Y-158323809D01*
X250800000Y-158466666D01*
X250895238Y-158561904D01*
X250990476Y-158609523D01*
X251180952Y-158657142D01*
X251323809Y-158657142D01*
X251514285Y-158609523D01*
X251609523Y-158561904D01*
X251704761Y-158466666D01*
X251752380Y-158323809D01*
X251752380Y-158085714D01*
X250752380Y-159514285D02*
X250752380Y-159323809D01*
X250800000Y-159228571D01*
X250847619Y-159180952D01*
X250990476Y-159085714D01*
X251180952Y-159038095D01*
X251561904Y-159038095D01*
X251657142Y-159085714D01*
X251704761Y-159133333D01*
X251752380Y-159228571D01*
X251752380Y-159419047D01*
X251704761Y-159514285D01*
X251657142Y-159561904D01*
X251561904Y-159609523D01*
X251323809Y-159609523D01*
X251228571Y-159561904D01*
X251180952Y-159514285D01*
X251133333Y-159419047D01*
X251133333Y-159228571D01*
X251180952Y-159133333D01*
X251228571Y-159085714D01*
X251323809Y-159038095D01*
X251752380Y-160085714D02*
X251752380Y-160276190D01*
X251704761Y-160371428D01*
X251657142Y-160419047D01*
X251514285Y-160514285D01*
X251323809Y-160561904D01*
X250942857Y-160561904D01*
X250847619Y-160514285D01*
X250800000Y-160466666D01*
X250752380Y-160371428D01*
X250752380Y-160180952D01*
X250800000Y-160085714D01*
X250847619Y-160038095D01*
X250942857Y-159990476D01*
X251180952Y-159990476D01*
X251276190Y-160038095D01*
X251323809Y-160085714D01*
X251371428Y-160180952D01*
X251371428Y-160371428D01*
X251323809Y-160466666D01*
X251276190Y-160514285D01*
X251180952Y-160561904D01*
%TO.C,D40*%
X299252380Y-119985714D02*
X298252380Y-119985714D01*
X298252380Y-120223809D01*
X298300000Y-120366666D01*
X298395238Y-120461904D01*
X298490476Y-120509523D01*
X298680952Y-120557142D01*
X298823809Y-120557142D01*
X299014285Y-120509523D01*
X299109523Y-120461904D01*
X299204761Y-120366666D01*
X299252380Y-120223809D01*
X299252380Y-119985714D01*
X298585714Y-121414285D02*
X299252380Y-121414285D01*
X298204761Y-121176190D02*
X298919047Y-120938095D01*
X298919047Y-121557142D01*
X298252380Y-122128571D02*
X298252380Y-122223809D01*
X298300000Y-122319047D01*
X298347619Y-122366666D01*
X298442857Y-122414285D01*
X298633333Y-122461904D01*
X298871428Y-122461904D01*
X299061904Y-122414285D01*
X299157142Y-122366666D01*
X299204761Y-122319047D01*
X299252380Y-122223809D01*
X299252380Y-122128571D01*
X299204761Y-122033333D01*
X299157142Y-121985714D01*
X299061904Y-121938095D01*
X298871428Y-121890476D01*
X298633333Y-121890476D01*
X298442857Y-121938095D01*
X298347619Y-121985714D01*
X298300000Y-122033333D01*
X298252380Y-122128571D01*
%TO.C,D52*%
X206902380Y-140517714D02*
X205902380Y-140517714D01*
X205902380Y-140755809D01*
X205950000Y-140898666D01*
X206045238Y-140993904D01*
X206140476Y-141041523D01*
X206330952Y-141089142D01*
X206473809Y-141089142D01*
X206664285Y-141041523D01*
X206759523Y-140993904D01*
X206854761Y-140898666D01*
X206902380Y-140755809D01*
X206902380Y-140517714D01*
X205902380Y-141993904D02*
X205902380Y-141517714D01*
X206378571Y-141470095D01*
X206330952Y-141517714D01*
X206283333Y-141612952D01*
X206283333Y-141851047D01*
X206330952Y-141946285D01*
X206378571Y-141993904D01*
X206473809Y-142041523D01*
X206711904Y-142041523D01*
X206807142Y-141993904D01*
X206854761Y-141946285D01*
X206902380Y-141851047D01*
X206902380Y-141612952D01*
X206854761Y-141517714D01*
X206807142Y-141470095D01*
X205997619Y-142422476D02*
X205950000Y-142470095D01*
X205902380Y-142565333D01*
X205902380Y-142803428D01*
X205950000Y-142898666D01*
X205997619Y-142946285D01*
X206092857Y-142993904D01*
X206188095Y-142993904D01*
X206330952Y-142946285D01*
X206902380Y-142374857D01*
X206902380Y-142993904D01*
%TO.C,D13*%
X437402380Y-81885714D02*
X436402380Y-81885714D01*
X436402380Y-82123809D01*
X436450000Y-82266666D01*
X436545238Y-82361904D01*
X436640476Y-82409523D01*
X436830952Y-82457142D01*
X436973809Y-82457142D01*
X437164285Y-82409523D01*
X437259523Y-82361904D01*
X437354761Y-82266666D01*
X437402380Y-82123809D01*
X437402380Y-81885714D01*
X437402380Y-83409523D02*
X437402380Y-82838095D01*
X437402380Y-83123809D02*
X436402380Y-83123809D01*
X436545238Y-83028571D01*
X436640476Y-82933333D01*
X436688095Y-82838095D01*
X436402380Y-83742857D02*
X436402380Y-84361904D01*
X436783333Y-84028571D01*
X436783333Y-84171428D01*
X436830952Y-84266666D01*
X436878571Y-84314285D01*
X436973809Y-84361904D01*
X437211904Y-84361904D01*
X437307142Y-84314285D01*
X437354761Y-84266666D01*
X437402380Y-84171428D01*
X437402380Y-83885714D01*
X437354761Y-83790476D01*
X437307142Y-83742857D01*
%TO.C,D9*%
X361152380Y-82361904D02*
X360152380Y-82361904D01*
X360152380Y-82600000D01*
X360200000Y-82742857D01*
X360295238Y-82838095D01*
X360390476Y-82885714D01*
X360580952Y-82933333D01*
X360723809Y-82933333D01*
X360914285Y-82885714D01*
X361009523Y-82838095D01*
X361104761Y-82742857D01*
X361152380Y-82600000D01*
X361152380Y-82361904D01*
X361152380Y-83409523D02*
X361152380Y-83600000D01*
X361104761Y-83695238D01*
X361057142Y-83742857D01*
X360914285Y-83838095D01*
X360723809Y-83885714D01*
X360342857Y-83885714D01*
X360247619Y-83838095D01*
X360200000Y-83790476D01*
X360152380Y-83695238D01*
X360152380Y-83504761D01*
X360200000Y-83409523D01*
X360247619Y-83361904D01*
X360342857Y-83314285D01*
X360580952Y-83314285D01*
X360676190Y-83361904D01*
X360723809Y-83409523D01*
X360771428Y-83504761D01*
X360771428Y-83695238D01*
X360723809Y-83790476D01*
X360676190Y-83838095D01*
X360580952Y-83885714D01*
%TO.C,R3*%
X216902380Y-103133333D02*
X216426190Y-102800000D01*
X216902380Y-102561904D02*
X215902380Y-102561904D01*
X215902380Y-102942857D01*
X215950000Y-103038095D01*
X215997619Y-103085714D01*
X216092857Y-103133333D01*
X216235714Y-103133333D01*
X216330952Y-103085714D01*
X216378571Y-103038095D01*
X216426190Y-102942857D01*
X216426190Y-102561904D01*
X215902380Y-103466666D02*
X215902380Y-104085714D01*
X216283333Y-103752380D01*
X216283333Y-103895238D01*
X216330952Y-103990476D01*
X216378571Y-104038095D01*
X216473809Y-104085714D01*
X216711904Y-104085714D01*
X216807142Y-104038095D01*
X216854761Y-103990476D01*
X216902380Y-103895238D01*
X216902380Y-103609523D01*
X216854761Y-103514285D01*
X216807142Y-103466666D01*
%TO.C,D29*%
X408752380Y-100885714D02*
X407752380Y-100885714D01*
X407752380Y-101123809D01*
X407800000Y-101266666D01*
X407895238Y-101361904D01*
X407990476Y-101409523D01*
X408180952Y-101457142D01*
X408323809Y-101457142D01*
X408514285Y-101409523D01*
X408609523Y-101361904D01*
X408704761Y-101266666D01*
X408752380Y-101123809D01*
X408752380Y-100885714D01*
X407847619Y-101838095D02*
X407800000Y-101885714D01*
X407752380Y-101980952D01*
X407752380Y-102219047D01*
X407800000Y-102314285D01*
X407847619Y-102361904D01*
X407942857Y-102409523D01*
X408038095Y-102409523D01*
X408180952Y-102361904D01*
X408752380Y-101790476D01*
X408752380Y-102409523D01*
X408752380Y-102885714D02*
X408752380Y-103076190D01*
X408704761Y-103171428D01*
X408657142Y-103219047D01*
X408514285Y-103314285D01*
X408323809Y-103361904D01*
X407942857Y-103361904D01*
X407847619Y-103314285D01*
X407800000Y-103266666D01*
X407752380Y-103171428D01*
X407752380Y-102980952D01*
X407800000Y-102885714D01*
X407847619Y-102838095D01*
X407942857Y-102790476D01*
X408180952Y-102790476D01*
X408276190Y-102838095D01*
X408323809Y-102885714D01*
X408371428Y-102980952D01*
X408371428Y-103171428D01*
X408323809Y-103266666D01*
X408276190Y-103314285D01*
X408180952Y-103361904D01*
%TO.C,D33*%
X481020380Y-102417714D02*
X480020380Y-102417714D01*
X480020380Y-102655809D01*
X480068000Y-102798666D01*
X480163238Y-102893904D01*
X480258476Y-102941523D01*
X480448952Y-102989142D01*
X480591809Y-102989142D01*
X480782285Y-102941523D01*
X480877523Y-102893904D01*
X480972761Y-102798666D01*
X481020380Y-102655809D01*
X481020380Y-102417714D01*
X480020380Y-103322476D02*
X480020380Y-103941523D01*
X480401333Y-103608190D01*
X480401333Y-103751047D01*
X480448952Y-103846285D01*
X480496571Y-103893904D01*
X480591809Y-103941523D01*
X480829904Y-103941523D01*
X480925142Y-103893904D01*
X480972761Y-103846285D01*
X481020380Y-103751047D01*
X481020380Y-103465333D01*
X480972761Y-103370095D01*
X480925142Y-103322476D01*
X480020380Y-104274857D02*
X480020380Y-104893904D01*
X480401333Y-104560571D01*
X480401333Y-104703428D01*
X480448952Y-104798666D01*
X480496571Y-104846285D01*
X480591809Y-104893904D01*
X480829904Y-104893904D01*
X480925142Y-104846285D01*
X480972761Y-104798666D01*
X481020380Y-104703428D01*
X481020380Y-104417714D01*
X480972761Y-104322476D01*
X480925142Y-104274857D01*
%TO.C,D50*%
X488364285Y-149502380D02*
X488364285Y-148502380D01*
X488126190Y-148502380D01*
X487983333Y-148550000D01*
X487888095Y-148645238D01*
X487840476Y-148740476D01*
X487792857Y-148930952D01*
X487792857Y-149073809D01*
X487840476Y-149264285D01*
X487888095Y-149359523D01*
X487983333Y-149454761D01*
X488126190Y-149502380D01*
X488364285Y-149502380D01*
X486888095Y-148502380D02*
X487364285Y-148502380D01*
X487411904Y-148978571D01*
X487364285Y-148930952D01*
X487269047Y-148883333D01*
X487030952Y-148883333D01*
X486935714Y-148930952D01*
X486888095Y-148978571D01*
X486840476Y-149073809D01*
X486840476Y-149311904D01*
X486888095Y-149407142D01*
X486935714Y-149454761D01*
X487030952Y-149502380D01*
X487269047Y-149502380D01*
X487364285Y-149454761D01*
X487411904Y-149407142D01*
X486221428Y-148502380D02*
X486126190Y-148502380D01*
X486030952Y-148550000D01*
X485983333Y-148597619D01*
X485935714Y-148692857D01*
X485888095Y-148883333D01*
X485888095Y-149121428D01*
X485935714Y-149311904D01*
X485983333Y-149407142D01*
X486030952Y-149454761D01*
X486126190Y-149502380D01*
X486221428Y-149502380D01*
X486316666Y-149454761D01*
X486364285Y-149407142D01*
X486411904Y-149311904D01*
X486459523Y-149121428D01*
X486459523Y-148883333D01*
X486411904Y-148692857D01*
X486364285Y-148597619D01*
X486316666Y-148550000D01*
X486221428Y-148502380D01*
%TO.C,D44*%
X375452380Y-119985714D02*
X374452380Y-119985714D01*
X374452380Y-120223809D01*
X374500000Y-120366666D01*
X374595238Y-120461904D01*
X374690476Y-120509523D01*
X374880952Y-120557142D01*
X375023809Y-120557142D01*
X375214285Y-120509523D01*
X375309523Y-120461904D01*
X375404761Y-120366666D01*
X375452380Y-120223809D01*
X375452380Y-119985714D01*
X374785714Y-121414285D02*
X375452380Y-121414285D01*
X374404761Y-121176190D02*
X375119047Y-120938095D01*
X375119047Y-121557142D01*
X374785714Y-122366666D02*
X375452380Y-122366666D01*
X374404761Y-122128571D02*
X375119047Y-121890476D01*
X375119047Y-122509523D01*
%TO.C,D64*%
X491434285Y-142946380D02*
X491434285Y-141946380D01*
X491196190Y-141946380D01*
X491053333Y-141994000D01*
X490958095Y-142089238D01*
X490910476Y-142184476D01*
X490862857Y-142374952D01*
X490862857Y-142517809D01*
X490910476Y-142708285D01*
X490958095Y-142803523D01*
X491053333Y-142898761D01*
X491196190Y-142946380D01*
X491434285Y-142946380D01*
X490005714Y-141946380D02*
X490196190Y-141946380D01*
X490291428Y-141994000D01*
X490339047Y-142041619D01*
X490434285Y-142184476D01*
X490481904Y-142374952D01*
X490481904Y-142755904D01*
X490434285Y-142851142D01*
X490386666Y-142898761D01*
X490291428Y-142946380D01*
X490100952Y-142946380D01*
X490005714Y-142898761D01*
X489958095Y-142851142D01*
X489910476Y-142755904D01*
X489910476Y-142517809D01*
X489958095Y-142422571D01*
X490005714Y-142374952D01*
X490100952Y-142327333D01*
X490291428Y-142327333D01*
X490386666Y-142374952D01*
X490434285Y-142422571D01*
X490481904Y-142517809D01*
X489053333Y-142279714D02*
X489053333Y-142946380D01*
X489291428Y-141898761D02*
X489529523Y-142613047D01*
X488910476Y-142613047D01*
D11*
%TO.C,C7*%
X232161252Y-131085000D02*
X231638748Y-131085000D01*
X232161252Y-129615000D02*
X231638748Y-129615000D01*
%TO.C,J2*%
X234660000Y-144800000D02*
X234660000Y-143740000D01*
X234660000Y-145800000D02*
X232600000Y-145800000D01*
X234660000Y-143740000D02*
X233600000Y-143740000D01*
X232600000Y-143740000D02*
X224540000Y-143740000D01*
X234660000Y-147860000D02*
X224540000Y-147860000D01*
X224540000Y-147860000D02*
X224540000Y-143740000D01*
X234660000Y-147860000D02*
X234660000Y-145800000D01*
X232600000Y-145800000D02*
X232600000Y-143740000D01*
%TO.C,C6*%
X218215000Y-117511252D02*
X218215000Y-116988748D01*
X219685000Y-117511252D02*
X219685000Y-116988748D01*
%TO.C,C5*%
X233285000Y-127188748D02*
X233285000Y-127711252D01*
X231815000Y-127188748D02*
X231815000Y-127711252D01*
%TO.C,C4*%
X223961252Y-131735000D02*
X223438748Y-131735000D01*
X223961252Y-130265000D02*
X223438748Y-130265000D01*
%TO.C,C3*%
X226015000Y-110111252D02*
X226015000Y-109588748D01*
X227485000Y-110111252D02*
X227485000Y-109588748D01*
%TO.C,C2*%
X229788748Y-115415000D02*
X230311252Y-115415000D01*
X229788748Y-116885000D02*
X230311252Y-116885000D01*
%TO.C,C1*%
X223438748Y-132565000D02*
X223961252Y-132565000D01*
X223438748Y-134035000D02*
X223961252Y-134035000D01*
%TO.C,J1*%
X226315000Y-101510000D02*
X223815000Y-101510000D01*
X228285000Y-96460000D02*
X228285000Y-100340000D01*
X223815000Y-101510000D02*
X223815000Y-100460000D01*
X226315000Y-95290000D02*
X223815000Y-95290000D01*
X223815000Y-95290000D02*
X223815000Y-96340000D01*
X223815000Y-96340000D02*
X222825000Y-96340000D01*
%TO.C,D78*%
X462300000Y-161550000D02*
X460300000Y-161550000D01*
X462300000Y-161550000D02*
X462300000Y-157650000D01*
X460300000Y-161550000D02*
X460300000Y-157650000D01*
%TO.C,U1*%
X234460000Y-105240000D02*
X234460000Y-106500000D01*
X228450000Y-112060000D02*
X234460000Y-112060000D01*
X230700000Y-105240000D02*
X234460000Y-105240000D01*
X234460000Y-112060000D02*
X234460000Y-110800000D01*
%TO.C,D54*%
X286300000Y-142400000D02*
X286300000Y-138500000D01*
X288300000Y-142400000D02*
X286300000Y-142400000D01*
X288300000Y-142400000D02*
X288300000Y-138500000D01*
%TO.C,D4*%
X264450000Y-85350000D02*
X262450000Y-85350000D01*
X262450000Y-85350000D02*
X262450000Y-81450000D01*
X264450000Y-85350000D02*
X264450000Y-81450000D01*
%TO.C,D24*%
X312100000Y-104350000D02*
X312100000Y-100450000D01*
X312100000Y-104350000D02*
X310100000Y-104350000D01*
X310100000Y-104350000D02*
X310100000Y-100450000D01*
%TO.C,D25*%
X329100000Y-104350000D02*
X329100000Y-100450000D01*
X331100000Y-104350000D02*
X329100000Y-104350000D01*
X331100000Y-104350000D02*
X331100000Y-100450000D01*
%TO.C,D10*%
X378750000Y-85350000D02*
X378750000Y-81450000D01*
X376750000Y-85350000D02*
X376750000Y-81450000D01*
X378750000Y-85350000D02*
X376750000Y-85350000D01*
%TO.C,D27*%
X367200000Y-104350000D02*
X367200000Y-100450000D01*
X369200000Y-104350000D02*
X367200000Y-104350000D01*
X369200000Y-104350000D02*
X369200000Y-100450000D01*
%TO.C,D2*%
X221599000Y-85350000D02*
X221599000Y-81450000D01*
X221599000Y-85350000D02*
X219599000Y-85350000D01*
X219599000Y-85350000D02*
X219599000Y-81450000D01*
%TO.C,D1*%
X202549000Y-85350000D02*
X202549000Y-81450000D01*
X200549000Y-85350000D02*
X200549000Y-81450000D01*
X202549000Y-85350000D02*
X200549000Y-85350000D01*
%TO.C,U2*%
X221790000Y-126860000D02*
X222240000Y-126860000D01*
X221790000Y-119640000D02*
X222240000Y-119640000D01*
X221790000Y-126410000D02*
X221790000Y-126860000D01*
X229010000Y-126860000D02*
X228560000Y-126860000D01*
X229010000Y-126410000D02*
X229010000Y-126860000D01*
X228560000Y-126860000D02*
X228560000Y-128150000D01*
X229010000Y-120090000D02*
X229010000Y-119640000D01*
X221790000Y-120090000D02*
X221790000Y-119640000D01*
X229010000Y-119640000D02*
X228560000Y-119640000D01*
%TO.C,D66*%
X493400000Y-151000000D02*
X493400000Y-149000000D01*
X493400000Y-151000000D02*
X497300000Y-151000000D01*
X493400000Y-149000000D02*
X497300000Y-149000000D01*
%TO.C,D17*%
X486600000Y-104350000D02*
X484600000Y-104350000D01*
X486600000Y-104350000D02*
X486600000Y-100450000D01*
X484600000Y-104350000D02*
X484600000Y-100450000D01*
%TO.C,D37*%
X252600000Y-123450000D02*
X252600000Y-119550000D01*
X252600000Y-123450000D02*
X250600000Y-123450000D01*
X250600000Y-123450000D02*
X250600000Y-119550000D01*
%TO.C,D48*%
X450300000Y-123450000D02*
X448300000Y-123450000D01*
X448300000Y-123450000D02*
X448300000Y-119550000D01*
X450300000Y-123450000D02*
X450300000Y-119550000D01*
%TO.C,D16*%
X458100000Y-85350000D02*
X456100000Y-85350000D01*
X458100000Y-85350000D02*
X458100000Y-81450000D01*
X456100000Y-85350000D02*
X456100000Y-81450000D01*
%TO.C,R2*%
X221035000Y-104222936D02*
X221035000Y-104677064D01*
X219565000Y-104222936D02*
X219565000Y-104677064D01*
%TO.C,D59*%
X383500000Y-142400000D02*
X383500000Y-138500000D01*
X381500000Y-142400000D02*
X381500000Y-138500000D01*
X383500000Y-142400000D02*
X381500000Y-142400000D01*
%TO.C,D63*%
X457750000Y-142400000D02*
X457750000Y-138500000D01*
X459750000Y-142400000D02*
X457750000Y-142400000D01*
X459750000Y-142400000D02*
X459750000Y-138500000D01*
%TO.C,D82*%
X493400000Y-151550000D02*
X497300000Y-151550000D01*
X493400000Y-153550000D02*
X497300000Y-153550000D01*
X493400000Y-153550000D02*
X493400000Y-151550000D01*
%TO.C,D71*%
X272100000Y-161550000D02*
X272100000Y-157650000D01*
X274100000Y-161550000D02*
X272100000Y-161550000D01*
X274100000Y-161550000D02*
X274100000Y-157650000D01*
%TO.C,D62*%
X438700000Y-142400000D02*
X438700000Y-138500000D01*
X440700000Y-142400000D02*
X440700000Y-138500000D01*
X440700000Y-142400000D02*
X438700000Y-142400000D01*
%TO.C,D67*%
X202600000Y-161550000D02*
X202600000Y-157650000D01*
X202600000Y-161550000D02*
X200600000Y-161550000D01*
X200600000Y-161550000D02*
X200600000Y-157650000D01*
%TO.C,D77*%
X436300000Y-161550000D02*
X436300000Y-157650000D01*
X438300000Y-161550000D02*
X436300000Y-161550000D01*
X438300000Y-161550000D02*
X438300000Y-157650000D01*
%TO.C,D11*%
X397850000Y-85350000D02*
X395850000Y-85350000D01*
X397850000Y-85350000D02*
X397850000Y-81450000D01*
X395850000Y-85350000D02*
X395850000Y-81450000D01*
%TO.C,D30*%
X424400000Y-104350000D02*
X424400000Y-100450000D01*
X426400000Y-104350000D02*
X424400000Y-104350000D01*
X426400000Y-104350000D02*
X426400000Y-100450000D01*
%TO.C,D75*%
X376700000Y-161550000D02*
X376700000Y-157650000D01*
X378700000Y-161550000D02*
X378700000Y-157650000D01*
X378700000Y-161550000D02*
X376700000Y-161550000D01*
%TO.C,D5*%
X281500000Y-85350000D02*
X281500000Y-81450000D01*
X283500000Y-85350000D02*
X281500000Y-85350000D01*
X283500000Y-85350000D02*
X283500000Y-81450000D01*
%TO.C,D12*%
X416850000Y-85350000D02*
X414850000Y-85350000D01*
X414850000Y-85350000D02*
X414850000Y-81450000D01*
X416850000Y-85350000D02*
X416850000Y-81450000D01*
%TO.C,D57*%
X345450000Y-142400000D02*
X343450000Y-142400000D01*
X343450000Y-142400000D02*
X343450000Y-138500000D01*
X345450000Y-142400000D02*
X345450000Y-138500000D01*
%TO.C,D73*%
X297800000Y-161550000D02*
X297800000Y-157650000D01*
X297800000Y-161550000D02*
X295800000Y-161550000D01*
X295800000Y-161550000D02*
X295800000Y-157650000D01*
%TO.C,D3*%
X245400000Y-85350000D02*
X245400000Y-81450000D01*
X243400000Y-85350000D02*
X243400000Y-81450000D01*
X245400000Y-85350000D02*
X243400000Y-85350000D01*
%TO.C,D61*%
X421600000Y-142400000D02*
X419600000Y-142400000D01*
X421600000Y-142400000D02*
X421600000Y-138500000D01*
X419600000Y-142400000D02*
X419600000Y-138500000D01*
%TO.C,D34*%
X479100000Y-123450000D02*
X479100000Y-119550000D01*
X481100000Y-123450000D02*
X479100000Y-123450000D01*
X481100000Y-123450000D02*
X481100000Y-119550000D01*
%TO.C,D23*%
X291000000Y-104350000D02*
X291000000Y-100450000D01*
X293000000Y-104350000D02*
X293000000Y-100450000D01*
X293000000Y-104350000D02*
X291000000Y-104350000D01*
%TO.C,D58*%
X362500000Y-142400000D02*
X362500000Y-138500000D01*
X364500000Y-142400000D02*
X364500000Y-138500000D01*
X364500000Y-142400000D02*
X362500000Y-142400000D01*
%TO.C,D35*%
X200549000Y-123450000D02*
X200549000Y-119550000D01*
X202549000Y-123450000D02*
X202549000Y-119550000D01*
X202549000Y-123450000D02*
X200549000Y-123450000D01*
%TO.C,D36*%
X203500000Y-123450000D02*
X203500000Y-119550000D01*
X205500000Y-123450000D02*
X205500000Y-119550000D01*
X205500000Y-123450000D02*
X203500000Y-123450000D01*
%TO.C,D46*%
X410100000Y-123450000D02*
X410100000Y-119550000D01*
X412100000Y-123450000D02*
X410100000Y-123450000D01*
X412100000Y-123450000D02*
X412100000Y-119550000D01*
%TO.C,D14*%
X455000000Y-85350000D02*
X453000000Y-85350000D01*
X455000000Y-85350000D02*
X455000000Y-81450000D01*
X453000000Y-85350000D02*
X453000000Y-81450000D01*
%TO.C,D28*%
X386300000Y-104350000D02*
X386300000Y-100450000D01*
X388300000Y-104350000D02*
X386300000Y-104350000D01*
X388300000Y-104350000D02*
X388300000Y-100450000D01*
%TO.C,D51*%
X202700000Y-142400000D02*
X202700000Y-138500000D01*
X202700000Y-142400000D02*
X200700000Y-142400000D01*
X200700000Y-142400000D02*
X200700000Y-138500000D01*
%TO.C,D41*%
X316900000Y-123450000D02*
X316900000Y-119550000D01*
X316900000Y-123450000D02*
X314900000Y-123450000D01*
X314900000Y-123450000D02*
X314900000Y-119550000D01*
%TO.C,D32*%
X462500000Y-104350000D02*
X462500000Y-100450000D01*
X464500000Y-104350000D02*
X464500000Y-100450000D01*
X464500000Y-104350000D02*
X462500000Y-104350000D01*
%TO.C,D8*%
X340650000Y-85350000D02*
X338650000Y-85350000D01*
X338650000Y-85350000D02*
X338650000Y-81450000D01*
X340650000Y-85350000D02*
X340650000Y-81450000D01*
%TO.C,D80*%
X483950000Y-161550000D02*
X483950000Y-157650000D01*
X485950000Y-161550000D02*
X483950000Y-161550000D01*
X485950000Y-161550000D02*
X485950000Y-157650000D01*
%TO.C,D42*%
X335900000Y-123450000D02*
X333900000Y-123450000D01*
X335900000Y-123450000D02*
X335900000Y-119550000D01*
X333900000Y-123450000D02*
X333900000Y-119550000D01*
%TO.C,D21*%
X248300000Y-104350000D02*
X248300000Y-100450000D01*
X250300000Y-104350000D02*
X248300000Y-104350000D01*
X250300000Y-104350000D02*
X250300000Y-100450000D01*
%TO.C,D43*%
X355000000Y-123450000D02*
X355000000Y-119550000D01*
X355000000Y-123450000D02*
X353000000Y-123450000D01*
X353000000Y-123450000D02*
X353000000Y-119550000D01*
%TO.C,D45*%
X393100000Y-123450000D02*
X391100000Y-123450000D01*
X393100000Y-123450000D02*
X393100000Y-119550000D01*
X391100000Y-123450000D02*
X391100000Y-119550000D01*
%TO.C,D68*%
X205450000Y-161550000D02*
X203450000Y-161550000D01*
X203450000Y-161550000D02*
X203450000Y-157650000D01*
X205450000Y-161550000D02*
X205450000Y-157650000D01*
%TO.C,D19*%
X202700000Y-104350000D02*
X200700000Y-104350000D01*
X202700000Y-104350000D02*
X202700000Y-100450000D01*
X200700000Y-104350000D02*
X200700000Y-100450000D01*
%TO.C,D26*%
X350200000Y-104350000D02*
X348200000Y-104350000D01*
X348200000Y-104350000D02*
X348200000Y-100450000D01*
X350200000Y-104350000D02*
X350200000Y-100450000D01*
%TO.C,D39*%
X276800000Y-123450000D02*
X276800000Y-119550000D01*
X278800000Y-123450000D02*
X278800000Y-119550000D01*
X278800000Y-123450000D02*
X276800000Y-123450000D01*
%TO.C,D7*%
X321600000Y-85350000D02*
X319600000Y-85350000D01*
X319600000Y-85350000D02*
X319600000Y-81450000D01*
X321600000Y-85350000D02*
X321600000Y-81450000D01*
%TO.C,R1*%
X223077064Y-115915000D02*
X222622936Y-115915000D01*
X223077064Y-117385000D02*
X222622936Y-117385000D01*
%TO.C,D55*%
X307350000Y-142400000D02*
X305350000Y-142400000D01*
X305350000Y-142400000D02*
X305350000Y-138500000D01*
X307350000Y-142400000D02*
X307350000Y-138500000D01*
%TO.C,D31*%
X443400000Y-104350000D02*
X443400000Y-100450000D01*
X445400000Y-104350000D02*
X443400000Y-104350000D01*
X445400000Y-104350000D02*
X445400000Y-100450000D01*
%TO.C,D22*%
X272000000Y-104350000D02*
X272000000Y-100450000D01*
X274000000Y-104350000D02*
X272000000Y-104350000D01*
X274000000Y-104350000D02*
X274000000Y-100450000D01*
%TO.C,D60*%
X402600000Y-142400000D02*
X400600000Y-142400000D01*
X402600000Y-142400000D02*
X402600000Y-138500000D01*
X400600000Y-142400000D02*
X400600000Y-138500000D01*
%TO.C,D15*%
X467600000Y-104350000D02*
X467600000Y-100450000D01*
X467600000Y-104350000D02*
X465600000Y-104350000D01*
X465600000Y-104350000D02*
X465600000Y-100450000D01*
%TO.C,D53*%
X257350000Y-142400000D02*
X257350000Y-138500000D01*
X255350000Y-142400000D02*
X255350000Y-138500000D01*
X257350000Y-142400000D02*
X255350000Y-142400000D01*
%TO.C,D20*%
X203700000Y-104350000D02*
X203700000Y-100450000D01*
X205700000Y-104350000D02*
X205700000Y-100450000D01*
X205700000Y-104350000D02*
X203700000Y-104350000D01*
%TO.C,D6*%
X302550000Y-85350000D02*
X300550000Y-85350000D01*
X302550000Y-85350000D02*
X302550000Y-81450000D01*
X300550000Y-85350000D02*
X300550000Y-81450000D01*
%TO.C,D47*%
X431200000Y-123450000D02*
X429200000Y-123450000D01*
X429200000Y-123450000D02*
X429200000Y-119550000D01*
X431200000Y-123450000D02*
X431200000Y-119550000D01*
%TO.C,D56*%
X324400000Y-142400000D02*
X324400000Y-138500000D01*
X326400000Y-142400000D02*
X324400000Y-142400000D01*
X326400000Y-142400000D02*
X326400000Y-138500000D01*
%TO.C,D49*%
X469300000Y-123450000D02*
X469300000Y-119550000D01*
X467300000Y-123450000D02*
X467300000Y-119550000D01*
X469300000Y-123450000D02*
X467300000Y-123450000D01*
%TO.C,D69*%
X250300000Y-161550000D02*
X248300000Y-161550000D01*
X250300000Y-161550000D02*
X250300000Y-157650000D01*
X248300000Y-161550000D02*
X248300000Y-157650000D01*
%TO.C,D40*%
X295800000Y-123450000D02*
X295800000Y-119550000D01*
X297800000Y-123450000D02*
X297800000Y-119550000D01*
X297800000Y-123450000D02*
X295800000Y-123450000D01*
%TO.C,D52*%
X203450000Y-142400000D02*
X203450000Y-138500000D01*
X205450000Y-142400000D02*
X203450000Y-142400000D01*
X205450000Y-142400000D02*
X205450000Y-138500000D01*
%TO.C,D13*%
X433950000Y-85350000D02*
X433950000Y-81450000D01*
X435950000Y-85350000D02*
X435950000Y-81450000D01*
X435950000Y-85350000D02*
X433950000Y-85350000D01*
%TO.C,D9*%
X359700000Y-85350000D02*
X357700000Y-85350000D01*
X357700000Y-85350000D02*
X357700000Y-81450000D01*
X359700000Y-85350000D02*
X359700000Y-81450000D01*
%TO.C,R3*%
X217315000Y-104172936D02*
X217315000Y-104627064D01*
X218785000Y-104172936D02*
X218785000Y-104627064D01*
%TO.C,D29*%
X405300000Y-104350000D02*
X405300000Y-100450000D01*
X407300000Y-104350000D02*
X407300000Y-100450000D01*
X407300000Y-104350000D02*
X405300000Y-104350000D01*
%TO.C,D33*%
X483500000Y-104350000D02*
X483500000Y-100450000D01*
X481500000Y-104350000D02*
X481500000Y-100450000D01*
X483500000Y-104350000D02*
X481500000Y-104350000D01*
%TO.C,D50*%
X484900000Y-148050000D02*
X488800000Y-148050000D01*
X484900000Y-148050000D02*
X484900000Y-146050000D01*
X484900000Y-146050000D02*
X488800000Y-146050000D01*
%TO.C,D44*%
X372000000Y-123450000D02*
X372000000Y-119550000D01*
X374000000Y-123450000D02*
X374000000Y-119550000D01*
X374000000Y-123450000D02*
X372000000Y-123450000D01*
%TO.C,D64*%
X484900000Y-145300000D02*
X488800000Y-145300000D01*
X484900000Y-145300000D02*
X484900000Y-143300000D01*
X484900000Y-143300000D02*
X488800000Y-143300000D01*
%TD*%
M02*
