M48
; DRILL file {KiCad (6.0.7)} date Fri Aug 26 15:15:03 2022
; FORMAT={-:-/ absolute / inch / decimal}
; #@! TF.CreationDate,2022-08-26T15:15:03-04:00
; #@! TF.GenerationSoftware,Kicad,Pcbnew,(6.0.7)
; #@! TF.FileFunction,Plated,1,2,PTH
FMAT,2
INCH
; #@! TA.AperFunction,Plated,PTH,ViaDrill
T1C0.0157
; #@! TA.AperFunction,Plated,PTH,ComponentDrill
T2C0.0315
; #@! TA.AperFunction,Plated,PTH,ComponentDrill
T3C0.0579
%
G90
G05
T1
X7.935Y-3.4035
X8.1069Y-4.7697
X8.1654Y-4.9213
X8.2105Y-4.8929
X8.6201Y-4.5315
X8.6447Y-5.5374
X8.6732Y-6.2617
X8.6865Y-5.1156
X8.7047Y-4.5374
X8.7165Y-5.0453
X8.7224Y-5.248
X8.8534Y-5.3376
X8.9382Y-5.3358
X8.9567Y-4.5906
X8.9822Y-5.3976
X9.0571Y-4.6909
X9.0613Y-4.6498
X9.0925Y-4.752
X9.1171Y-4.5226
X9.124Y-4.628
X9.126Y-5.188
X9.1319Y-4.7106
X9.2156Y-5.0915
X9.2402Y-4.8927
X9.2646Y-4.6992
X9.3922Y-4.8553
X9.73Y-4.8199
X17.9528Y-4.9685
X19.1792Y-4.8838
T2
X8.8819Y-5.7008
X8.8819Y-5.7795
X8.9606Y-5.7008
X8.9606Y-5.7795
X9.0394Y-5.7008
X9.0394Y-5.7795
X9.1181Y-5.7008
X9.1181Y-5.7795
X9.1969Y-5.7008
X9.1969Y-5.7795
T3
X7.4605Y-3.1353
X7.4605Y-3.8853
X7.4605Y-4.6353
X7.4605Y-5.3853
X7.4605Y-6.1353
X7.7105Y-3.0353
X7.7105Y-3.7853
X7.7105Y-4.5353
X7.7105Y-5.2853
X7.7105Y-6.0353
X8.2105Y-3.1353
X8.2105Y-3.8853
X8.2105Y-4.6353
X8.2105Y-5.3853
X8.2105Y-6.1353
X8.4605Y-3.0353
X8.4605Y-3.7853
X8.4605Y-4.5353
X8.4605Y-5.2853
X8.4605Y-6.0353
X9.148Y-3.1353
X9.2417Y-4.6353
X9.2417Y-6.1353
X9.3355Y-3.8853
X9.3355Y-6.1353
X9.398Y-3.0353
X9.4292Y-4.6353
X9.4917Y-4.5353
X9.4917Y-6.0353
X9.5855Y-3.7853
X9.5855Y-6.0353
X9.6167Y-5.3853
X9.6792Y-4.5353
X9.8667Y-5.2853
X9.898Y-3.1353
X10.148Y-3.0353
X10.1792Y-6.1353
X10.273Y-3.8853
X10.273Y-6.1353
X10.4292Y-6.0353
X10.4605Y-4.6353
X10.523Y-3.7853
X10.523Y-6.0353
X10.648Y-3.1353
X10.7105Y-4.5353
X10.8355Y-5.3853
X10.898Y-3.0353
X11.023Y-3.8853
X11.0855Y-5.2853
X11.1167Y-6.1353
X11.2105Y-4.6353
X11.2105Y-6.1353
X11.273Y-3.7853
X11.3667Y-6.0353
X11.398Y-3.1353
X11.4605Y-4.5353
X11.4605Y-6.0353
X11.5855Y-5.3853
X11.648Y-3.0353
X11.773Y-3.8853
X11.8355Y-5.2853
X11.9605Y-4.6353
X12.023Y-3.7853
X12.148Y-3.1353
X12.2105Y-4.5353
X12.3355Y-5.3853
X12.398Y-3.0353
X12.523Y-3.8853
X12.5855Y-5.2853
X12.7105Y-4.6353
X12.773Y-3.7853
X12.898Y-3.1353
X12.9605Y-4.5353
X13.0855Y-5.3853
X13.148Y-3.0353
X13.273Y-3.8853
X13.3355Y-5.2853
X13.4605Y-4.6353
X13.523Y-3.7853
X13.648Y-3.1353
X13.7105Y-4.5353
X13.8355Y-5.3853
X13.898Y-3.0353
X13.9292Y-6.1353
X14.023Y-3.8853
X14.0855Y-5.2853
X14.1792Y-6.0353
X14.2105Y-4.6353
X14.273Y-3.7853
X14.398Y-3.1353
X14.398Y-6.1353
X14.4605Y-4.5353
X14.5855Y-5.3853
X14.648Y-3.0353
X14.648Y-6.0353
X14.773Y-3.8853
X14.8355Y-5.2853
X14.9605Y-4.6353
X15.023Y-3.7853
X15.148Y-3.1353
X15.2105Y-4.5353
X15.3355Y-5.3853
X15.398Y-3.0353
X15.523Y-3.8853
X15.5855Y-5.2853
X15.7105Y-4.6353
X15.773Y-3.7853
X15.898Y-3.1353
X15.9605Y-4.5353
X16.0855Y-5.3853
X16.148Y-3.0353
X16.273Y-3.8853
X16.3355Y-5.2853
X16.4605Y-4.6353
X16.523Y-3.7853
X16.648Y-3.1353
X16.7105Y-4.5353
X16.7417Y-6.1353
X16.8355Y-5.3853
X16.898Y-3.0353
X16.9917Y-6.0353
X17.023Y-3.8853
X17.0855Y-5.2853
X17.2105Y-4.6353
X17.273Y-3.7853
X17.398Y-3.1353
X17.4605Y-4.5353
X17.5855Y-5.3853
X17.5855Y-6.1353
X17.648Y-3.0353
X17.6792Y-6.1353
X17.773Y-3.8853
X17.8355Y-5.2853
X17.8355Y-6.0353
X17.9292Y-6.0353
X17.9605Y-4.6353
X18.023Y-3.7853
X18.148Y-3.1353
X18.2105Y-4.5353
X18.398Y-3.0353
X18.523Y-3.8853
X18.523Y-6.1353
X18.6167Y-5.3853
X18.6167Y-6.1353
X18.773Y-3.7853
X18.773Y-6.0353
X18.8667Y-5.2853
X18.8667Y-6.0353
X18.898Y-3.1353
X18.9917Y-5.3853
X19.148Y-3.0353
X19.1792Y-4.6353
X19.2417Y-5.2853
X19.273Y-3.1353
X19.4292Y-4.5353
X19.4605Y-3.8853
X19.4605Y-6.1353
X19.523Y-3.0353
X19.5542Y-6.1353
X19.648Y-3.1353
X19.648Y-5.3853
X19.7105Y-3.7853
X19.7105Y-6.0353
X19.8042Y-6.0353
X19.898Y-3.0353
X19.898Y-5.2853
T0
M30
