%TF.GenerationSoftware,KiCad,Pcbnew,(6.0.7)*%
%TF.CreationDate,2022-08-26T18:50:00-04:00*%
%TF.ProjectId,thocc-master,74686f63-632d-46d6-9173-7465722e6b69,rev?*%
%TF.SameCoordinates,Original*%
%TF.FileFunction,Soldermask,Bot*%
%TF.FilePolarity,Negative*%
%FSLAX46Y46*%
G04 Gerber Fmt 4.6, Leading zero omitted, Abs format (unit mm)*
G04 Created by KiCad (PCBNEW (6.0.7)) date 2022-08-26 18:50:00*
%MOMM*%
%LPD*%
G01*
G04 APERTURE LIST*
G04 Aperture macros list*
%AMRoundRect*
0 Rectangle with rounded corners*
0 $1 Rounding radius*
0 $2 $3 $4 $5 $6 $7 $8 $9 X,Y pos of 4 corners*
0 Add a 4 corners polygon primitive as box body*
4,1,4,$2,$3,$4,$5,$6,$7,$8,$9,$2,$3,0*
0 Add four circle primitives for the rounded corners*
1,1,$1+$1,$2,$3*
1,1,$1+$1,$4,$5*
1,1,$1+$1,$6,$7*
1,1,$1+$1,$8,$9*
0 Add four rect primitives between the rounded corners*
20,1,$1+$1,$2,$3,$4,$5,0*
20,1,$1+$1,$4,$5,$6,$7,0*
20,1,$1+$1,$6,$7,$8,$9,0*
20,1,$1+$1,$8,$9,$2,$3,0*%
G04 Aperture macros list end*
%ADD10C,3.987800*%
%ADD11C,3.048000*%
%ADD12C,1.750000*%
%ADD13C,2.250000*%
%ADD14R,1.200000X0.900000*%
%ADD15R,2.000000X1.500000*%
%ADD16R,2.000000X3.800000*%
%ADD17RoundRect,0.250000X0.475000X-0.250000X0.475000X0.250000X-0.475000X0.250000X-0.475000X-0.250000X0*%
%ADD18RoundRect,0.250000X0.250000X0.475000X-0.250000X0.475000X-0.250000X-0.475000X0.250000X-0.475000X0*%
%ADD19RoundRect,0.075000X0.075000X-0.662500X0.075000X0.662500X-0.075000X0.662500X-0.075000X-0.662500X0*%
%ADD20RoundRect,0.075000X0.662500X-0.075000X0.662500X0.075000X-0.662500X0.075000X-0.662500X-0.075000X0*%
%ADD21R,0.900000X1.200000*%
%ADD22RoundRect,0.250000X-0.450000X0.262500X-0.450000X-0.262500X0.450000X-0.262500X0.450000X0.262500X0*%
%ADD23RoundRect,0.250000X-0.250000X-0.475000X0.250000X-0.475000X0.250000X0.475000X-0.250000X0.475000X0*%
%ADD24R,1.350000X1.350000*%
%ADD25O,1.350000X1.350000*%
%ADD26RoundRect,0.250000X0.262500X0.450000X-0.262500X0.450000X-0.262500X-0.450000X0.262500X-0.450000X0*%
%ADD27RoundRect,0.150000X-0.625000X0.150000X-0.625000X-0.150000X0.625000X-0.150000X0.625000X0.150000X0*%
%ADD28RoundRect,0.250000X-0.650000X0.350000X-0.650000X-0.350000X0.650000X-0.350000X0.650000X0.350000X0*%
%ADD29RoundRect,0.250000X-0.475000X0.250000X-0.475000X-0.250000X0.475000X-0.250000X0.475000X0.250000X0*%
G04 APERTURE END LIST*
D10*
%TO.C,MX53*%
X259980750Y-147582000D03*
X236168250Y-147582000D03*
D11*
X259980750Y-132342000D03*
X236168250Y-132342000D03*
D12*
X253154500Y-139327000D03*
X242994500Y-139327000D03*
D13*
X244264500Y-136787000D03*
D10*
X248074500Y-139327000D03*
D13*
X250614500Y-134247000D03*
%TD*%
D10*
%TO.C,MX76*%
X426668250Y-150122000D03*
X312368250Y-150122000D03*
D11*
X426668250Y-165362000D03*
X312368250Y-165362000D03*
D12*
X374598250Y-158377000D03*
X364438250Y-158377000D03*
D13*
X365708250Y-155837000D03*
D10*
X369518250Y-158377000D03*
D13*
X372058250Y-153297000D03*
%TD*%
D10*
%TO.C,MX75*%
X407611900Y-150122000D03*
X307612100Y-150122000D03*
D11*
X407611900Y-165362000D03*
X307612100Y-165362000D03*
D12*
X362692000Y-158377000D03*
X352532000Y-158377000D03*
D13*
X353802000Y-155837000D03*
D10*
X357612000Y-158377000D03*
D13*
X360152000Y-153297000D03*
%TD*%
D10*
%TO.C,MX50*%
X502868250Y-128532000D03*
X479055750Y-128532000D03*
D11*
X502868250Y-113292000D03*
X479055750Y-113292000D03*
D12*
X496042000Y-120277000D03*
X485882000Y-120277000D03*
D13*
X487152000Y-117737000D03*
D10*
X490962000Y-120277000D03*
D13*
X493502000Y-115197000D03*
%TD*%
D10*
%TO.C,MX17*%
X505249500Y-90432000D03*
X481437000Y-90432000D03*
D11*
X505249500Y-75192000D03*
X481437000Y-75192000D03*
D12*
X498423250Y-82177000D03*
X488263250Y-82177000D03*
D13*
X489533250Y-79637000D03*
D10*
X493343250Y-82177000D03*
D13*
X495883250Y-77097000D03*
%TD*%
D10*
%TO.C,MX65*%
X498105750Y-147582000D03*
X474293250Y-147582000D03*
D11*
X498105750Y-132342000D03*
X474293250Y-132342000D03*
D12*
X491279500Y-139327000D03*
X481119500Y-139327000D03*
D13*
X482389500Y-136787000D03*
D10*
X486199500Y-139327000D03*
D13*
X488739500Y-134247000D03*
%TD*%
D12*
%TO.C,MX30*%
X422223250Y-101227000D03*
X412063250Y-101227000D03*
D10*
X417143250Y-101227000D03*
D13*
X413333250Y-98687000D03*
X419683250Y-96147000D03*
%TD*%
D12*
%TO.C,MX42*%
X321575750Y-120277000D03*
D10*
X326655750Y-120277000D03*
D12*
X331735750Y-120277000D03*
D13*
X322845750Y-117737000D03*
X329195750Y-115197000D03*
%TD*%
D12*
%TO.C,MX44*%
X359675750Y-120277000D03*
D10*
X364755750Y-120277000D03*
D12*
X369835750Y-120277000D03*
D13*
X360945750Y-117737000D03*
X367295750Y-115197000D03*
%TD*%
D10*
%TO.C,MX78*%
X450480750Y-158377000D03*
D12*
X445400750Y-158377000D03*
X455560750Y-158377000D03*
D13*
X446670750Y-155837000D03*
X453020750Y-153297000D03*
%TD*%
D12*
%TO.C,MX70*%
X246010750Y-158377000D03*
D10*
X240930750Y-158377000D03*
D12*
X235850750Y-158377000D03*
D13*
X237120750Y-155837000D03*
X243470750Y-153297000D03*
%TD*%
D12*
%TO.C,MX41*%
X312685750Y-120277000D03*
D10*
X307605750Y-120277000D03*
D12*
X302525750Y-120277000D03*
D13*
X303795750Y-117737000D03*
X310145750Y-115197000D03*
%TD*%
D12*
%TO.C,MX34*%
X503185750Y-101227000D03*
D10*
X498105750Y-101227000D03*
D12*
X493025750Y-101227000D03*
D13*
X494295750Y-98687000D03*
X500645750Y-96147000D03*
%TD*%
D12*
%TO.C,MX11*%
X393648250Y-82177000D03*
D10*
X388568250Y-82177000D03*
D12*
X383488250Y-82177000D03*
D13*
X384758250Y-79637000D03*
X391108250Y-77097000D03*
%TD*%
D12*
%TO.C,MX72*%
X259663250Y-158377000D03*
X269823250Y-158377000D03*
D10*
X264743250Y-158377000D03*
D13*
X260933250Y-155837000D03*
X267283250Y-153297000D03*
%TD*%
D12*
%TO.C,MX43*%
X350785750Y-120277000D03*
X340625750Y-120277000D03*
D10*
X345705750Y-120277000D03*
D13*
X341895750Y-117737000D03*
X348245750Y-115197000D03*
%TD*%
D10*
%TO.C,MX71*%
X262362000Y-158377000D03*
D12*
X257282000Y-158377000D03*
X267442000Y-158377000D03*
D13*
X258552000Y-155837000D03*
X264902000Y-153297000D03*
%TD*%
D12*
%TO.C,MX52*%
X217435750Y-139327000D03*
X207275750Y-139327000D03*
D10*
X212355750Y-139327000D03*
D13*
X208545750Y-136787000D03*
X214895750Y-134247000D03*
%TD*%
D12*
%TO.C,MX57*%
X331100750Y-139327000D03*
X341260750Y-139327000D03*
D10*
X336180750Y-139327000D03*
D13*
X332370750Y-136787000D03*
X338720750Y-134247000D03*
%TD*%
D10*
%TO.C,MX18*%
X502868250Y-82177000D03*
D12*
X507948250Y-82177000D03*
X497788250Y-82177000D03*
D13*
X499058250Y-79637000D03*
X505408250Y-77097000D03*
%TD*%
D12*
%TO.C,MX40*%
X293635750Y-120277000D03*
X283475750Y-120277000D03*
D10*
X288555750Y-120277000D03*
D13*
X284745750Y-117737000D03*
X291095750Y-115197000D03*
%TD*%
D12*
%TO.C,MX15*%
X469848250Y-82177000D03*
X459688250Y-82177000D03*
D10*
X464768250Y-82177000D03*
D13*
X460958250Y-79637000D03*
X467308250Y-77097000D03*
%TD*%
D12*
%TO.C,MX26*%
X346023250Y-101227000D03*
X335863250Y-101227000D03*
D10*
X340943250Y-101227000D03*
D13*
X337133250Y-98687000D03*
X343483250Y-96147000D03*
%TD*%
D10*
%TO.C,MX39*%
X269505750Y-120277000D03*
D12*
X274585750Y-120277000D03*
X264425750Y-120277000D03*
D13*
X265695750Y-117737000D03*
X272045750Y-115197000D03*
%TD*%
D12*
%TO.C,MX7*%
X317448250Y-82177000D03*
X307288250Y-82177000D03*
D10*
X312368250Y-82177000D03*
D13*
X308558250Y-79637000D03*
X314908250Y-77097000D03*
%TD*%
D12*
%TO.C,MX54*%
X284110750Y-139327000D03*
D10*
X279030750Y-139327000D03*
D12*
X273950750Y-139327000D03*
D13*
X275220750Y-136787000D03*
X281570750Y-134247000D03*
%TD*%
D10*
%TO.C,MX3*%
X236168250Y-82177000D03*
D12*
X231088250Y-82177000D03*
X241248250Y-82177000D03*
D13*
X232358250Y-79637000D03*
X238708250Y-77097000D03*
%TD*%
D12*
%TO.C,MX20*%
X207275750Y-101227000D03*
X217435750Y-101227000D03*
D10*
X212355750Y-101227000D03*
D13*
X208545750Y-98687000D03*
X214895750Y-96147000D03*
%TD*%
D10*
%TO.C,MX51*%
X193305750Y-139327000D03*
D12*
X198385750Y-139327000D03*
X188225750Y-139327000D03*
D13*
X189495750Y-136787000D03*
X195845750Y-134247000D03*
%TD*%
D12*
%TO.C,MX63*%
X445400750Y-139327000D03*
D10*
X450480750Y-139327000D03*
D12*
X455560750Y-139327000D03*
D13*
X446670750Y-136787000D03*
X453020750Y-134247000D03*
%TD*%
D12*
%TO.C,MX61*%
X407300750Y-139327000D03*
X417460750Y-139327000D03*
D10*
X412380750Y-139327000D03*
D13*
X408570750Y-136787000D03*
X414920750Y-134247000D03*
%TD*%
D12*
%TO.C,MX82*%
X493025750Y-158377000D03*
X503185750Y-158377000D03*
D10*
X498105750Y-158377000D03*
D13*
X494295750Y-155837000D03*
X500645750Y-153297000D03*
%TD*%
D12*
%TO.C,MX14*%
X450798250Y-82177000D03*
X440638250Y-82177000D03*
D10*
X445718250Y-82177000D03*
D13*
X441908250Y-79637000D03*
X448258250Y-77097000D03*
%TD*%
D12*
%TO.C,MX49*%
X465085750Y-120277000D03*
D10*
X460005750Y-120277000D03*
D12*
X454925750Y-120277000D03*
D13*
X456195750Y-117737000D03*
X462545750Y-115197000D03*
%TD*%
D10*
%TO.C,MX2*%
X212355750Y-82177000D03*
D12*
X217435750Y-82177000D03*
X207275750Y-82177000D03*
D13*
X208545750Y-79637000D03*
X214895750Y-77097000D03*
%TD*%
D10*
%TO.C,MX36*%
X212355750Y-120277000D03*
D12*
X207275750Y-120277000D03*
X217435750Y-120277000D03*
D13*
X208545750Y-117737000D03*
X214895750Y-115197000D03*
%TD*%
D12*
%TO.C,MX64*%
X481754500Y-139327000D03*
X471594500Y-139327000D03*
D10*
X476674500Y-139327000D03*
D13*
X472864500Y-136787000D03*
X479214500Y-134247000D03*
%TD*%
D10*
%TO.C,MX47*%
X421905750Y-120277000D03*
D12*
X416825750Y-120277000D03*
X426985750Y-120277000D03*
D13*
X418095750Y-117737000D03*
X424445750Y-115197000D03*
%TD*%
D12*
%TO.C,MX56*%
X322210750Y-139327000D03*
D10*
X317130750Y-139327000D03*
D12*
X312050750Y-139327000D03*
D13*
X313320750Y-136787000D03*
X319670750Y-134247000D03*
%TD*%
D12*
%TO.C,MX83*%
X495407000Y-158377000D03*
D10*
X500487000Y-158377000D03*
D12*
X505567000Y-158377000D03*
D13*
X496677000Y-155837000D03*
X503027000Y-153297000D03*
%TD*%
D12*
%TO.C,MX8*%
X336498250Y-82177000D03*
X326338250Y-82177000D03*
D10*
X331418250Y-82177000D03*
D13*
X327608250Y-79637000D03*
X333958250Y-77097000D03*
%TD*%
D10*
%TO.C,MX13*%
X426668250Y-82177000D03*
D12*
X431748250Y-82177000D03*
X421588250Y-82177000D03*
D13*
X422858250Y-79637000D03*
X429208250Y-77097000D03*
%TD*%
D12*
%TO.C,MX80*%
X469213250Y-158377000D03*
X479373250Y-158377000D03*
D10*
X474293250Y-158377000D03*
D13*
X470483250Y-155837000D03*
X476833250Y-153297000D03*
%TD*%
D10*
%TO.C,MX1*%
X193305750Y-82177000D03*
D12*
X188225750Y-82177000D03*
X198385750Y-82177000D03*
D13*
X189495750Y-79637000D03*
X195845750Y-77097000D03*
%TD*%
D12*
%TO.C,MX62*%
X426350750Y-139327000D03*
D10*
X431430750Y-139327000D03*
D12*
X436510750Y-139327000D03*
D13*
X427620750Y-136787000D03*
X433970750Y-134247000D03*
%TD*%
D10*
%TO.C,MX33*%
X474293250Y-101227000D03*
D12*
X469213250Y-101227000D03*
X479373250Y-101227000D03*
D13*
X470483250Y-98687000D03*
X476833250Y-96147000D03*
%TD*%
D12*
%TO.C,MX58*%
X360310750Y-139327000D03*
D10*
X355230750Y-139327000D03*
D12*
X350150750Y-139327000D03*
D13*
X351420750Y-136787000D03*
X357770750Y-134247000D03*
%TD*%
D12*
%TO.C,MX31*%
X441273250Y-101227000D03*
D10*
X436193250Y-101227000D03*
D12*
X431113250Y-101227000D03*
D13*
X432383250Y-98687000D03*
X438733250Y-96147000D03*
%TD*%
D10*
%TO.C,MX29*%
X398093250Y-101227000D03*
D12*
X393013250Y-101227000D03*
X403173250Y-101227000D03*
D13*
X394283250Y-98687000D03*
X400633250Y-96147000D03*
%TD*%
D10*
%TO.C,MX6*%
X293318250Y-82177000D03*
D12*
X298398250Y-82177000D03*
X288238250Y-82177000D03*
D13*
X289508250Y-79637000D03*
X295858250Y-77097000D03*
%TD*%
D12*
%TO.C,MX35*%
X198385750Y-120277000D03*
D10*
X193305750Y-120277000D03*
D12*
X188225750Y-120277000D03*
D13*
X189495750Y-117737000D03*
X195845750Y-115197000D03*
%TD*%
D10*
%TO.C,MX48*%
X440955750Y-120277000D03*
D12*
X435875750Y-120277000D03*
X446035750Y-120277000D03*
D13*
X437145750Y-117737000D03*
X443495750Y-115197000D03*
%TD*%
D10*
%TO.C,MX79*%
X452862000Y-158377000D03*
D12*
X447782000Y-158377000D03*
X457942000Y-158377000D03*
D13*
X449052000Y-155837000D03*
X455402000Y-153297000D03*
%TD*%
D12*
%TO.C,MX66*%
X497788250Y-139327000D03*
X507948250Y-139327000D03*
D10*
X502868250Y-139327000D03*
D13*
X499058250Y-136787000D03*
X505408250Y-134247000D03*
%TD*%
D10*
%TO.C,MX12*%
X407618250Y-82177000D03*
D12*
X412698250Y-82177000D03*
X402538250Y-82177000D03*
D13*
X403808250Y-79637000D03*
X410158250Y-77097000D03*
%TD*%
D12*
%TO.C,MX28*%
X384123250Y-101227000D03*
X373963250Y-101227000D03*
D10*
X379043250Y-101227000D03*
D13*
X375233250Y-98687000D03*
X381583250Y-96147000D03*
%TD*%
D12*
%TO.C,MX37*%
X243629500Y-120277000D03*
D10*
X238549500Y-120277000D03*
D12*
X233469500Y-120277000D03*
D13*
X234739500Y-117737000D03*
X241089500Y-115197000D03*
%TD*%
D10*
%TO.C,MX59*%
X374280750Y-139327000D03*
D12*
X369200750Y-139327000D03*
X379360750Y-139327000D03*
D13*
X370470750Y-136787000D03*
X376820750Y-134247000D03*
%TD*%
D10*
%TO.C,MX81*%
X476674500Y-158377000D03*
D12*
X481754500Y-158377000D03*
X471594500Y-158377000D03*
D13*
X472864500Y-155837000D03*
X479214500Y-153297000D03*
%TD*%
D12*
%TO.C,MX45*%
X388885750Y-120277000D03*
X378725750Y-120277000D03*
D10*
X383805750Y-120277000D03*
D13*
X379995750Y-117737000D03*
X386345750Y-115197000D03*
%TD*%
D12*
%TO.C,MX55*%
X303160750Y-139327000D03*
X293000750Y-139327000D03*
D10*
X298080750Y-139327000D03*
D13*
X294270750Y-136787000D03*
X300620750Y-134247000D03*
%TD*%
D10*
%TO.C,MX25*%
X321893250Y-101227000D03*
D12*
X326973250Y-101227000D03*
X316813250Y-101227000D03*
D13*
X318083250Y-98687000D03*
X324433250Y-96147000D03*
%TD*%
D12*
%TO.C,MX4*%
X260298250Y-82177000D03*
X250138250Y-82177000D03*
D10*
X255218250Y-82177000D03*
D13*
X251408250Y-79637000D03*
X257758250Y-77097000D03*
%TD*%
D12*
%TO.C,MX69*%
X243629500Y-158377000D03*
D10*
X238549500Y-158377000D03*
D12*
X233469500Y-158377000D03*
D13*
X234739500Y-155837000D03*
X241089500Y-153297000D03*
%TD*%
D12*
%TO.C,MX32*%
X460323250Y-101227000D03*
D10*
X455243250Y-101227000D03*
D12*
X450163250Y-101227000D03*
D13*
X451433250Y-98687000D03*
X457783250Y-96147000D03*
%TD*%
D10*
%TO.C,MX9*%
X350468250Y-82177000D03*
D12*
X355548250Y-82177000D03*
X345388250Y-82177000D03*
D13*
X346658250Y-79637000D03*
X353008250Y-77097000D03*
%TD*%
D12*
%TO.C,MX73*%
X291254500Y-158377000D03*
D10*
X286174500Y-158377000D03*
D12*
X281094500Y-158377000D03*
D13*
X282364500Y-155837000D03*
X288714500Y-153297000D03*
%TD*%
D12*
%TO.C,MX27*%
X365073250Y-101227000D03*
X354913250Y-101227000D03*
D10*
X359993250Y-101227000D03*
D13*
X356183250Y-98687000D03*
X362533250Y-96147000D03*
%TD*%
D10*
%TO.C,MX74*%
X288555750Y-158377000D03*
D12*
X283475750Y-158377000D03*
X293635750Y-158377000D03*
D13*
X284745750Y-155837000D03*
X291095750Y-153297000D03*
%TD*%
D12*
%TO.C,MX46*%
X407935750Y-120277000D03*
X397775750Y-120277000D03*
D10*
X402855750Y-120277000D03*
D13*
X399045750Y-117737000D03*
X405395750Y-115197000D03*
%TD*%
D12*
%TO.C,MX19*%
X198385750Y-101227000D03*
X188225750Y-101227000D03*
D10*
X193305750Y-101227000D03*
D13*
X189495750Y-98687000D03*
X195845750Y-96147000D03*
%TD*%
D12*
%TO.C,MX24*%
X297763250Y-101227000D03*
X307923250Y-101227000D03*
D10*
X302843250Y-101227000D03*
D13*
X299033250Y-98687000D03*
X305383250Y-96147000D03*
%TD*%
D12*
%TO.C,MX23*%
X278713250Y-101227000D03*
D10*
X283793250Y-101227000D03*
D12*
X288873250Y-101227000D03*
D13*
X279983250Y-98687000D03*
X286333250Y-96147000D03*
%TD*%
D12*
%TO.C,MX77*%
X434129500Y-158377000D03*
X423969500Y-158377000D03*
D10*
X429049500Y-158377000D03*
D13*
X425239500Y-155837000D03*
X431589500Y-153297000D03*
%TD*%
D10*
%TO.C,MX10*%
X369518250Y-82177000D03*
D12*
X364438250Y-82177000D03*
X374598250Y-82177000D03*
D13*
X365708250Y-79637000D03*
X372058250Y-77097000D03*
%TD*%
D12*
%TO.C,MX5*%
X269188250Y-82177000D03*
D10*
X274268250Y-82177000D03*
D12*
X279348250Y-82177000D03*
D13*
X270458250Y-79637000D03*
X276808250Y-77097000D03*
%TD*%
D10*
%TO.C,MX21*%
X240930750Y-101227000D03*
D12*
X246010750Y-101227000D03*
X235850750Y-101227000D03*
D13*
X237120750Y-98687000D03*
X243470750Y-96147000D03*
%TD*%
D10*
%TO.C,MX67*%
X193305750Y-158377000D03*
D12*
X188225750Y-158377000D03*
X198385750Y-158377000D03*
D13*
X189495750Y-155837000D03*
X195845750Y-153297000D03*
%TD*%
D10*
%TO.C,MX38*%
X243312000Y-120277000D03*
D12*
X248392000Y-120277000D03*
X238232000Y-120277000D03*
D13*
X239502000Y-117737000D03*
X245852000Y-115197000D03*
%TD*%
D10*
%TO.C,MX60*%
X393330750Y-139327000D03*
D12*
X388250750Y-139327000D03*
X398410750Y-139327000D03*
D13*
X389520750Y-136787000D03*
X395870750Y-134247000D03*
%TD*%
D12*
%TO.C,MX68*%
X217435750Y-158377000D03*
X207275750Y-158377000D03*
D10*
X212355750Y-158377000D03*
D13*
X208545750Y-155837000D03*
X214895750Y-153297000D03*
%TD*%
D12*
%TO.C,MX22*%
X269823250Y-101227000D03*
X259663250Y-101227000D03*
D10*
X264743250Y-101227000D03*
D13*
X260933250Y-98687000D03*
X267283250Y-96147000D03*
%TD*%
D12*
%TO.C,MX16*%
X488898250Y-82177000D03*
X478738250Y-82177000D03*
D10*
X483818250Y-82177000D03*
D13*
X480008250Y-79637000D03*
X486358250Y-77097000D03*
%TD*%
D14*
%TO.C,D78*%
X461300000Y-160950000D03*
X461300000Y-157650000D03*
%TD*%
D15*
%TO.C,U1*%
X229400000Y-110950000D03*
D16*
X235700000Y-108650000D03*
D15*
X229400000Y-108650000D03*
X229400000Y-106350000D03*
%TD*%
D14*
%TO.C,D54*%
X287300000Y-141800000D03*
X287300000Y-138500000D03*
%TD*%
%TO.C,D4*%
X263450000Y-84750000D03*
X263450000Y-81450000D03*
%TD*%
%TO.C,D24*%
X311100000Y-103750000D03*
X311100000Y-100450000D03*
%TD*%
%TO.C,D25*%
X330100000Y-103750000D03*
X330100000Y-100450000D03*
%TD*%
%TO.C,D10*%
X377750000Y-84750000D03*
X377750000Y-81450000D03*
%TD*%
%TO.C,D27*%
X368200000Y-103750000D03*
X368200000Y-100450000D03*
%TD*%
%TO.C,D2*%
X220599000Y-84750000D03*
X220599000Y-81450000D03*
%TD*%
D17*
%TO.C,C3*%
X226750000Y-110800000D03*
X226750000Y-108900000D03*
%TD*%
D14*
%TO.C,D1*%
X201549000Y-84750000D03*
X201549000Y-81450000D03*
%TD*%
D18*
%TO.C,C7*%
X232850000Y-130350000D03*
X230950000Y-130350000D03*
%TD*%
D19*
%TO.C,U2*%
X228150000Y-127412500D03*
X227650000Y-127412500D03*
X227150000Y-127412500D03*
X226650000Y-127412500D03*
X226150000Y-127412500D03*
X225650000Y-127412500D03*
X225150000Y-127412500D03*
X224650000Y-127412500D03*
X224150000Y-127412500D03*
X223650000Y-127412500D03*
X223150000Y-127412500D03*
X222650000Y-127412500D03*
D20*
X221237500Y-126000000D03*
X221237500Y-125500000D03*
X221237500Y-125000000D03*
X221237500Y-124500000D03*
X221237500Y-124000000D03*
X221237500Y-123500000D03*
X221237500Y-123000000D03*
X221237500Y-122500000D03*
X221237500Y-122000000D03*
X221237500Y-121500000D03*
X221237500Y-121000000D03*
X221237500Y-120500000D03*
D19*
X222650000Y-119087500D03*
X223150000Y-119087500D03*
X223650000Y-119087500D03*
X224150000Y-119087500D03*
X224650000Y-119087500D03*
X225150000Y-119087500D03*
X225650000Y-119087500D03*
X226150000Y-119087500D03*
X226650000Y-119087500D03*
X227150000Y-119087500D03*
X227650000Y-119087500D03*
X228150000Y-119087500D03*
D20*
X229562500Y-120500000D03*
X229562500Y-121000000D03*
X229562500Y-121500000D03*
X229562500Y-122000000D03*
X229562500Y-122500000D03*
X229562500Y-123000000D03*
X229562500Y-123500000D03*
X229562500Y-124000000D03*
X229562500Y-124500000D03*
X229562500Y-125000000D03*
X229562500Y-125500000D03*
X229562500Y-126000000D03*
%TD*%
D21*
%TO.C,D66*%
X494900000Y-150100000D03*
X491600000Y-150100000D03*
%TD*%
D14*
%TO.C,D17*%
X485600000Y-103750000D03*
X485600000Y-100450000D03*
%TD*%
%TO.C,D37*%
X251600000Y-122850000D03*
X251600000Y-119550000D03*
%TD*%
%TO.C,D48*%
X449300000Y-122850000D03*
X449300000Y-119550000D03*
%TD*%
%TO.C,D16*%
X457100000Y-84750000D03*
X457100000Y-81450000D03*
%TD*%
D22*
%TO.C,R2*%
X220300000Y-103537500D03*
X220300000Y-105362500D03*
%TD*%
D14*
%TO.C,D59*%
X382500000Y-141800000D03*
X382500000Y-138500000D03*
%TD*%
%TO.C,D63*%
X458750000Y-141800000D03*
X458750000Y-138500000D03*
%TD*%
D21*
%TO.C,D82*%
X491600000Y-152900000D03*
X494900000Y-152900000D03*
%TD*%
D14*
%TO.C,D71*%
X273100000Y-160950000D03*
X273100000Y-157650000D03*
%TD*%
%TO.C,D62*%
X439700000Y-141800000D03*
X439700000Y-138500000D03*
%TD*%
%TO.C,D67*%
X201600000Y-160950000D03*
X201600000Y-157650000D03*
%TD*%
%TO.C,D77*%
X437300000Y-160950000D03*
X437300000Y-157650000D03*
%TD*%
%TO.C,D11*%
X396850000Y-84750000D03*
X396850000Y-81450000D03*
%TD*%
%TO.C,D30*%
X425400000Y-103750000D03*
X425400000Y-100450000D03*
%TD*%
%TO.C,D75*%
X377700000Y-160950000D03*
X377700000Y-157650000D03*
%TD*%
%TO.C,D5*%
X282500000Y-84750000D03*
X282500000Y-81450000D03*
%TD*%
%TO.C,D12*%
X415850000Y-84750000D03*
X415850000Y-81450000D03*
%TD*%
%TO.C,D57*%
X344450000Y-141800000D03*
X344450000Y-138500000D03*
%TD*%
%TO.C,D73*%
X296800000Y-160950000D03*
X296800000Y-157650000D03*
%TD*%
%TO.C,D3*%
X244400000Y-84750000D03*
X244400000Y-81450000D03*
%TD*%
%TO.C,D61*%
X420600000Y-141800000D03*
X420600000Y-138500000D03*
%TD*%
%TO.C,D34*%
X480100000Y-122850000D03*
X480100000Y-119550000D03*
%TD*%
%TO.C,D23*%
X292000000Y-103750000D03*
X292000000Y-100450000D03*
%TD*%
D23*
%TO.C,C2*%
X229100000Y-116150000D03*
X231000000Y-116150000D03*
%TD*%
D14*
%TO.C,D58*%
X363500000Y-141800000D03*
X363500000Y-138500000D03*
%TD*%
%TO.C,D35*%
X201549000Y-122850000D03*
X201549000Y-119550000D03*
%TD*%
D18*
%TO.C,C4*%
X224650000Y-131000000D03*
X222750000Y-131000000D03*
%TD*%
D14*
%TO.C,D36*%
X204500000Y-122850000D03*
X204500000Y-119550000D03*
%TD*%
%TO.C,D46*%
X411100000Y-122850000D03*
X411100000Y-119550000D03*
%TD*%
%TO.C,D14*%
X454000000Y-84750000D03*
X454000000Y-81450000D03*
%TD*%
%TO.C,D28*%
X387300000Y-103750000D03*
X387300000Y-100450000D03*
%TD*%
%TO.C,D51*%
X201700000Y-141800000D03*
X201700000Y-138500000D03*
%TD*%
%TO.C,D41*%
X315900000Y-122850000D03*
X315900000Y-119550000D03*
%TD*%
%TO.C,D32*%
X463500000Y-103750000D03*
X463500000Y-100450000D03*
%TD*%
%TO.C,D8*%
X339650000Y-84750000D03*
X339650000Y-81450000D03*
%TD*%
%TO.C,D80*%
X484950000Y-160950000D03*
X484950000Y-157650000D03*
%TD*%
%TO.C,D42*%
X334900000Y-122850000D03*
X334900000Y-119550000D03*
%TD*%
%TO.C,D21*%
X249300000Y-103750000D03*
X249300000Y-100450000D03*
%TD*%
D23*
%TO.C,C1*%
X222750000Y-133300000D03*
X224650000Y-133300000D03*
%TD*%
D24*
%TO.C,J2*%
X230550000Y-145950000D03*
D25*
X230550000Y-147950000D03*
X228550000Y-145950000D03*
X228550000Y-147950000D03*
X226550000Y-145950000D03*
X226550000Y-147950000D03*
X224550000Y-145950000D03*
X224550000Y-147950000D03*
X222550000Y-145950000D03*
X222550000Y-147950000D03*
%TD*%
D14*
%TO.C,D43*%
X354000000Y-122850000D03*
X354000000Y-119550000D03*
%TD*%
%TO.C,D45*%
X392100000Y-122850000D03*
X392100000Y-119550000D03*
%TD*%
%TO.C,D68*%
X204450000Y-160950000D03*
X204450000Y-157650000D03*
%TD*%
%TO.C,D19*%
X201700000Y-103750000D03*
X201700000Y-100450000D03*
%TD*%
%TO.C,D26*%
X349200000Y-103750000D03*
X349200000Y-100450000D03*
%TD*%
%TO.C,D39*%
X277800000Y-122850000D03*
X277800000Y-119550000D03*
%TD*%
%TO.C,D7*%
X320600000Y-84750000D03*
X320600000Y-81450000D03*
%TD*%
D26*
%TO.C,R1*%
X223762500Y-116650000D03*
X221937500Y-116650000D03*
%TD*%
D27*
%TO.C,J1*%
X223600000Y-96900000D03*
X223600000Y-97900000D03*
X223600000Y-98900000D03*
X223600000Y-99900000D03*
D28*
X227475000Y-101200000D03*
X227475000Y-95600000D03*
%TD*%
D14*
%TO.C,D55*%
X306350000Y-141800000D03*
X306350000Y-138500000D03*
%TD*%
%TO.C,D31*%
X444400000Y-103750000D03*
X444400000Y-100450000D03*
%TD*%
%TO.C,D22*%
X273000000Y-103750000D03*
X273000000Y-100450000D03*
%TD*%
%TO.C,D60*%
X401600000Y-141800000D03*
X401600000Y-138500000D03*
%TD*%
%TO.C,D15*%
X466600000Y-103750000D03*
X466600000Y-100450000D03*
%TD*%
%TO.C,D53*%
X256350000Y-141800000D03*
X256350000Y-138500000D03*
%TD*%
%TO.C,D20*%
X204700000Y-103750000D03*
X204700000Y-100450000D03*
%TD*%
%TO.C,D6*%
X301550000Y-84750000D03*
X301550000Y-81450000D03*
%TD*%
D29*
%TO.C,C5*%
X232550000Y-126500000D03*
X232550000Y-128400000D03*
%TD*%
D14*
%TO.C,D47*%
X430200000Y-122850000D03*
X430200000Y-119550000D03*
%TD*%
%TO.C,D56*%
X325400000Y-141800000D03*
X325400000Y-138500000D03*
%TD*%
%TO.C,D49*%
X468300000Y-122850000D03*
X468300000Y-119550000D03*
%TD*%
%TO.C,D69*%
X249300000Y-160950000D03*
X249300000Y-157650000D03*
%TD*%
%TO.C,D40*%
X296800000Y-122850000D03*
X296800000Y-119550000D03*
%TD*%
%TO.C,D52*%
X204450000Y-141800000D03*
X204450000Y-138500000D03*
%TD*%
%TO.C,D13*%
X434950000Y-84750000D03*
X434950000Y-81450000D03*
%TD*%
%TO.C,D9*%
X358700000Y-84750000D03*
X358700000Y-81450000D03*
%TD*%
D22*
%TO.C,R3*%
X218050000Y-103487500D03*
X218050000Y-105312500D03*
%TD*%
D14*
%TO.C,D29*%
X406300000Y-103750000D03*
X406300000Y-100450000D03*
%TD*%
%TO.C,D33*%
X482500000Y-103750000D03*
X482500000Y-100450000D03*
%TD*%
D21*
%TO.C,D50*%
X485500000Y-147050000D03*
X488800000Y-147050000D03*
%TD*%
D14*
%TO.C,D44*%
X373000000Y-122850000D03*
X373000000Y-119550000D03*
%TD*%
D21*
%TO.C,D64*%
X485500000Y-144300000D03*
X488800000Y-144300000D03*
%TD*%
D17*
%TO.C,C6*%
X218950000Y-118200000D03*
X218950000Y-116300000D03*
%TD*%
M02*
