%TF.GenerationSoftware,KiCad,Pcbnew,(6.0.7)*%
%TF.CreationDate,2022-08-26T18:50:00-04:00*%
%TF.ProjectId,thocc-master,74686f63-632d-46d6-9173-7465722e6b69,rev?*%
%TF.SameCoordinates,Original*%
%TF.FileFunction,Copper,L2,Bot*%
%TF.FilePolarity,Positive*%
%FSLAX46Y46*%
G04 Gerber Fmt 4.6, Leading zero omitted, Abs format (unit mm)*
G04 Created by KiCad (PCBNEW (6.0.7)) date 2022-08-26 18:50:00*
%MOMM*%
%LPD*%
G01*
G04 APERTURE LIST*
G04 Aperture macros list*
%AMRoundRect*
0 Rectangle with rounded corners*
0 $1 Rounding radius*
0 $2 $3 $4 $5 $6 $7 $8 $9 X,Y pos of 4 corners*
0 Add a 4 corners polygon primitive as box body*
4,1,4,$2,$3,$4,$5,$6,$7,$8,$9,$2,$3,0*
0 Add four circle primitives for the rounded corners*
1,1,$1+$1,$2,$3*
1,1,$1+$1,$4,$5*
1,1,$1+$1,$6,$7*
1,1,$1+$1,$8,$9*
0 Add four rect primitives between the rounded corners*
20,1,$1+$1,$2,$3,$4,$5,0*
20,1,$1+$1,$4,$5,$6,$7,0*
20,1,$1+$1,$6,$7,$8,$9,0*
20,1,$1+$1,$8,$9,$2,$3,0*%
G04 Aperture macros list end*
%TA.AperFunction,ComponentPad*%
%ADD10C,2.250000*%
%TD*%
%TA.AperFunction,SMDPad,CuDef*%
%ADD11R,1.200000X0.900000*%
%TD*%
%TA.AperFunction,SMDPad,CuDef*%
%ADD12R,2.000000X1.500000*%
%TD*%
%TA.AperFunction,SMDPad,CuDef*%
%ADD13R,2.000000X3.800000*%
%TD*%
%TA.AperFunction,SMDPad,CuDef*%
%ADD14RoundRect,0.250000X0.475000X-0.250000X0.475000X0.250000X-0.475000X0.250000X-0.475000X-0.250000X0*%
%TD*%
%TA.AperFunction,SMDPad,CuDef*%
%ADD15RoundRect,0.250000X0.250000X0.475000X-0.250000X0.475000X-0.250000X-0.475000X0.250000X-0.475000X0*%
%TD*%
%TA.AperFunction,SMDPad,CuDef*%
%ADD16RoundRect,0.075000X0.075000X-0.662500X0.075000X0.662500X-0.075000X0.662500X-0.075000X-0.662500X0*%
%TD*%
%TA.AperFunction,SMDPad,CuDef*%
%ADD17RoundRect,0.075000X0.662500X-0.075000X0.662500X0.075000X-0.662500X0.075000X-0.662500X-0.075000X0*%
%TD*%
%TA.AperFunction,SMDPad,CuDef*%
%ADD18R,0.900000X1.200000*%
%TD*%
%TA.AperFunction,SMDPad,CuDef*%
%ADD19RoundRect,0.250000X-0.450000X0.262500X-0.450000X-0.262500X0.450000X-0.262500X0.450000X0.262500X0*%
%TD*%
%TA.AperFunction,SMDPad,CuDef*%
%ADD20RoundRect,0.250000X-0.250000X-0.475000X0.250000X-0.475000X0.250000X0.475000X-0.250000X0.475000X0*%
%TD*%
%TA.AperFunction,ComponentPad*%
%ADD21R,1.350000X1.350000*%
%TD*%
%TA.AperFunction,ComponentPad*%
%ADD22O,1.350000X1.350000*%
%TD*%
%TA.AperFunction,SMDPad,CuDef*%
%ADD23RoundRect,0.250000X0.262500X0.450000X-0.262500X0.450000X-0.262500X-0.450000X0.262500X-0.450000X0*%
%TD*%
%TA.AperFunction,SMDPad,CuDef*%
%ADD24RoundRect,0.150000X-0.625000X0.150000X-0.625000X-0.150000X0.625000X-0.150000X0.625000X0.150000X0*%
%TD*%
%TA.AperFunction,SMDPad,CuDef*%
%ADD25RoundRect,0.250000X-0.650000X0.350000X-0.650000X-0.350000X0.650000X-0.350000X0.650000X0.350000X0*%
%TD*%
%TA.AperFunction,SMDPad,CuDef*%
%ADD26RoundRect,0.250000X-0.475000X0.250000X-0.475000X-0.250000X0.475000X-0.250000X0.475000X0.250000X0*%
%TD*%
%TA.AperFunction,ViaPad*%
%ADD27C,0.800000*%
%TD*%
%TA.AperFunction,Conductor*%
%ADD28C,0.250000*%
%TD*%
%TA.AperFunction,Conductor*%
%ADD29C,0.200000*%
%TD*%
G04 APERTURE END LIST*
D10*
%TO.P,MX53,1,COL*%
%TO.N,Col2*%
X244264500Y-136787000D03*
%TO.P,MX53,2,ROW*%
%TO.N,Net-(D53-Pad2)*%
X250614500Y-134247000D03*
%TD*%
%TO.P,MX76,1,COL*%
%TO.N,Col7*%
X365708250Y-155837000D03*
%TO.P,MX76,2,ROW*%
%TO.N,Net-(D75-Pad2)*%
X372058250Y-153297000D03*
%TD*%
%TO.P,MX75,1,COL*%
%TO.N,Col7*%
X353802000Y-155837000D03*
%TO.P,MX75,2,ROW*%
%TO.N,Net-(D75-Pad2)*%
X360152000Y-153297000D03*
%TD*%
%TO.P,MX50,1,COL*%
%TO.N,Col15*%
X487152000Y-117737000D03*
%TO.P,MX50,2,ROW*%
%TO.N,Net-(D50-Pad2)*%
X493502000Y-115197000D03*
%TD*%
%TO.P,MX17,1,COL*%
%TO.N,Col15*%
X489533250Y-79637000D03*
%TO.P,MX17,2,ROW*%
%TO.N,Net-(D16-Pad2)*%
X495883250Y-77097000D03*
%TD*%
%TO.P,MX65,1,COL*%
%TO.N,Col14*%
X482389500Y-136787000D03*
%TO.P,MX65,2,ROW*%
%TO.N,Net-(D64-Pad2)*%
X488739500Y-134247000D03*
%TD*%
%TO.P,MX30,1,COL*%
%TO.N,Col11*%
X413333250Y-98687000D03*
%TO.P,MX30,2,ROW*%
%TO.N,Net-(D30-Pad2)*%
X419683250Y-96147000D03*
%TD*%
%TO.P,MX42,1,COL*%
%TO.N,Col6*%
X322845750Y-117737000D03*
%TO.P,MX42,2,ROW*%
%TO.N,Net-(D42-Pad2)*%
X329195750Y-115197000D03*
%TD*%
%TO.P,MX44,1,COL*%
%TO.N,Col8*%
X360945750Y-117737000D03*
%TO.P,MX44,2,ROW*%
%TO.N,Net-(D44-Pad2)*%
X367295750Y-115197000D03*
%TD*%
%TO.P,MX78,1,COL*%
%TO.N,Col11*%
X446670750Y-155837000D03*
%TO.P,MX78,2,ROW*%
%TO.N,Net-(D78-Pad2)*%
X453020750Y-153297000D03*
%TD*%
%TO.P,MX70,1,COL*%
%TO.N,Col2*%
X237120750Y-155837000D03*
%TO.P,MX70,2,ROW*%
%TO.N,Net-(D69-Pad2)*%
X243470750Y-153297000D03*
%TD*%
%TO.P,MX41,1,COL*%
%TO.N,Col5*%
X303795750Y-117737000D03*
%TO.P,MX41,2,ROW*%
%TO.N,Net-(D41-Pad2)*%
X310145750Y-115197000D03*
%TD*%
%TO.P,MX34,1,COL*%
%TO.N,Col15*%
X494295750Y-98687000D03*
%TO.P,MX34,2,ROW*%
%TO.N,Net-(D34-Pad2)*%
X500645750Y-96147000D03*
%TD*%
%TO.P,MX11,1,COL*%
%TO.N,Col10*%
X384758250Y-79637000D03*
%TO.P,MX11,2,ROW*%
%TO.N,Net-(D11-Pad2)*%
X391108250Y-77097000D03*
%TD*%
%TO.P,MX72,1,COL*%
%TO.N,Col3*%
X260933250Y-155837000D03*
%TO.P,MX72,2,ROW*%
%TO.N,Net-(D71-Pad2)*%
X267283250Y-153297000D03*
%TD*%
%TO.P,MX43,1,COL*%
%TO.N,Col7*%
X341895750Y-117737000D03*
%TO.P,MX43,2,ROW*%
%TO.N,Net-(D43-Pad2)*%
X348245750Y-115197000D03*
%TD*%
%TO.P,MX71,1,COL*%
%TO.N,Col3*%
X258552000Y-155837000D03*
%TO.P,MX71,2,ROW*%
%TO.N,Net-(D71-Pad2)*%
X264902000Y-153297000D03*
%TD*%
%TO.P,MX52,1,COL*%
%TO.N,Col1*%
X208545750Y-136787000D03*
%TO.P,MX52,2,ROW*%
%TO.N,Net-(D52-Pad2)*%
X214895750Y-134247000D03*
%TD*%
%TO.P,MX57,1,COL*%
%TO.N,Col6*%
X332370750Y-136787000D03*
%TO.P,MX57,2,ROW*%
%TO.N,Net-(D57-Pad2)*%
X338720750Y-134247000D03*
%TD*%
%TO.P,MX18,1,COL*%
%TO.N,Col15*%
X499058250Y-79637000D03*
%TO.P,MX18,2,ROW*%
%TO.N,Net-(D17-Pad2)*%
X505408250Y-77097000D03*
%TD*%
%TO.P,MX40,1,COL*%
%TO.N,Col4*%
X284745750Y-117737000D03*
%TO.P,MX40,2,ROW*%
%TO.N,Net-(D40-Pad2)*%
X291095750Y-115197000D03*
%TD*%
%TO.P,MX15,1,COL*%
%TO.N,Col14*%
X460958250Y-79637000D03*
%TO.P,MX15,2,ROW*%
%TO.N,Net-(D15-Pad2)*%
X467308250Y-77097000D03*
%TD*%
%TO.P,MX26,1,COL*%
%TO.N,Col7*%
X337133250Y-98687000D03*
%TO.P,MX26,2,ROW*%
%TO.N,Net-(D26-Pad2)*%
X343483250Y-96147000D03*
%TD*%
%TO.P,MX39,1,COL*%
%TO.N,Col3*%
X265695750Y-117737000D03*
%TO.P,MX39,2,ROW*%
%TO.N,Net-(D39-Pad2)*%
X272045750Y-115197000D03*
%TD*%
%TO.P,MX7,1,COL*%
%TO.N,Col6*%
X308558250Y-79637000D03*
%TO.P,MX7,2,ROW*%
%TO.N,Net-(D7-Pad2)*%
X314908250Y-77097000D03*
%TD*%
%TO.P,MX54,1,COL*%
%TO.N,Col3*%
X275220750Y-136787000D03*
%TO.P,MX54,2,ROW*%
%TO.N,Net-(D54-Pad2)*%
X281570750Y-134247000D03*
%TD*%
%TO.P,MX3,1,COL*%
%TO.N,Col2*%
X232358250Y-79637000D03*
%TO.P,MX3,2,ROW*%
%TO.N,Net-(D3-Pad2)*%
X238708250Y-77097000D03*
%TD*%
%TO.P,MX20,1,COL*%
%TO.N,Col1*%
X208545750Y-98687000D03*
%TO.P,MX20,2,ROW*%
%TO.N,Net-(D20-Pad2)*%
X214895750Y-96147000D03*
%TD*%
%TO.P,MX51,1,COL*%
%TO.N,Col0*%
X189495750Y-136787000D03*
%TO.P,MX51,2,ROW*%
%TO.N,Net-(D51-Pad2)*%
X195845750Y-134247000D03*
%TD*%
%TO.P,MX63,1,COL*%
%TO.N,Col12*%
X446670750Y-136787000D03*
%TO.P,MX63,2,ROW*%
%TO.N,Net-(D63-Pad2)*%
X453020750Y-134247000D03*
%TD*%
%TO.P,MX61,1,COL*%
%TO.N,Col10*%
X408570750Y-136787000D03*
%TO.P,MX61,2,ROW*%
%TO.N,Net-(D61-Pad2)*%
X414920750Y-134247000D03*
%TD*%
%TO.P,MX82,1,COL*%
%TO.N,Col14*%
X494295750Y-155837000D03*
%TO.P,MX82,2,ROW*%
%TO.N,Net-(D82-Pad2)*%
X500645750Y-153297000D03*
%TD*%
%TO.P,MX14,1,COL*%
%TO.N,Col13*%
X441908250Y-79637000D03*
%TO.P,MX14,2,ROW*%
%TO.N,Net-(D14-Pad2)*%
X448258250Y-77097000D03*
%TD*%
%TO.P,MX49,1,COL*%
%TO.N,Col13*%
X456195750Y-117737000D03*
%TO.P,MX49,2,ROW*%
%TO.N,Net-(D49-Pad2)*%
X462545750Y-115197000D03*
%TD*%
%TO.P,MX2,1,COL*%
%TO.N,Col1*%
X208545750Y-79637000D03*
%TO.P,MX2,2,ROW*%
%TO.N,Net-(D2-Pad2)*%
X214895750Y-77097000D03*
%TD*%
%TO.P,MX36,1,COL*%
%TO.N,Col1*%
X208545750Y-117737000D03*
%TO.P,MX36,2,ROW*%
%TO.N,Net-(D36-Pad2)*%
X214895750Y-115197000D03*
%TD*%
%TO.P,MX64,1,COL*%
%TO.N,Col14*%
X472864500Y-136787000D03*
%TO.P,MX64,2,ROW*%
%TO.N,Net-(D64-Pad2)*%
X479214500Y-134247000D03*
%TD*%
%TO.P,MX47,1,COL*%
%TO.N,Col11*%
X418095750Y-117737000D03*
%TO.P,MX47,2,ROW*%
%TO.N,Net-(D47-Pad2)*%
X424445750Y-115197000D03*
%TD*%
%TO.P,MX56,1,COL*%
%TO.N,Col5*%
X313320750Y-136787000D03*
%TO.P,MX56,2,ROW*%
%TO.N,Net-(D56-Pad2)*%
X319670750Y-134247000D03*
%TD*%
%TO.P,MX83,1,COL*%
%TO.N,Col14*%
X496677000Y-155837000D03*
%TO.P,MX83,2,ROW*%
%TO.N,Net-(D82-Pad2)*%
X503027000Y-153297000D03*
%TD*%
%TO.P,MX8,1,COL*%
%TO.N,Col7*%
X327608250Y-79637000D03*
%TO.P,MX8,2,ROW*%
%TO.N,Net-(D8-Pad2)*%
X333958250Y-77097000D03*
%TD*%
%TO.P,MX13,1,COL*%
%TO.N,Col12*%
X422858250Y-79637000D03*
%TO.P,MX13,2,ROW*%
%TO.N,Net-(D13-Pad2)*%
X429208250Y-77097000D03*
%TD*%
%TO.P,MX80,1,COL*%
%TO.N,Col12*%
X470483250Y-155837000D03*
%TO.P,MX80,2,ROW*%
%TO.N,Net-(D80-Pad2)*%
X476833250Y-153297000D03*
%TD*%
%TO.P,MX1,1,COL*%
%TO.N,Col0*%
X189495750Y-79637000D03*
%TO.P,MX1,2,ROW*%
%TO.N,Net-(D1-Pad2)*%
X195845750Y-77097000D03*
%TD*%
%TO.P,MX62,1,COL*%
%TO.N,Col11*%
X427620750Y-136787000D03*
%TO.P,MX62,2,ROW*%
%TO.N,Net-(D62-Pad2)*%
X433970750Y-134247000D03*
%TD*%
%TO.P,MX33,1,COL*%
%TO.N,Col14*%
X470483250Y-98687000D03*
%TO.P,MX33,2,ROW*%
%TO.N,Net-(D33-Pad2)*%
X476833250Y-96147000D03*
%TD*%
%TO.P,MX58,1,COL*%
%TO.N,Col7*%
X351420750Y-136787000D03*
%TO.P,MX58,2,ROW*%
%TO.N,Net-(D58-Pad2)*%
X357770750Y-134247000D03*
%TD*%
%TO.P,MX31,1,COL*%
%TO.N,Col12*%
X432383250Y-98687000D03*
%TO.P,MX31,2,ROW*%
%TO.N,Net-(D31-Pad2)*%
X438733250Y-96147000D03*
%TD*%
%TO.P,MX29,1,COL*%
%TO.N,Col10*%
X394283250Y-98687000D03*
%TO.P,MX29,2,ROW*%
%TO.N,Net-(D29-Pad2)*%
X400633250Y-96147000D03*
%TD*%
%TO.P,MX6,1,COL*%
%TO.N,Col5*%
X289508250Y-79637000D03*
%TO.P,MX6,2,ROW*%
%TO.N,Net-(D6-Pad2)*%
X295858250Y-77097000D03*
%TD*%
%TO.P,MX35,1,COL*%
%TO.N,Col0*%
X189495750Y-117737000D03*
%TO.P,MX35,2,ROW*%
%TO.N,Net-(D35-Pad2)*%
X195845750Y-115197000D03*
%TD*%
%TO.P,MX48,1,COL*%
%TO.N,Col12*%
X437145750Y-117737000D03*
%TO.P,MX48,2,ROW*%
%TO.N,Net-(D48-Pad2)*%
X443495750Y-115197000D03*
%TD*%
%TO.P,MX79,1,COL*%
%TO.N,Col11*%
X449052000Y-155837000D03*
%TO.P,MX79,2,ROW*%
%TO.N,Net-(D78-Pad2)*%
X455402000Y-153297000D03*
%TD*%
%TO.P,MX66,1,COL*%
%TO.N,Col15*%
X499058250Y-136787000D03*
%TO.P,MX66,2,ROW*%
%TO.N,Net-(D66-Pad2)*%
X505408250Y-134247000D03*
%TD*%
%TO.P,MX12,1,COL*%
%TO.N,Col11*%
X403808250Y-79637000D03*
%TO.P,MX12,2,ROW*%
%TO.N,Net-(D12-Pad2)*%
X410158250Y-77097000D03*
%TD*%
%TO.P,MX28,1,COL*%
%TO.N,Col9*%
X375233250Y-98687000D03*
%TO.P,MX28,2,ROW*%
%TO.N,Net-(D28-Pad2)*%
X381583250Y-96147000D03*
%TD*%
%TO.P,MX37,1,COL*%
%TO.N,Col2*%
X234739500Y-117737000D03*
%TO.P,MX37,2,ROW*%
%TO.N,Net-(D37-Pad2)*%
X241089500Y-115197000D03*
%TD*%
%TO.P,MX59,1,COL*%
%TO.N,Col8*%
X370470750Y-136787000D03*
%TO.P,MX59,2,ROW*%
%TO.N,Net-(D59-Pad2)*%
X376820750Y-134247000D03*
%TD*%
%TO.P,MX81,1,COL*%
%TO.N,Col12*%
X472864500Y-155837000D03*
%TO.P,MX81,2,ROW*%
%TO.N,Net-(D80-Pad2)*%
X479214500Y-153297000D03*
%TD*%
%TO.P,MX45,1,COL*%
%TO.N,Col9*%
X379995750Y-117737000D03*
%TO.P,MX45,2,ROW*%
%TO.N,Net-(D45-Pad2)*%
X386345750Y-115197000D03*
%TD*%
%TO.P,MX55,1,COL*%
%TO.N,Col4*%
X294270750Y-136787000D03*
%TO.P,MX55,2,ROW*%
%TO.N,Net-(D55-Pad2)*%
X300620750Y-134247000D03*
%TD*%
%TO.P,MX25,1,COL*%
%TO.N,Col6*%
X318083250Y-98687000D03*
%TO.P,MX25,2,ROW*%
%TO.N,Net-(D25-Pad2)*%
X324433250Y-96147000D03*
%TD*%
%TO.P,MX4,1,COL*%
%TO.N,Col3*%
X251408250Y-79637000D03*
%TO.P,MX4,2,ROW*%
%TO.N,Net-(D4-Pad2)*%
X257758250Y-77097000D03*
%TD*%
%TO.P,MX69,1,COL*%
%TO.N,Col2*%
X234739500Y-155837000D03*
%TO.P,MX69,2,ROW*%
%TO.N,Net-(D69-Pad2)*%
X241089500Y-153297000D03*
%TD*%
%TO.P,MX32,1,COL*%
%TO.N,Col13*%
X451433250Y-98687000D03*
%TO.P,MX32,2,ROW*%
%TO.N,Net-(D32-Pad2)*%
X457783250Y-96147000D03*
%TD*%
%TO.P,MX9,1,COL*%
%TO.N,Col8*%
X346658250Y-79637000D03*
%TO.P,MX9,2,ROW*%
%TO.N,Net-(D9-Pad2)*%
X353008250Y-77097000D03*
%TD*%
%TO.P,MX73,1,COL*%
%TO.N,Col4*%
X282364500Y-155837000D03*
%TO.P,MX73,2,ROW*%
%TO.N,Net-(D73-Pad2)*%
X288714500Y-153297000D03*
%TD*%
%TO.P,MX27,1,COL*%
%TO.N,Col8*%
X356183250Y-98687000D03*
%TO.P,MX27,2,ROW*%
%TO.N,Net-(D27-Pad2)*%
X362533250Y-96147000D03*
%TD*%
%TO.P,MX74,1,COL*%
%TO.N,Col4*%
X284745750Y-155837000D03*
%TO.P,MX74,2,ROW*%
%TO.N,Net-(D73-Pad2)*%
X291095750Y-153297000D03*
%TD*%
%TO.P,MX46,1,COL*%
%TO.N,Col10*%
X399045750Y-117737000D03*
%TO.P,MX46,2,ROW*%
%TO.N,Net-(D46-Pad2)*%
X405395750Y-115197000D03*
%TD*%
%TO.P,MX19,1,COL*%
%TO.N,Col0*%
X189495750Y-98687000D03*
%TO.P,MX19,2,ROW*%
%TO.N,Net-(D19-Pad2)*%
X195845750Y-96147000D03*
%TD*%
%TO.P,MX24,1,COL*%
%TO.N,Col5*%
X299033250Y-98687000D03*
%TO.P,MX24,2,ROW*%
%TO.N,Net-(D24-Pad2)*%
X305383250Y-96147000D03*
%TD*%
%TO.P,MX23,1,COL*%
%TO.N,Col4*%
X279983250Y-98687000D03*
%TO.P,MX23,2,ROW*%
%TO.N,Net-(D23-Pad2)*%
X286333250Y-96147000D03*
%TD*%
%TO.P,MX77,1,COL*%
%TO.N,Col10*%
X425239500Y-155837000D03*
%TO.P,MX77,2,ROW*%
%TO.N,Net-(D77-Pad2)*%
X431589500Y-153297000D03*
%TD*%
%TO.P,MX10,1,COL*%
%TO.N,Col9*%
X365708250Y-79637000D03*
%TO.P,MX10,2,ROW*%
%TO.N,Net-(D10-Pad2)*%
X372058250Y-77097000D03*
%TD*%
%TO.P,MX5,1,COL*%
%TO.N,Col4*%
X270458250Y-79637000D03*
%TO.P,MX5,2,ROW*%
%TO.N,Net-(D5-Pad2)*%
X276808250Y-77097000D03*
%TD*%
%TO.P,MX21,1,COL*%
%TO.N,Col2*%
X237120750Y-98687000D03*
%TO.P,MX21,2,ROW*%
%TO.N,Net-(D21-Pad2)*%
X243470750Y-96147000D03*
%TD*%
%TO.P,MX67,1,COL*%
%TO.N,Col0*%
X189495750Y-155837000D03*
%TO.P,MX67,2,ROW*%
%TO.N,Net-(D67-Pad2)*%
X195845750Y-153297000D03*
%TD*%
%TO.P,MX38,1,COL*%
%TO.N,Col2*%
X239502000Y-117737000D03*
%TO.P,MX38,2,ROW*%
%TO.N,Net-(D37-Pad2)*%
X245852000Y-115197000D03*
%TD*%
%TO.P,MX60,1,COL*%
%TO.N,Col9*%
X389520750Y-136787000D03*
%TO.P,MX60,2,ROW*%
%TO.N,Net-(D60-Pad2)*%
X395870750Y-134247000D03*
%TD*%
%TO.P,MX68,1,COL*%
%TO.N,Col1*%
X208545750Y-155837000D03*
%TO.P,MX68,2,ROW*%
%TO.N,Net-(D68-Pad2)*%
X214895750Y-153297000D03*
%TD*%
%TO.P,MX22,1,COL*%
%TO.N,Col3*%
X260933250Y-98687000D03*
%TO.P,MX22,2,ROW*%
%TO.N,Net-(D22-Pad2)*%
X267283250Y-96147000D03*
%TD*%
%TO.P,MX16,1,COL*%
%TO.N,Col14*%
X480008250Y-79637000D03*
%TO.P,MX16,2,ROW*%
%TO.N,Net-(D16-Pad2)*%
X486358250Y-77097000D03*
%TD*%
D11*
%TO.P,D78,1,K*%
%TO.N,Row4*%
X461300000Y-160950000D03*
%TO.P,D78,2,A*%
%TO.N,Net-(D78-Pad2)*%
X461300000Y-157650000D03*
%TD*%
D12*
%TO.P,U1,1,GND*%
%TO.N,GND*%
X229400000Y-110950000D03*
D13*
%TO.P,U1,2,VO*%
%TO.N,+3.3V*%
X235700000Y-108650000D03*
D12*
X229400000Y-108650000D03*
%TO.P,U1,3,VI*%
%TO.N,Net-(J1-Pad1)*%
X229400000Y-106350000D03*
%TD*%
D11*
%TO.P,D54,1,K*%
%TO.N,Row3*%
X287300000Y-141800000D03*
%TO.P,D54,2,A*%
%TO.N,Net-(D54-Pad2)*%
X287300000Y-138500000D03*
%TD*%
%TO.P,D4,1,K*%
%TO.N,Row0*%
X263450000Y-84750000D03*
%TO.P,D4,2,A*%
%TO.N,Net-(D4-Pad2)*%
X263450000Y-81450000D03*
%TD*%
%TO.P,D24,1,K*%
%TO.N,Row1*%
X311100000Y-103750000D03*
%TO.P,D24,2,A*%
%TO.N,Net-(D24-Pad2)*%
X311100000Y-100450000D03*
%TD*%
%TO.P,D25,1,K*%
%TO.N,Row1*%
X330100000Y-103750000D03*
%TO.P,D25,2,A*%
%TO.N,Net-(D25-Pad2)*%
X330100000Y-100450000D03*
%TD*%
%TO.P,D10,1,K*%
%TO.N,Row0*%
X377750000Y-84750000D03*
%TO.P,D10,2,A*%
%TO.N,Net-(D10-Pad2)*%
X377750000Y-81450000D03*
%TD*%
%TO.P,D27,1,K*%
%TO.N,Row1*%
X368200000Y-103750000D03*
%TO.P,D27,2,A*%
%TO.N,Net-(D27-Pad2)*%
X368200000Y-100450000D03*
%TD*%
%TO.P,D2,1,K*%
%TO.N,Row0*%
X220599000Y-84750000D03*
%TO.P,D2,2,A*%
%TO.N,Net-(D2-Pad2)*%
X220599000Y-81450000D03*
%TD*%
D14*
%TO.P,C3,1*%
%TO.N,GND*%
X226750000Y-110800000D03*
%TO.P,C3,2*%
%TO.N,+3.3V*%
X226750000Y-108900000D03*
%TD*%
D11*
%TO.P,D1,1,K*%
%TO.N,Row0*%
X201549000Y-84750000D03*
%TO.P,D1,2,A*%
%TO.N,Net-(D1-Pad2)*%
X201549000Y-81450000D03*
%TD*%
D15*
%TO.P,C7,1*%
%TO.N,GND*%
X232850000Y-130350000D03*
%TO.P,C7,2*%
%TO.N,+3.3V*%
X230950000Y-130350000D03*
%TD*%
D16*
%TO.P,U2,1,VBAT*%
%TO.N,+3.3V*%
X228150000Y-127412500D03*
%TO.P,U2,2,PC13*%
%TO.N,Col8*%
X227650000Y-127412500D03*
%TO.P,U2,3,PC14*%
%TO.N,Col7*%
X227150000Y-127412500D03*
%TO.P,U2,4,PC15*%
%TO.N,Col6*%
X226650000Y-127412500D03*
%TO.P,U2,5,PF0*%
%TO.N,Col5*%
X226150000Y-127412500D03*
%TO.P,U2,6,PF1*%
%TO.N,Col4*%
X225650000Y-127412500D03*
%TO.P,U2,7,NRST*%
%TO.N,Net-(J2-Pad5)*%
X225150000Y-127412500D03*
%TO.P,U2,8,VSSA*%
%TO.N,GND*%
X224650000Y-127412500D03*
%TO.P,U2,9,VDDA*%
%TO.N,+3.3V*%
X224150000Y-127412500D03*
%TO.P,U2,10,PA0*%
%TO.N,Col3*%
X223650000Y-127412500D03*
%TO.P,U2,11,PA1*%
%TO.N,Row4*%
X223150000Y-127412500D03*
%TO.P,U2,12,PA2*%
%TO.N,Row3*%
X222650000Y-127412500D03*
D17*
%TO.P,U2,13,PA3*%
%TO.N,unconnected-(U2-Pad13)*%
X221237500Y-126000000D03*
%TO.P,U2,14,PA4*%
%TO.N,unconnected-(U2-Pad14)*%
X221237500Y-125500000D03*
%TO.P,U2,15,PA5*%
%TO.N,unconnected-(U2-Pad15)*%
X221237500Y-125000000D03*
%TO.P,U2,16,PA6*%
%TO.N,Col0*%
X221237500Y-124500000D03*
%TO.P,U2,17,PA7*%
%TO.N,Col1*%
X221237500Y-124000000D03*
%TO.P,U2,18,PB0*%
%TO.N,unconnected-(U2-Pad18)*%
X221237500Y-123500000D03*
%TO.P,U2,19,PB1*%
%TO.N,unconnected-(U2-Pad19)*%
X221237500Y-123000000D03*
%TO.P,U2,20,PB2*%
%TO.N,Row2*%
X221237500Y-122500000D03*
%TO.P,U2,21,PB10*%
%TO.N,Row1*%
X221237500Y-122000000D03*
%TO.P,U2,22,PB11*%
%TO.N,Row0*%
X221237500Y-121500000D03*
%TO.P,U2,23,VSS*%
%TO.N,GND*%
X221237500Y-121000000D03*
%TO.P,U2,24,VDD*%
%TO.N,+3.3V*%
X221237500Y-120500000D03*
D16*
%TO.P,U2,25,PB12*%
%TO.N,unconnected-(U2-Pad25)*%
X222650000Y-119087500D03*
%TO.P,U2,26,PB13*%
%TO.N,unconnected-(U2-Pad26)*%
X223150000Y-119087500D03*
%TO.P,U2,27,PB14*%
%TO.N,unconnected-(U2-Pad27)*%
X223650000Y-119087500D03*
%TO.P,U2,28,PB15*%
%TO.N,unconnected-(U2-Pad28)*%
X224150000Y-119087500D03*
%TO.P,U2,29,PA8*%
%TO.N,unconnected-(U2-Pad29)*%
X224650000Y-119087500D03*
%TO.P,U2,30,PA9*%
%TO.N,unconnected-(U2-Pad30)*%
X225150000Y-119087500D03*
%TO.P,U2,31,PA10*%
%TO.N,Net-(R1-Pad1)*%
X225650000Y-119087500D03*
%TO.P,U2,32,PA11*%
%TO.N,/MCU_D-*%
X226150000Y-119087500D03*
%TO.P,U2,33,PA12*%
%TO.N,/MCU_D+*%
X226650000Y-119087500D03*
%TO.P,U2,34,PA13*%
%TO.N,Net-(J2-Pad1)*%
X227150000Y-119087500D03*
%TO.P,U2,35,VSS*%
%TO.N,GND*%
X227650000Y-119087500D03*
%TO.P,U2,36,VDDIO2*%
%TO.N,+3.3V*%
X228150000Y-119087500D03*
D17*
%TO.P,U2,37,PA14*%
%TO.N,Net-(J2-Pad6)*%
X229562500Y-120500000D03*
%TO.P,U2,38,PA15*%
%TO.N,Col2*%
X229562500Y-121000000D03*
%TO.P,U2,39,PB3*%
%TO.N,Col15*%
X229562500Y-121500000D03*
%TO.P,U2,40,PB4*%
%TO.N,Col14*%
X229562500Y-122000000D03*
%TO.P,U2,41,PB5*%
%TO.N,Col13*%
X229562500Y-122500000D03*
%TO.P,U2,42,PB6*%
%TO.N,Col12*%
X229562500Y-123000000D03*
%TO.P,U2,43,PB7*%
%TO.N,Col11*%
X229562500Y-123500000D03*
%TO.P,U2,44,BOOT0*%
%TO.N,Net-(J2-Pad3)*%
X229562500Y-124000000D03*
%TO.P,U2,45,PB8*%
%TO.N,Col10*%
X229562500Y-124500000D03*
%TO.P,U2,46,PB9*%
%TO.N,Col9*%
X229562500Y-125000000D03*
%TO.P,U2,47,VSS*%
%TO.N,GND*%
X229562500Y-125500000D03*
%TO.P,U2,48,VDD*%
%TO.N,+3.3V*%
X229562500Y-126000000D03*
%TD*%
D18*
%TO.P,D66,2,A*%
%TO.N,Net-(D66-Pad2)*%
X494900000Y-150100000D03*
%TO.P,D66,1,K*%
%TO.N,Row4*%
X491600000Y-150100000D03*
%TD*%
D11*
%TO.P,D17,1,K*%
%TO.N,Row1*%
X485600000Y-103750000D03*
%TO.P,D17,2,A*%
%TO.N,Net-(D17-Pad2)*%
X485600000Y-100450000D03*
%TD*%
%TO.P,D37,1,K*%
%TO.N,Row2*%
X251600000Y-122850000D03*
%TO.P,D37,2,A*%
%TO.N,Net-(D37-Pad2)*%
X251600000Y-119550000D03*
%TD*%
%TO.P,D48,1,K*%
%TO.N,Row2*%
X449300000Y-122850000D03*
%TO.P,D48,2,A*%
%TO.N,Net-(D48-Pad2)*%
X449300000Y-119550000D03*
%TD*%
%TO.P,D16,1,K*%
%TO.N,Row0*%
X457100000Y-84750000D03*
%TO.P,D16,2,A*%
%TO.N,Net-(D16-Pad2)*%
X457100000Y-81450000D03*
%TD*%
D19*
%TO.P,R2,1*%
%TO.N,/D+*%
X220300000Y-103537500D03*
%TO.P,R2,2*%
%TO.N,/MCU_D+*%
X220300000Y-105362500D03*
%TD*%
D11*
%TO.P,D59,1,K*%
%TO.N,Row3*%
X382500000Y-141800000D03*
%TO.P,D59,2,A*%
%TO.N,Net-(D59-Pad2)*%
X382500000Y-138500000D03*
%TD*%
%TO.P,D63,1,K*%
%TO.N,Row3*%
X458750000Y-141800000D03*
%TO.P,D63,2,A*%
%TO.N,Net-(D63-Pad2)*%
X458750000Y-138500000D03*
%TD*%
D18*
%TO.P,D82,1,K*%
%TO.N,Row4*%
X491600000Y-152900000D03*
%TO.P,D82,2,A*%
%TO.N,Net-(D82-Pad2)*%
X494900000Y-152900000D03*
%TD*%
D11*
%TO.P,D71,1,K*%
%TO.N,Row4*%
X273100000Y-160950000D03*
%TO.P,D71,2,A*%
%TO.N,Net-(D71-Pad2)*%
X273100000Y-157650000D03*
%TD*%
%TO.P,D62,1,K*%
%TO.N,Row3*%
X439700000Y-141800000D03*
%TO.P,D62,2,A*%
%TO.N,Net-(D62-Pad2)*%
X439700000Y-138500000D03*
%TD*%
%TO.P,D67,1,K*%
%TO.N,Row4*%
X201600000Y-160950000D03*
%TO.P,D67,2,A*%
%TO.N,Net-(D67-Pad2)*%
X201600000Y-157650000D03*
%TD*%
%TO.P,D77,1,K*%
%TO.N,Row4*%
X437300000Y-160950000D03*
%TO.P,D77,2,A*%
%TO.N,Net-(D77-Pad2)*%
X437300000Y-157650000D03*
%TD*%
%TO.P,D11,1,K*%
%TO.N,Row0*%
X396850000Y-84750000D03*
%TO.P,D11,2,A*%
%TO.N,Net-(D11-Pad2)*%
X396850000Y-81450000D03*
%TD*%
%TO.P,D30,1,K*%
%TO.N,Row1*%
X425400000Y-103750000D03*
%TO.P,D30,2,A*%
%TO.N,Net-(D30-Pad2)*%
X425400000Y-100450000D03*
%TD*%
%TO.P,D75,1,K*%
%TO.N,Row4*%
X377700000Y-160950000D03*
%TO.P,D75,2,A*%
%TO.N,Net-(D75-Pad2)*%
X377700000Y-157650000D03*
%TD*%
%TO.P,D5,1,K*%
%TO.N,Row0*%
X282500000Y-84750000D03*
%TO.P,D5,2,A*%
%TO.N,Net-(D5-Pad2)*%
X282500000Y-81450000D03*
%TD*%
%TO.P,D12,1,K*%
%TO.N,Row0*%
X415850000Y-84750000D03*
%TO.P,D12,2,A*%
%TO.N,Net-(D12-Pad2)*%
X415850000Y-81450000D03*
%TD*%
%TO.P,D57,1,K*%
%TO.N,Row3*%
X344450000Y-141800000D03*
%TO.P,D57,2,A*%
%TO.N,Net-(D57-Pad2)*%
X344450000Y-138500000D03*
%TD*%
%TO.P,D73,1,K*%
%TO.N,Row4*%
X296800000Y-160950000D03*
%TO.P,D73,2,A*%
%TO.N,Net-(D73-Pad2)*%
X296800000Y-157650000D03*
%TD*%
%TO.P,D3,1,K*%
%TO.N,Row0*%
X244400000Y-84750000D03*
%TO.P,D3,2,A*%
%TO.N,Net-(D3-Pad2)*%
X244400000Y-81450000D03*
%TD*%
%TO.P,D61,1,K*%
%TO.N,Row3*%
X420600000Y-141800000D03*
%TO.P,D61,2,A*%
%TO.N,Net-(D61-Pad2)*%
X420600000Y-138500000D03*
%TD*%
%TO.P,D34,1,K*%
%TO.N,Row2*%
X480100000Y-122850000D03*
%TO.P,D34,2,A*%
%TO.N,Net-(D34-Pad2)*%
X480100000Y-119550000D03*
%TD*%
%TO.P,D23,1,K*%
%TO.N,Row1*%
X292000000Y-103750000D03*
%TO.P,D23,2,A*%
%TO.N,Net-(D23-Pad2)*%
X292000000Y-100450000D03*
%TD*%
D20*
%TO.P,C2,1*%
%TO.N,GND*%
X229100000Y-116150000D03*
%TO.P,C2,2*%
%TO.N,+3.3V*%
X231000000Y-116150000D03*
%TD*%
D11*
%TO.P,D58,1,K*%
%TO.N,Row3*%
X363500000Y-141800000D03*
%TO.P,D58,2,A*%
%TO.N,Net-(D58-Pad2)*%
X363500000Y-138500000D03*
%TD*%
%TO.P,D35,1,K*%
%TO.N,Row2*%
X201549000Y-122850000D03*
%TO.P,D35,2,A*%
%TO.N,Net-(D35-Pad2)*%
X201549000Y-119550000D03*
%TD*%
D15*
%TO.P,C4,1*%
%TO.N,GND*%
X224650000Y-131000000D03*
%TO.P,C4,2*%
%TO.N,+3.3V*%
X222750000Y-131000000D03*
%TD*%
D11*
%TO.P,D36,1,K*%
%TO.N,Row2*%
X204500000Y-122850000D03*
%TO.P,D36,2,A*%
%TO.N,Net-(D36-Pad2)*%
X204500000Y-119550000D03*
%TD*%
%TO.P,D46,1,K*%
%TO.N,Row2*%
X411100000Y-122850000D03*
%TO.P,D46,2,A*%
%TO.N,Net-(D46-Pad2)*%
X411100000Y-119550000D03*
%TD*%
%TO.P,D14,1,K*%
%TO.N,Row0*%
X454000000Y-84750000D03*
%TO.P,D14,2,A*%
%TO.N,Net-(D14-Pad2)*%
X454000000Y-81450000D03*
%TD*%
%TO.P,D28,1,K*%
%TO.N,Row1*%
X387300000Y-103750000D03*
%TO.P,D28,2,A*%
%TO.N,Net-(D28-Pad2)*%
X387300000Y-100450000D03*
%TD*%
%TO.P,D51,1,K*%
%TO.N,Row3*%
X201700000Y-141800000D03*
%TO.P,D51,2,A*%
%TO.N,Net-(D51-Pad2)*%
X201700000Y-138500000D03*
%TD*%
%TO.P,D41,1,K*%
%TO.N,Row2*%
X315900000Y-122850000D03*
%TO.P,D41,2,A*%
%TO.N,Net-(D41-Pad2)*%
X315900000Y-119550000D03*
%TD*%
%TO.P,D32,1,K*%
%TO.N,Row1*%
X463500000Y-103750000D03*
%TO.P,D32,2,A*%
%TO.N,Net-(D32-Pad2)*%
X463500000Y-100450000D03*
%TD*%
%TO.P,D8,1,K*%
%TO.N,Row0*%
X339650000Y-84750000D03*
%TO.P,D8,2,A*%
%TO.N,Net-(D8-Pad2)*%
X339650000Y-81450000D03*
%TD*%
%TO.P,D80,1,K*%
%TO.N,Row4*%
X484950000Y-160950000D03*
%TO.P,D80,2,A*%
%TO.N,Net-(D80-Pad2)*%
X484950000Y-157650000D03*
%TD*%
%TO.P,D42,1,K*%
%TO.N,Row2*%
X334900000Y-122850000D03*
%TO.P,D42,2,A*%
%TO.N,Net-(D42-Pad2)*%
X334900000Y-119550000D03*
%TD*%
%TO.P,D21,1,K*%
%TO.N,Row1*%
X249300000Y-103750000D03*
%TO.P,D21,2,A*%
%TO.N,Net-(D21-Pad2)*%
X249300000Y-100450000D03*
%TD*%
D20*
%TO.P,C1,1*%
%TO.N,+3.3V*%
X222750000Y-133300000D03*
%TO.P,C1,2*%
%TO.N,GND*%
X224650000Y-133300000D03*
%TD*%
D21*
%TO.P,J2,1,Pin_1*%
%TO.N,Net-(J2-Pad1)*%
X230550000Y-145950000D03*
D22*
%TO.P,J2,2,Pin_2*%
%TO.N,GND*%
X230550000Y-147950000D03*
%TO.P,J2,3,Pin_3*%
%TO.N,Net-(J2-Pad3)*%
X228550000Y-145950000D03*
%TO.P,J2,4,Pin_4*%
%TO.N,+3.3V*%
X228550000Y-147950000D03*
%TO.P,J2,5,Pin_5*%
%TO.N,Net-(J2-Pad5)*%
X226550000Y-145950000D03*
%TO.P,J2,6,Pin_6*%
%TO.N,Net-(J2-Pad6)*%
X226550000Y-147950000D03*
%TO.P,J2,7,Pin_7*%
%TO.N,GND*%
X224550000Y-145950000D03*
%TO.P,J2,8,Pin_8*%
%TO.N,unconnected-(J2-Pad8)*%
X224550000Y-147950000D03*
%TO.P,J2,9,Pin_9*%
%TO.N,+3.3V*%
X222550000Y-145950000D03*
%TO.P,J2,10,Pin_10*%
%TO.N,GND*%
X222550000Y-147950000D03*
%TD*%
D11*
%TO.P,D43,1,K*%
%TO.N,Row2*%
X354000000Y-122850000D03*
%TO.P,D43,2,A*%
%TO.N,Net-(D43-Pad2)*%
X354000000Y-119550000D03*
%TD*%
%TO.P,D45,1,K*%
%TO.N,Row2*%
X392100000Y-122850000D03*
%TO.P,D45,2,A*%
%TO.N,Net-(D45-Pad2)*%
X392100000Y-119550000D03*
%TD*%
%TO.P,D68,1,K*%
%TO.N,Row4*%
X204450000Y-160950000D03*
%TO.P,D68,2,A*%
%TO.N,Net-(D68-Pad2)*%
X204450000Y-157650000D03*
%TD*%
%TO.P,D19,1,K*%
%TO.N,Row1*%
X201700000Y-103750000D03*
%TO.P,D19,2,A*%
%TO.N,Net-(D19-Pad2)*%
X201700000Y-100450000D03*
%TD*%
%TO.P,D26,1,K*%
%TO.N,Row1*%
X349200000Y-103750000D03*
%TO.P,D26,2,A*%
%TO.N,Net-(D26-Pad2)*%
X349200000Y-100450000D03*
%TD*%
%TO.P,D39,1,K*%
%TO.N,Row2*%
X277800000Y-122850000D03*
%TO.P,D39,2,A*%
%TO.N,Net-(D39-Pad2)*%
X277800000Y-119550000D03*
%TD*%
%TO.P,D7,1,K*%
%TO.N,Row0*%
X320600000Y-84750000D03*
%TO.P,D7,2,A*%
%TO.N,Net-(D7-Pad2)*%
X320600000Y-81450000D03*
%TD*%
D23*
%TO.P,R1,1*%
%TO.N,Net-(R1-Pad1)*%
X223762500Y-116650000D03*
%TO.P,R1,2*%
%TO.N,+3.3V*%
X221937500Y-116650000D03*
%TD*%
D24*
%TO.P,J1,1,Pin_1*%
%TO.N,Net-(J1-Pad1)*%
X223600000Y-96900000D03*
%TO.P,J1,2,Pin_2*%
%TO.N,/D-*%
X223600000Y-97900000D03*
%TO.P,J1,3,Pin_3*%
%TO.N,/D+*%
X223600000Y-98900000D03*
%TO.P,J1,4,Pin_4*%
%TO.N,GND*%
X223600000Y-99900000D03*
D25*
%TO.P,J1,MP*%
%TO.N,N/C*%
X227475000Y-101200000D03*
X227475000Y-95600000D03*
%TD*%
D11*
%TO.P,D55,1,K*%
%TO.N,Row3*%
X306350000Y-141800000D03*
%TO.P,D55,2,A*%
%TO.N,Net-(D55-Pad2)*%
X306350000Y-138500000D03*
%TD*%
%TO.P,D31,1,K*%
%TO.N,Row1*%
X444400000Y-103750000D03*
%TO.P,D31,2,A*%
%TO.N,Net-(D31-Pad2)*%
X444400000Y-100450000D03*
%TD*%
%TO.P,D22,1,K*%
%TO.N,Row1*%
X273000000Y-103750000D03*
%TO.P,D22,2,A*%
%TO.N,Net-(D22-Pad2)*%
X273000000Y-100450000D03*
%TD*%
%TO.P,D60,1,K*%
%TO.N,Row3*%
X401600000Y-141800000D03*
%TO.P,D60,2,A*%
%TO.N,Net-(D60-Pad2)*%
X401600000Y-138500000D03*
%TD*%
%TO.P,D15,1,K*%
%TO.N,Row1*%
X466600000Y-103750000D03*
%TO.P,D15,2,A*%
%TO.N,Net-(D15-Pad2)*%
X466600000Y-100450000D03*
%TD*%
%TO.P,D53,1,K*%
%TO.N,Row3*%
X256350000Y-141800000D03*
%TO.P,D53,2,A*%
%TO.N,Net-(D53-Pad2)*%
X256350000Y-138500000D03*
%TD*%
%TO.P,D20,1,K*%
%TO.N,Row1*%
X204700000Y-103750000D03*
%TO.P,D20,2,A*%
%TO.N,Net-(D20-Pad2)*%
X204700000Y-100450000D03*
%TD*%
%TO.P,D6,1,K*%
%TO.N,Row0*%
X301550000Y-84750000D03*
%TO.P,D6,2,A*%
%TO.N,Net-(D6-Pad2)*%
X301550000Y-81450000D03*
%TD*%
D26*
%TO.P,C5,1*%
%TO.N,GND*%
X232550000Y-126500000D03*
%TO.P,C5,2*%
%TO.N,+3.3V*%
X232550000Y-128400000D03*
%TD*%
D11*
%TO.P,D47,1,K*%
%TO.N,Row2*%
X430200000Y-122850000D03*
%TO.P,D47,2,A*%
%TO.N,Net-(D47-Pad2)*%
X430200000Y-119550000D03*
%TD*%
%TO.P,D56,1,K*%
%TO.N,Row3*%
X325400000Y-141800000D03*
%TO.P,D56,2,A*%
%TO.N,Net-(D56-Pad2)*%
X325400000Y-138500000D03*
%TD*%
%TO.P,D49,1,K*%
%TO.N,Row2*%
X468300000Y-122850000D03*
%TO.P,D49,2,A*%
%TO.N,Net-(D49-Pad2)*%
X468300000Y-119550000D03*
%TD*%
%TO.P,D69,1,K*%
%TO.N,Row4*%
X249300000Y-160950000D03*
%TO.P,D69,2,A*%
%TO.N,Net-(D69-Pad2)*%
X249300000Y-157650000D03*
%TD*%
%TO.P,D40,1,K*%
%TO.N,Row2*%
X296800000Y-122850000D03*
%TO.P,D40,2,A*%
%TO.N,Net-(D40-Pad2)*%
X296800000Y-119550000D03*
%TD*%
%TO.P,D52,1,K*%
%TO.N,Row3*%
X204450000Y-141800000D03*
%TO.P,D52,2,A*%
%TO.N,Net-(D52-Pad2)*%
X204450000Y-138500000D03*
%TD*%
%TO.P,D13,1,K*%
%TO.N,Row0*%
X434950000Y-84750000D03*
%TO.P,D13,2,A*%
%TO.N,Net-(D13-Pad2)*%
X434950000Y-81450000D03*
%TD*%
%TO.P,D9,1,K*%
%TO.N,Row0*%
X358700000Y-84750000D03*
%TO.P,D9,2,A*%
%TO.N,Net-(D9-Pad2)*%
X358700000Y-81450000D03*
%TD*%
D19*
%TO.P,R3,1*%
%TO.N,/D-*%
X218050000Y-103487500D03*
%TO.P,R3,2*%
%TO.N,/MCU_D-*%
X218050000Y-105312500D03*
%TD*%
D11*
%TO.P,D29,1,K*%
%TO.N,Row1*%
X406300000Y-103750000D03*
%TO.P,D29,2,A*%
%TO.N,Net-(D29-Pad2)*%
X406300000Y-100450000D03*
%TD*%
%TO.P,D33,1,K*%
%TO.N,Row1*%
X482500000Y-103750000D03*
%TO.P,D33,2,A*%
%TO.N,Net-(D33-Pad2)*%
X482500000Y-100450000D03*
%TD*%
D18*
%TO.P,D50,1,K*%
%TO.N,Row3*%
X485500000Y-147050000D03*
%TO.P,D50,2,A*%
%TO.N,Net-(D50-Pad2)*%
X488800000Y-147050000D03*
%TD*%
D11*
%TO.P,D44,1,K*%
%TO.N,Row2*%
X373000000Y-122850000D03*
%TO.P,D44,2,A*%
%TO.N,Net-(D44-Pad2)*%
X373000000Y-119550000D03*
%TD*%
D18*
%TO.P,D64,1,K*%
%TO.N,Row3*%
X485500000Y-144300000D03*
%TO.P,D64,2,A*%
%TO.N,Net-(D64-Pad2)*%
X488800000Y-144300000D03*
%TD*%
D14*
%TO.P,C6,1*%
%TO.N,GND*%
X218950000Y-118200000D03*
%TO.P,C6,2*%
%TO.N,+3.3V*%
X218950000Y-116300000D03*
%TD*%
D27*
%TO.N,+3.3V*%
X231800000Y-131775000D03*
X234075000Y-129325000D03*
X218950000Y-115100000D03*
X231750000Y-117550000D03*
X221100000Y-115250000D03*
X231575000Y-114875000D03*
X221550000Y-133300000D03*
%TO.N,GND*%
X224875500Y-135574500D03*
%TO.N,Row0*%
X205915373Y-121149704D03*
X201550000Y-86450000D03*
%TO.N,Row2*%
X228148649Y-137098647D03*
X238562500Y-123325500D03*
%TO.N,Row3*%
X219575500Y-140650000D03*
X221400000Y-128150000D03*
%TO.N,Row4*%
X220637299Y-129937299D03*
X220300000Y-159048286D03*
%TO.N,Col0*%
X207400000Y-125000000D03*
%TO.N,Col1*%
X208545750Y-124279750D03*
%TO.N,Col2*%
X247141999Y-122424500D03*
X230156049Y-118106049D03*
X230950000Y-120700000D03*
%TO.N,Col13*%
X456000000Y-126200000D03*
%TO.N,Col15*%
X487152000Y-124048000D03*
%TO.N,Net-(J2-Pad1)*%
X230050000Y-119150000D03*
X235321618Y-119360283D03*
X227500000Y-116600000D03*
%TO.N,Net-(J2-Pad3)*%
X234700500Y-124275500D03*
%TO.N,Net-(J2-Pad5)*%
X227030498Y-135530498D03*
%TO.N,Net-(J2-Pad6)*%
X231950000Y-119650000D03*
%TD*%
D28*
%TO.N,GND*%
X222550000Y-147950000D02*
X224550000Y-145950000D01*
%TO.N,+3.3V*%
X221200000Y-147300000D02*
X222550000Y-145950000D01*
X221200000Y-148300000D02*
X221200000Y-147300000D01*
X222100000Y-149200000D02*
X221200000Y-148300000D01*
X227300000Y-149200000D02*
X222100000Y-149200000D01*
X228550000Y-147950000D02*
X227300000Y-149200000D01*
%TO.N,GND*%
X225550000Y-146950000D02*
X224550000Y-145950000D01*
X229550000Y-146950000D02*
X225550000Y-146950000D01*
X230550000Y-147950000D02*
X229550000Y-146950000D01*
%TO.N,Col3*%
X273413000Y-136787000D02*
X275220750Y-136787000D01*
X273400000Y-136800000D02*
X273413000Y-136787000D01*
X266050000Y-129450000D02*
X273400000Y-136800000D01*
X242931980Y-129450000D02*
X266050000Y-129450000D01*
X242100000Y-130281980D02*
X242931980Y-129450000D01*
X242100000Y-134595584D02*
X242100000Y-130281980D01*
X238545584Y-138150000D02*
X242100000Y-134595584D01*
X233668020Y-138150000D02*
X238545584Y-138150000D01*
X232618020Y-137100000D02*
X233668020Y-138150000D01*
X222000000Y-136300000D02*
X231813604Y-136300000D01*
X231813604Y-136300000D02*
X232613604Y-137100000D01*
X220800000Y-135100000D02*
X222000000Y-136300000D01*
X220800000Y-131211073D02*
X220800000Y-135100000D01*
X232613604Y-137100000D02*
X232618020Y-137100000D01*
X223650000Y-128361073D02*
X220800000Y-131211073D01*
X223650000Y-127412500D02*
X223650000Y-128361073D01*
%TO.N,Col4*%
X225650000Y-129495584D02*
X225650000Y-127412500D01*
X228002208Y-131852208D02*
X228002208Y-131847792D01*
X232800000Y-136650000D02*
X228002208Y-131852208D01*
X232804416Y-136650000D02*
X232800000Y-136650000D01*
X233854416Y-137700000D02*
X232804416Y-136650000D01*
X242745584Y-129000000D02*
X241650000Y-130095584D01*
X241650000Y-130095584D02*
X241650000Y-134409188D01*
X284600000Y-129000000D02*
X242745584Y-129000000D01*
X292387000Y-136787000D02*
X284600000Y-129000000D01*
X294270750Y-136787000D02*
X292387000Y-136787000D01*
X241650000Y-134409188D02*
X238359188Y-137700000D01*
X238359188Y-137700000D02*
X233854416Y-137700000D01*
X228002208Y-131847792D02*
X225650000Y-129495584D01*
%TO.N,Col5*%
X311387000Y-136787000D02*
X313320750Y-136787000D01*
X242559188Y-128550000D02*
X303150000Y-128550000D01*
X303150000Y-128550000D02*
X311387000Y-136787000D01*
X241200000Y-134222792D02*
X241200000Y-129909188D01*
X226150000Y-129359188D02*
X234040812Y-137250000D01*
X234040812Y-137250000D02*
X238172792Y-137250000D01*
X238172792Y-137250000D02*
X241200000Y-134222792D01*
X241200000Y-129909188D02*
X242559188Y-128550000D01*
X226150000Y-127412500D02*
X226150000Y-129359188D01*
%TO.N,Col6*%
X330213000Y-136787000D02*
X332370750Y-136787000D01*
X330200000Y-136800000D02*
X330213000Y-136787000D01*
X242372792Y-128100000D02*
X321500000Y-128100000D01*
X321500000Y-128100000D02*
X330200000Y-136800000D01*
X240750000Y-129722792D02*
X242372792Y-128100000D01*
X240750000Y-134036396D02*
X240750000Y-129722792D01*
X226650000Y-129222792D02*
X234227208Y-136800000D01*
X234227208Y-136800000D02*
X237986396Y-136800000D01*
X237986396Y-136800000D02*
X240750000Y-134036396D01*
X226650000Y-127412500D02*
X226650000Y-129222792D01*
%TO.N,Col7*%
X227150000Y-129086396D02*
X227150000Y-127412500D01*
X234413604Y-136350000D02*
X227150000Y-129086396D01*
X237800000Y-136350000D02*
X234413604Y-136350000D01*
X240300000Y-129536396D02*
X240300000Y-133850000D01*
X340250000Y-127650000D02*
X242186396Y-127650000D01*
X349413000Y-136787000D02*
X349400000Y-136800000D01*
X349400000Y-136800000D02*
X340250000Y-127650000D01*
X351420750Y-136787000D02*
X349413000Y-136787000D01*
X242186396Y-127650000D02*
X240300000Y-129536396D01*
X240300000Y-133850000D02*
X237800000Y-136350000D01*
%TO.N,Col8*%
X368613000Y-136787000D02*
X370470750Y-136787000D01*
X368600000Y-136800000D02*
X368613000Y-136787000D01*
X359000000Y-127200000D02*
X368600000Y-136800000D01*
X242000000Y-127200000D02*
X359000000Y-127200000D01*
X239850000Y-129350000D02*
X242000000Y-127200000D01*
X234600000Y-135900000D02*
X237600000Y-135900000D01*
X237600000Y-135900000D02*
X239850000Y-133650000D01*
X227650000Y-128950000D02*
X234600000Y-135900000D01*
X227650000Y-127412500D02*
X227650000Y-128950000D01*
X239850000Y-133650000D02*
X239850000Y-129350000D01*
%TO.N,Net-(D16-Pad2)*%
X457100000Y-80750000D02*
X457100000Y-81450000D01*
X462819124Y-75030876D02*
X457100000Y-80750000D01*
X472580876Y-75030876D02*
X462819124Y-75030876D01*
X486358250Y-77097000D02*
X474647000Y-77097000D01*
X474647000Y-77097000D02*
X472580876Y-75030876D01*
%TO.N,Row4*%
X491600000Y-154300000D02*
X484950000Y-160950000D01*
X491600000Y-152900000D02*
X491600000Y-154300000D01*
X491600000Y-150100000D02*
X491600000Y-152900000D01*
%TO.N,Net-(D82-Pad2)*%
X495297000Y-153297000D02*
X494900000Y-152900000D01*
X500645750Y-153297000D02*
X495297000Y-153297000D01*
%TO.N,Net-(D66-Pad2)*%
X505408250Y-144891750D02*
X505408250Y-134247000D01*
X500200000Y-150100000D02*
X505408250Y-144891750D01*
X494900000Y-150100000D02*
X500200000Y-150100000D01*
%TO.N,+3.3V*%
X229700000Y-130350000D02*
X230950000Y-130350000D01*
X227000000Y-108650000D02*
X229400000Y-108650000D01*
X231750000Y-116900000D02*
X231000000Y-116150000D01*
X220570711Y-120500000D02*
X220150000Y-120079289D01*
X229400000Y-108650000D02*
X235700000Y-108650000D01*
X222750000Y-131000000D02*
X222750000Y-133300000D01*
X229562500Y-126000000D02*
X230150000Y-126000000D01*
X218950000Y-115100000D02*
X218950000Y-116300000D01*
X228150000Y-119087500D02*
X231000000Y-116237500D01*
X234075000Y-129325000D02*
X233475000Y-129325000D01*
X221100000Y-115250000D02*
X221100000Y-115812500D01*
X220150000Y-120079289D02*
X220150000Y-117450000D01*
X221237500Y-120500000D02*
X220570711Y-120500000D01*
X231800000Y-131775000D02*
X231800000Y-131200000D01*
X231750000Y-117550000D02*
X231750000Y-116900000D01*
X228150000Y-128800000D02*
X229700000Y-130350000D01*
X235700000Y-113550000D02*
X234375000Y-114875000D01*
X231000000Y-116237500D02*
X231000000Y-116150000D01*
X222750000Y-133300000D02*
X221550000Y-133300000D01*
X233475000Y-129325000D02*
X232550000Y-128400000D01*
X231800000Y-131200000D02*
X230950000Y-130350000D01*
X230150000Y-126000000D02*
X232550000Y-128400000D01*
X224150000Y-129600000D02*
X222750000Y-131000000D01*
X219000000Y-116300000D02*
X218950000Y-116300000D01*
X221100000Y-115812500D02*
X221937500Y-116650000D01*
X226750000Y-108900000D02*
X227000000Y-108650000D01*
X234375000Y-114875000D02*
X231575000Y-114875000D01*
X220150000Y-117450000D02*
X219000000Y-116300000D01*
X224150000Y-127412500D02*
X224150000Y-129600000D01*
X228150000Y-127412500D02*
X228150000Y-128800000D01*
X235700000Y-108650000D02*
X235700000Y-113550000D01*
%TO.N,GND*%
X227650000Y-125500000D02*
X228100000Y-125500000D01*
X232500000Y-130350000D02*
X228100000Y-125950000D01*
X226540685Y-121000000D02*
X227650000Y-119890685D01*
X221237500Y-121000000D02*
X220434315Y-121000000D01*
X228100000Y-125500000D02*
X229562500Y-125500000D01*
X231365685Y-126500000D02*
X230365685Y-125500000D01*
X225400000Y-109450000D02*
X226750000Y-110800000D01*
X226900000Y-110950000D02*
X229400000Y-110950000D01*
X229400000Y-110950000D02*
X229400000Y-115850000D01*
X225759315Y-125500000D02*
X227600000Y-125500000D01*
X227650000Y-119087500D02*
X227650000Y-117600000D01*
X224875500Y-135574500D02*
X224875500Y-133525500D01*
X232850000Y-130350000D02*
X232500000Y-130350000D01*
X225400000Y-101700000D02*
X225400000Y-109450000D01*
X230365685Y-125500000D02*
X229562500Y-125500000D01*
X228100000Y-125950000D02*
X228100000Y-125500000D01*
X224650000Y-127412500D02*
X224650000Y-126609315D01*
X227600000Y-125500000D02*
X227650000Y-125500000D01*
X226750000Y-110800000D02*
X226900000Y-110950000D01*
X221237500Y-121000000D02*
X226540685Y-121000000D01*
X218950000Y-119515685D02*
X218950000Y-118200000D01*
X223600000Y-99900000D02*
X225400000Y-101700000D01*
X224875500Y-133525500D02*
X224650000Y-133300000D01*
X229400000Y-115850000D02*
X229100000Y-116150000D01*
X220434315Y-121000000D02*
X218950000Y-119515685D01*
X232550000Y-126500000D02*
X231365685Y-126500000D01*
X227650000Y-117600000D02*
X229100000Y-116150000D01*
X224650000Y-126609315D02*
X225759315Y-125500000D01*
X226540685Y-121000000D02*
X226540685Y-124718630D01*
X224650000Y-131000000D02*
X224650000Y-133300000D01*
X227650000Y-119890685D02*
X227650000Y-119087500D01*
X226540685Y-124718630D02*
X225759315Y-125500000D01*
X224650000Y-127412500D02*
X224650000Y-131000000D01*
%TO.N,Row0*%
X209748097Y-122900000D02*
X218761523Y-122900000D01*
X220161523Y-121500000D02*
X221237500Y-121500000D01*
X282500000Y-84750000D02*
X301550000Y-84750000D01*
X263450000Y-84750000D02*
X282500000Y-84750000D01*
X457100000Y-84750000D02*
X454000000Y-84750000D01*
X358700000Y-84750000D02*
X377750000Y-84750000D01*
X206715669Y-121950000D02*
X208798097Y-121950000D01*
X201549000Y-86449000D02*
X201550000Y-86450000D01*
X244400000Y-84750000D02*
X263450000Y-84750000D01*
X218761523Y-122900000D02*
X220161523Y-121500000D01*
X377750000Y-84750000D02*
X396850000Y-84750000D01*
X220599000Y-84750000D02*
X244400000Y-84750000D01*
X320600000Y-84750000D02*
X339650000Y-84750000D01*
X415850000Y-84750000D02*
X434950000Y-84750000D01*
X434950000Y-84750000D02*
X454000000Y-84750000D01*
X201549000Y-84750000D02*
X201549000Y-86449000D01*
X396850000Y-84750000D02*
X415850000Y-84750000D01*
X205915373Y-121149704D02*
X206715669Y-121950000D01*
X339650000Y-84750000D02*
X358700000Y-84750000D01*
X301550000Y-84750000D02*
X320600000Y-84750000D01*
X201549000Y-84750000D02*
X220599000Y-84750000D01*
X208798097Y-121950000D02*
X209748097Y-122900000D01*
%TO.N,Net-(D1-Pad2)*%
X195845750Y-77097000D02*
X200198750Y-81450000D01*
X200198750Y-81450000D02*
X201549000Y-81450000D01*
%TO.N,Row1*%
X209400000Y-100450000D02*
X209400000Y-102600000D01*
X218918169Y-123379750D02*
X220297919Y-122000000D01*
X406300000Y-103750000D02*
X425400000Y-103750000D01*
X222350000Y-93850000D02*
X217750000Y-98450000D01*
X220297919Y-122000000D02*
X221237500Y-122000000D01*
X485600000Y-103750000D02*
X482500000Y-103750000D01*
X425400000Y-103750000D02*
X444400000Y-103750000D01*
X203150000Y-103750000D02*
X203200000Y-103800000D01*
X368200000Y-103750000D02*
X387300000Y-103750000D01*
X235600000Y-103750000D02*
X234350000Y-102500000D01*
X205800000Y-122400000D02*
X208611701Y-122400000D01*
X208611701Y-122400000D02*
X209591451Y-123379750D01*
X209400000Y-102600000D02*
X208250000Y-103750000D01*
X292000000Y-103750000D02*
X311100000Y-103750000D01*
X203600000Y-103750000D02*
X204700000Y-103750000D01*
X203200000Y-119800000D02*
X205800000Y-122400000D01*
X211400000Y-98450000D02*
X209400000Y-100450000D01*
X249300000Y-103750000D02*
X235600000Y-103750000D01*
X217750000Y-98450000D02*
X211400000Y-98450000D01*
X230550000Y-93850000D02*
X222350000Y-93850000D01*
X387300000Y-103750000D02*
X406300000Y-103750000D01*
X466600000Y-103750000D02*
X482500000Y-103750000D01*
X463500000Y-103750000D02*
X466600000Y-103750000D01*
X203200000Y-103800000D02*
X203200000Y-119800000D01*
X208250000Y-103750000D02*
X206750000Y-103750000D01*
X201700000Y-103750000D02*
X203150000Y-103750000D01*
X203150000Y-103750000D02*
X203600000Y-103750000D01*
X209591451Y-123379750D02*
X218918169Y-123379750D01*
X249300000Y-103750000D02*
X273000000Y-103750000D01*
X349200000Y-103750000D02*
X368200000Y-103750000D01*
X444400000Y-103750000D02*
X463500000Y-103750000D01*
X206750000Y-103750000D02*
X204700000Y-103750000D01*
X311100000Y-103750000D02*
X330100000Y-103750000D01*
X234350000Y-102500000D02*
X234350000Y-97650000D01*
X330100000Y-103750000D02*
X349200000Y-103750000D01*
X234350000Y-97650000D02*
X230550000Y-93850000D01*
X273000000Y-103750000D02*
X292000000Y-103750000D01*
%TO.N,Net-(D2-Pad2)*%
X214895750Y-77097000D02*
X219248750Y-81450000D01*
X219248750Y-81450000D02*
X220599000Y-81450000D01*
%TO.N,Row2*%
X334900000Y-122850000D02*
X354000000Y-122850000D01*
X220434315Y-122500000D02*
X219104565Y-123829750D01*
X221581802Y-136518198D02*
X221813604Y-136750000D01*
X249800000Y-122850000D02*
X251600000Y-122850000D01*
X277800000Y-122850000D02*
X296800000Y-122850000D01*
X208425305Y-122850000D02*
X204500000Y-122850000D01*
X449300000Y-122850000D02*
X468300000Y-122850000D01*
X251600000Y-122850000D02*
X277800000Y-122850000D01*
X204500000Y-124200000D02*
X204500000Y-122850000D01*
X201549000Y-122850000D02*
X204500000Y-122850000D01*
X315900000Y-122850000D02*
X334900000Y-122850000D01*
X219100000Y-132800000D02*
X219100000Y-134036396D01*
X206050000Y-125750000D02*
X209016146Y-125750000D01*
X209583073Y-125183073D02*
X218533073Y-125183073D01*
X218533073Y-125183073D02*
X219100000Y-125750000D01*
X221813604Y-136750000D02*
X227800002Y-136750000D01*
X219100000Y-134036396D02*
X221581802Y-136518198D01*
X480100000Y-122850000D02*
X476850000Y-122850000D01*
X249800000Y-122850000D02*
X249324500Y-123325500D01*
X354000000Y-122850000D02*
X373000000Y-122850000D01*
X219100000Y-125750000D02*
X219100000Y-132800000D01*
X219104565Y-123829750D02*
X209405055Y-123829750D01*
X209405055Y-123829750D02*
X208425305Y-122850000D01*
X206050000Y-125750000D02*
X204500000Y-124200000D01*
X221237500Y-122500000D02*
X220434315Y-122500000D01*
X411100000Y-122850000D02*
X430200000Y-122850000D01*
X209016146Y-125750000D02*
X209583073Y-125183073D01*
X227800002Y-136750000D02*
X228148649Y-137098647D01*
X468300000Y-122850000D02*
X476850000Y-122850000D01*
X392100000Y-122850000D02*
X411100000Y-122850000D01*
X249324500Y-123325500D02*
X238562500Y-123325500D01*
X373000000Y-122850000D02*
X392100000Y-122850000D01*
X296800000Y-122850000D02*
X315900000Y-122850000D01*
X430200000Y-122850000D02*
X449300000Y-122850000D01*
%TO.N,Net-(D3-Pad2)*%
X243061250Y-81450000D02*
X244400000Y-81450000D01*
X238708250Y-77097000D02*
X243061250Y-81450000D01*
%TO.N,Row3*%
X420600000Y-141800000D02*
X439700000Y-141800000D01*
X363500000Y-141800000D02*
X382500000Y-141800000D01*
X306350000Y-141800000D02*
X325400000Y-141800000D01*
X287300000Y-141800000D02*
X306350000Y-141800000D01*
X461250000Y-144300000D02*
X458750000Y-141800000D01*
X201700000Y-141800000D02*
X204450000Y-141800000D01*
X382500000Y-141800000D02*
X401600000Y-141800000D01*
X219575500Y-140824500D02*
X219575500Y-140650000D01*
X256350000Y-141800000D02*
X287300000Y-141800000D01*
X218600000Y-141800000D02*
X256350000Y-141800000D01*
X439700000Y-141800000D02*
X458750000Y-141800000D01*
X485500000Y-147050000D02*
X485500000Y-144300000D01*
X218600000Y-141800000D02*
X219575500Y-140824500D01*
X344450000Y-141800000D02*
X363500000Y-141800000D01*
X204450000Y-141800000D02*
X218600000Y-141800000D01*
X325400000Y-141800000D02*
X344450000Y-141800000D01*
X222650000Y-127412500D02*
X222137500Y-127412500D01*
X222137500Y-127412500D02*
X221400000Y-128150000D01*
X401600000Y-141800000D02*
X420600000Y-141800000D01*
X485500000Y-144300000D02*
X461250000Y-144300000D01*
%TO.N,Net-(D4-Pad2)*%
X262111250Y-81450000D02*
X263450000Y-81450000D01*
X257758250Y-77097000D02*
X262111250Y-81450000D01*
%TO.N,Row4*%
X222624677Y-128750000D02*
X223150000Y-128224677D01*
X273100000Y-160950000D02*
X296800000Y-160950000D01*
X201600000Y-160950000D02*
X204450000Y-160950000D01*
X223150000Y-128224677D02*
X223150000Y-127412500D01*
X377700000Y-160950000D02*
X437300000Y-160950000D01*
X218398286Y-160950000D02*
X220300000Y-159048286D01*
X218398286Y-160950000D02*
X249300000Y-160950000D01*
X204450000Y-160950000D02*
X218398286Y-160950000D01*
X220637299Y-129937299D02*
X221824598Y-128750000D01*
X461300000Y-160950000D02*
X484950000Y-160950000D01*
X221824598Y-128750000D02*
X222624677Y-128750000D01*
X296800000Y-160950000D02*
X377600000Y-160950000D01*
X249300000Y-160950000D02*
X273100000Y-160950000D01*
X437300000Y-160950000D02*
X461300000Y-160950000D01*
%TO.N,Net-(D5-Pad2)*%
X281161250Y-81450000D02*
X282500000Y-81450000D01*
X276808250Y-77097000D02*
X281161250Y-81450000D01*
%TO.N,Net-(D6-Pad2)*%
X300211250Y-81450000D02*
X301550000Y-81450000D01*
X295858250Y-77097000D02*
X300211250Y-81450000D01*
%TO.N,Net-(D7-Pad2)*%
X314908250Y-77097000D02*
X319261250Y-81450000D01*
X319261250Y-81450000D02*
X320600000Y-81450000D01*
%TO.N,Net-(D8-Pad2)*%
X338311250Y-81450000D02*
X339650000Y-81450000D01*
X333958250Y-77097000D02*
X338311250Y-81450000D01*
%TO.N,Net-(D9-Pad2)*%
X353008250Y-77097000D02*
X357361250Y-81450000D01*
X357361250Y-81450000D02*
X358700000Y-81450000D01*
%TO.N,Net-(D82-Pad2)*%
X500645750Y-153297000D02*
X503027000Y-153297000D01*
%TO.N,Net-(J1-Pad1)*%
X229400000Y-99400000D02*
X229400000Y-106350000D01*
X223600000Y-96900000D02*
X226900000Y-96900000D01*
X226900000Y-96900000D02*
X229400000Y-99400000D01*
%TO.N,Net-(D10-Pad2)*%
X376411250Y-81450000D02*
X377750000Y-81450000D01*
X372058250Y-77097000D02*
X376411250Y-81450000D01*
%TO.N,Net-(D11-Pad2)*%
X395461250Y-81450000D02*
X396850000Y-81450000D01*
X391108250Y-77097000D02*
X395461250Y-81450000D01*
%TO.N,Net-(D12-Pad2)*%
X410158250Y-77097000D02*
X414511250Y-81450000D01*
X414511250Y-81450000D02*
X415850000Y-81450000D01*
%TO.N,Net-(D13-Pad2)*%
X429208250Y-77097000D02*
X433561250Y-81450000D01*
X433561250Y-81450000D02*
X434950000Y-81450000D01*
%TO.N,Net-(D14-Pad2)*%
X448258250Y-77097000D02*
X452611250Y-81450000D01*
X452611250Y-81450000D02*
X454000000Y-81450000D01*
%TO.N,Net-(D15-Pad2)*%
X467308250Y-77097000D02*
X467308250Y-99741750D01*
X467308250Y-99741750D02*
X466600000Y-100450000D01*
%TO.N,Net-(D19-Pad2)*%
X200148750Y-100450000D02*
X201700000Y-100450000D01*
X195845750Y-96147000D02*
X200148750Y-100450000D01*
%TO.N,Net-(D20-Pad2)*%
X214895750Y-96147000D02*
X209003000Y-96147000D01*
X209003000Y-96147000D02*
X204700000Y-100450000D01*
%TO.N,Net-(D21-Pad2)*%
X243470750Y-96147000D02*
X247773750Y-100450000D01*
X247773750Y-100450000D02*
X249300000Y-100450000D01*
%TO.N,Net-(D22-Pad2)*%
X271586250Y-100450000D02*
X273000000Y-100450000D01*
X267283250Y-96147000D02*
X271586250Y-100450000D01*
%TO.N,Net-(D23-Pad2)*%
X290636250Y-100450000D02*
X292000000Y-100450000D01*
X286333250Y-96147000D02*
X290636250Y-100450000D01*
%TO.N,Net-(D24-Pad2)*%
X309686250Y-100450000D02*
X311100000Y-100450000D01*
X305383250Y-96147000D02*
X309686250Y-100450000D01*
%TO.N,Net-(D25-Pad2)*%
X324433250Y-96147000D02*
X328736250Y-100450000D01*
X328736250Y-100450000D02*
X330100000Y-100450000D01*
%TO.N,Net-(D26-Pad2)*%
X343483250Y-96147000D02*
X347786250Y-100450000D01*
X347786250Y-100450000D02*
X349200000Y-100450000D01*
%TO.N,Net-(D27-Pad2)*%
X362533250Y-96147000D02*
X366836250Y-100450000D01*
X366836250Y-100450000D02*
X368200000Y-100450000D01*
%TO.N,Net-(D28-Pad2)*%
X385886250Y-100450000D02*
X387300000Y-100450000D01*
X381583250Y-96147000D02*
X385886250Y-100450000D01*
%TO.N,Net-(D29-Pad2)*%
X400633250Y-96147000D02*
X404936250Y-100450000D01*
X404936250Y-100450000D02*
X406300000Y-100450000D01*
%TO.N,Net-(D30-Pad2)*%
X423986250Y-100450000D02*
X425400000Y-100450000D01*
X419683250Y-96147000D02*
X423986250Y-100450000D01*
%TO.N,Net-(D31-Pad2)*%
X443036250Y-100450000D02*
X444400000Y-100450000D01*
X438733250Y-96147000D02*
X443036250Y-100450000D01*
%TO.N,Net-(D32-Pad2)*%
X457783250Y-96147000D02*
X462086250Y-100450000D01*
X462086250Y-100450000D02*
X463500000Y-100450000D01*
%TO.N,Net-(D33-Pad2)*%
X476833250Y-96147000D02*
X481136250Y-100450000D01*
X481136250Y-100450000D02*
X482500000Y-100450000D01*
%TO.N,Net-(D34-Pad2)*%
X500645750Y-96147000D02*
X500645750Y-102354250D01*
X487900000Y-115100000D02*
X484550000Y-115100000D01*
X500645750Y-102354250D02*
X487900000Y-115100000D01*
X484550000Y-115100000D02*
X480100000Y-119550000D01*
%TO.N,Net-(D35-Pad2)*%
X200198750Y-119550000D02*
X201549000Y-119550000D01*
X195845750Y-115197000D02*
X200198750Y-119550000D01*
%TO.N,Net-(D36-Pad2)*%
X208853000Y-115197000D02*
X204500000Y-119550000D01*
X214895750Y-115197000D02*
X208853000Y-115197000D01*
%TO.N,Net-(D37-Pad2)*%
X250205000Y-119550000D02*
X251600000Y-119550000D01*
X245852000Y-115197000D02*
X250205000Y-119550000D01*
X241089500Y-115197000D02*
X245852000Y-115197000D01*
%TO.N,Net-(D39-Pad2)*%
X276398750Y-119550000D02*
X277800000Y-119550000D01*
X272045750Y-115197000D02*
X276398750Y-119550000D01*
%TO.N,Net-(D40-Pad2)*%
X291095750Y-115197000D02*
X295448750Y-119550000D01*
X295448750Y-119550000D02*
X296800000Y-119550000D01*
%TO.N,Net-(D41-Pad2)*%
X314498750Y-119550000D02*
X315900000Y-119550000D01*
X310145750Y-115197000D02*
X314498750Y-119550000D01*
%TO.N,Net-(D42-Pad2)*%
X329195750Y-115197000D02*
X333548750Y-119550000D01*
X333548750Y-119550000D02*
X334900000Y-119550000D01*
%TO.N,Net-(D43-Pad2)*%
X348245750Y-115197000D02*
X352598750Y-119550000D01*
X352598750Y-119550000D02*
X354000000Y-119550000D01*
%TO.N,Net-(D44-Pad2)*%
X367295750Y-115197000D02*
X371648750Y-119550000D01*
X371648750Y-119550000D02*
X373000000Y-119550000D01*
%TO.N,Net-(D45-Pad2)*%
X386345750Y-115197000D02*
X390698750Y-119550000D01*
X390698750Y-119550000D02*
X392100000Y-119550000D01*
%TO.N,Net-(D46-Pad2)*%
X409748750Y-119550000D02*
X411100000Y-119550000D01*
X405395750Y-115197000D02*
X409748750Y-119550000D01*
%TO.N,Net-(D47-Pad2)*%
X424445750Y-115197000D02*
X428798750Y-119550000D01*
X428798750Y-119550000D02*
X430200000Y-119550000D01*
%TO.N,Net-(D48-Pad2)*%
X443495750Y-115197000D02*
X447848750Y-119550000D01*
X447848750Y-119550000D02*
X449300000Y-119550000D01*
%TO.N,Net-(D49-Pad2)*%
X462545750Y-115197000D02*
X466898750Y-119550000D01*
X466898750Y-119550000D02*
X468300000Y-119550000D01*
%TO.N,Net-(D51-Pad2)*%
X200098750Y-138500000D02*
X201700000Y-138500000D01*
X195845750Y-134247000D02*
X200098750Y-138500000D01*
%TO.N,Net-(D52-Pad2)*%
X204550000Y-138500000D02*
X204450000Y-138500000D01*
X214895750Y-134247000D02*
X208803000Y-134247000D01*
X208803000Y-134247000D02*
X204550000Y-138500000D01*
%TO.N,Net-(D53-Pad2)*%
X250614500Y-134247000D02*
X254867500Y-138500000D01*
X254867500Y-138500000D02*
X256350000Y-138500000D01*
%TO.N,Net-(D54-Pad2)*%
X285823750Y-138500000D02*
X281570750Y-134247000D01*
X287300000Y-138500000D02*
X285823750Y-138500000D01*
%TO.N,Net-(D55-Pad2)*%
X300620750Y-134247000D02*
X304873750Y-138500000D01*
X304873750Y-138500000D02*
X306350000Y-138500000D01*
%TO.N,Net-(D56-Pad2)*%
X323923750Y-138500000D02*
X325400000Y-138500000D01*
X319670750Y-134247000D02*
X323923750Y-138500000D01*
%TO.N,Net-(D57-Pad2)*%
X342973750Y-138500000D02*
X344450000Y-138500000D01*
X338720750Y-134247000D02*
X342973750Y-138500000D01*
%TO.N,Net-(D58-Pad2)*%
X357770750Y-134247000D02*
X362023750Y-138500000D01*
X362023750Y-138500000D02*
X363500000Y-138500000D01*
%TO.N,Net-(D59-Pad2)*%
X376820750Y-134247000D02*
X381073750Y-138500000D01*
X381073750Y-138500000D02*
X382500000Y-138500000D01*
%TO.N,Net-(D60-Pad2)*%
X395870750Y-134247000D02*
X400123750Y-138500000D01*
X400123750Y-138500000D02*
X401600000Y-138500000D01*
%TO.N,Net-(D61-Pad2)*%
X419173750Y-138500000D02*
X420600000Y-138500000D01*
X414920750Y-134247000D02*
X419173750Y-138500000D01*
%TO.N,Net-(D62-Pad2)*%
X438223750Y-138500000D02*
X439700000Y-138500000D01*
X433970750Y-134247000D02*
X438223750Y-138500000D01*
%TO.N,Net-(D63-Pad2)*%
X457273750Y-138500000D02*
X458750000Y-138500000D01*
X453020750Y-134247000D02*
X457273750Y-138500000D01*
%TO.N,Net-(D64-Pad2)*%
X479214500Y-134247000D02*
X488739500Y-134247000D01*
X488739500Y-144239500D02*
X488800000Y-144300000D01*
X488739500Y-134247000D02*
X488739500Y-144239500D01*
%TO.N,Net-(D67-Pad2)*%
X200198750Y-157650000D02*
X201600000Y-157650000D01*
X195845750Y-153297000D02*
X200198750Y-157650000D01*
%TO.N,Net-(D68-Pad2)*%
X204450000Y-157650000D02*
X208803000Y-153297000D01*
X208803000Y-153297000D02*
X214895750Y-153297000D01*
%TO.N,Net-(D71-Pad2)*%
X264902000Y-153297000D02*
X267283250Y-153297000D01*
X267283250Y-153297000D02*
X271636250Y-157650000D01*
X271636250Y-157650000D02*
X273100000Y-157650000D01*
%TO.N,Net-(D73-Pad2)*%
X295448750Y-157650000D02*
X296800000Y-157650000D01*
X288714500Y-153297000D02*
X291095750Y-153297000D01*
X291095750Y-153297000D02*
X295448750Y-157650000D01*
%TO.N,Net-(D77-Pad2)*%
X437300000Y-157650000D02*
X435942500Y-157650000D01*
X435942500Y-157650000D02*
X431589500Y-153297000D01*
%TO.N,Net-(D78-Pad2)*%
X453020750Y-153297000D02*
X455402000Y-153297000D01*
X459755000Y-157650000D02*
X461300000Y-157650000D01*
X455402000Y-153297000D02*
X459755000Y-157650000D01*
%TO.N,Net-(D80-Pad2)*%
X479214500Y-153297000D02*
X483567500Y-157650000D01*
X476833250Y-153297000D02*
X479214500Y-153297000D01*
X483567500Y-157650000D02*
X484950000Y-157650000D01*
%TO.N,Col0*%
X219806646Y-124729750D02*
X220036396Y-124500000D01*
X207400000Y-125000000D02*
X207404250Y-125004250D01*
X209125500Y-125004250D02*
X209400000Y-124729750D01*
X220036396Y-124500000D02*
X221237500Y-124500000D01*
X209400000Y-124729750D02*
X219806646Y-124729750D01*
X207404250Y-125004250D02*
X209125500Y-125004250D01*
%TO.N,Col1*%
X219925000Y-123975000D02*
X219620250Y-124279750D01*
X219620250Y-124279750D02*
X208545750Y-124279750D01*
X221237500Y-123987500D02*
X221225000Y-123975000D01*
X221237500Y-124000000D02*
X221237500Y-123987500D01*
X221225000Y-123975000D02*
X219925000Y-123975000D01*
%TO.N,Col2*%
X239502000Y-117737000D02*
X244837000Y-117737000D01*
X233350000Y-118450000D02*
X234063000Y-117737000D01*
X247141999Y-120041999D02*
X247141999Y-122424500D01*
X230156049Y-118106049D02*
X230500000Y-118450000D01*
X230500000Y-118450000D02*
X233350000Y-118450000D01*
X244837000Y-117737000D02*
X246400000Y-119300000D01*
X234739500Y-155837000D02*
X237120750Y-155837000D01*
X230650000Y-121000000D02*
X230950000Y-120700000D01*
X239502000Y-117737000D02*
X234739500Y-117737000D01*
X229562500Y-121000000D02*
X230650000Y-121000000D01*
X234063000Y-117737000D02*
X234739500Y-117737000D01*
X246400000Y-119300000D02*
X247141999Y-120041999D01*
%TO.N,Col3*%
X260933250Y-155837000D02*
X258552000Y-155837000D01*
%TO.N,Col4*%
X282364500Y-155837000D02*
X284745750Y-155837000D01*
%TO.N,Col7*%
X353802000Y-155837000D02*
X365708250Y-155837000D01*
%TO.N,Col9*%
X231600000Y-125450000D02*
X234600000Y-125450000D01*
X235900000Y-126750000D02*
X377350000Y-126750000D01*
X231150000Y-125000000D02*
X231600000Y-125450000D01*
X377350000Y-126750000D02*
X387400000Y-136800000D01*
X387400000Y-136800000D02*
X387413000Y-136787000D01*
X229562500Y-125000000D02*
X231150000Y-125000000D01*
X234600000Y-125450000D02*
X235900000Y-126750000D01*
X387413000Y-136787000D02*
X389520750Y-136787000D01*
%TO.N,Col10*%
X406200000Y-136800000D02*
X406213000Y-136787000D01*
X234786396Y-125000000D02*
X236086396Y-126300000D01*
X406213000Y-136787000D02*
X408570750Y-136787000D01*
X229562500Y-124500000D02*
X231286396Y-124500000D01*
X231286396Y-124500000D02*
X231786396Y-125000000D01*
X231786396Y-125000000D02*
X234786396Y-125000000D01*
X395700000Y-126300000D02*
X406200000Y-136800000D01*
X236086396Y-126300000D02*
X395700000Y-126300000D01*
%TO.N,Col11*%
X425013000Y-136787000D02*
X427620750Y-136787000D01*
X446670750Y-155837000D02*
X449052000Y-155837000D01*
X237300000Y-125850000D02*
X414050000Y-125850000D01*
X235950000Y-124500000D02*
X237300000Y-125850000D01*
X235000805Y-123550500D02*
X235950000Y-124499695D01*
X235950000Y-124499695D02*
X235950000Y-124500000D01*
X231559188Y-123500000D02*
X231609688Y-123550500D01*
X229562500Y-123500000D02*
X231559188Y-123500000D01*
X414050000Y-125850000D02*
X425000000Y-136800000D01*
X231609688Y-123550500D02*
X235000805Y-123550500D01*
X425000000Y-136800000D02*
X425013000Y-136787000D01*
%TO.N,Col12*%
X231804594Y-123000000D02*
X231905094Y-123100500D01*
X229562500Y-123000000D02*
X231804594Y-123000000D01*
X444200000Y-136800000D02*
X444213000Y-136787000D01*
X235187201Y-123100500D02*
X237486701Y-125400000D01*
X444213000Y-136787000D02*
X446670750Y-136787000D01*
X432800000Y-125400000D02*
X444200000Y-136800000D01*
X470483250Y-155837000D02*
X472864500Y-155837000D01*
X231905094Y-123100500D02*
X235187201Y-123100500D01*
X237486701Y-125400000D02*
X432800000Y-125400000D01*
%TO.N,Col13*%
X234600000Y-122650500D02*
X235373597Y-122650500D01*
X231940990Y-122500000D02*
X232070495Y-122629505D01*
X229562500Y-122500000D02*
X231940990Y-122500000D01*
X237673097Y-124950000D02*
X238600000Y-124950000D01*
X232070495Y-122629505D02*
X232091490Y-122650500D01*
X236361549Y-123638452D02*
X236373097Y-123650000D01*
X251600000Y-124950000D02*
X454750000Y-124950000D01*
X454750000Y-124950000D02*
X456000000Y-126200000D01*
X235373597Y-122650500D02*
X236361549Y-123638452D01*
X236373097Y-123650000D02*
X237673097Y-124950000D01*
X232091490Y-122650500D02*
X234600000Y-122650500D01*
X238600000Y-124950000D02*
X251600000Y-124950000D01*
%TO.N,Col14*%
X235559993Y-122200500D02*
X237859493Y-124500000D01*
X470587000Y-136787000D02*
X472864500Y-136787000D01*
X494295750Y-155837000D02*
X496677000Y-155837000D01*
X472864500Y-136787000D02*
X482389500Y-136787000D01*
X458300000Y-124500000D02*
X470587000Y-136787000D01*
X237859493Y-124500000D02*
X458300000Y-124500000D01*
X229562500Y-122000000D02*
X232077386Y-122000000D01*
X232277886Y-122200500D02*
X235559993Y-122200500D01*
X232077386Y-122000000D02*
X232277886Y-122200500D01*
%TO.N,Col15*%
X232213782Y-121500000D02*
X232464282Y-121750500D01*
X238045889Y-124050000D02*
X487150000Y-124050000D01*
X487150000Y-124050000D02*
X487152000Y-124048000D01*
X229562500Y-121500000D02*
X232213782Y-121500000D01*
X232464282Y-121750500D02*
X235746389Y-121750500D01*
X489533250Y-79637000D02*
X499058250Y-79637000D01*
X235746389Y-121750500D02*
X238045889Y-124050000D01*
%TO.N,Net-(J2-Pad1)*%
X234250000Y-119300000D02*
X235261335Y-119300000D01*
X230050000Y-119150000D02*
X230300000Y-118900000D01*
X232300000Y-118900000D02*
X233850000Y-118900000D01*
X227150000Y-116950000D02*
X227500000Y-116600000D01*
X230300000Y-118900000D02*
X232300000Y-118900000D01*
X233850000Y-118900000D02*
X234250000Y-119300000D01*
X235261335Y-119300000D02*
X235321618Y-119360283D01*
X227150000Y-119087500D02*
X227150000Y-116950000D01*
%TO.N,Net-(J2-Pad3)*%
X234426000Y-124550000D02*
X234700500Y-124275500D01*
X231961396Y-124538604D02*
X231972792Y-124550000D01*
X231972792Y-124550000D02*
X233950000Y-124550000D01*
X229562500Y-124000000D02*
X231422792Y-124000000D01*
X231422792Y-124000000D02*
X231961396Y-124538604D01*
X233950000Y-124550000D02*
X234426000Y-124550000D01*
%TO.N,Net-(D16-Pad2)*%
X486358250Y-77097000D02*
X495883250Y-77097000D01*
%TO.N,Net-(J2-Pad5)*%
X225950000Y-130500000D02*
X225950000Y-134450000D01*
X227030498Y-135530498D02*
X225950000Y-134450000D01*
X225150000Y-127412500D02*
X225150000Y-129700000D01*
X225150000Y-129700000D02*
X225950000Y-130500000D01*
%TO.N,Net-(J2-Pad6)*%
X229562500Y-120500000D02*
X230050000Y-120500000D01*
X230050000Y-120500000D02*
X230650000Y-119900000D01*
X230900000Y-119650000D02*
X231950000Y-119650000D01*
X230650000Y-119900000D02*
X230900000Y-119650000D01*
%TO.N,Net-(R1-Pad1)*%
X225650000Y-118234315D02*
X225650000Y-119087500D01*
X223762500Y-116650000D02*
X224065685Y-116650000D01*
X224065685Y-116650000D02*
X225650000Y-118234315D01*
%TO.N,Net-(D17-Pad2)*%
X505408250Y-77097000D02*
X505408250Y-84391750D01*
X505408250Y-84391750D02*
X489350000Y-100450000D01*
X489350000Y-100450000D02*
X485600000Y-100450000D01*
%TO.N,Net-(D69-Pad2)*%
X241089500Y-153297000D02*
X243470750Y-153297000D01*
X243470750Y-153297000D02*
X247823750Y-157650000D01*
X247823750Y-157650000D02*
X249300000Y-157650000D01*
%TO.N,Net-(D75-Pad2)*%
X372058250Y-153297000D02*
X376411250Y-157650000D01*
X376411250Y-157650000D02*
X377700000Y-157650000D01*
X360152000Y-153297000D02*
X372058250Y-153297000D01*
D29*
%TO.N,/D-*%
X223600000Y-97900000D02*
X223325001Y-98174999D01*
X221706801Y-98174999D02*
X218924999Y-100956801D01*
X223325001Y-98174999D02*
X221706801Y-98174999D01*
X218924999Y-102612501D02*
X218050000Y-103487500D01*
X218924999Y-100956801D02*
X218924999Y-102612501D01*
%TO.N,/D+*%
X223600000Y-98900000D02*
X223325001Y-98625001D01*
X223325001Y-98625001D02*
X221893199Y-98625001D01*
X221893199Y-98625001D02*
X219375001Y-101143199D01*
X219375001Y-101143199D02*
X219375001Y-102612501D01*
X219375001Y-102612501D02*
X220300000Y-103537500D01*
%TO.N,/MCU_D+*%
X219425001Y-106237499D02*
X219425001Y-108306801D01*
X226625001Y-115506801D02*
X226625001Y-119062501D01*
X220300000Y-105362500D02*
X219425001Y-106237499D01*
X226625001Y-119062501D02*
X226650000Y-119087500D01*
X219425001Y-108306801D02*
X226625001Y-115506801D01*
%TO.N,/MCU_D-*%
X226174999Y-115693199D02*
X226174999Y-119062501D01*
X218974999Y-108493199D02*
X226174999Y-115693199D01*
X218974999Y-106237499D02*
X218974999Y-108493199D01*
X218050000Y-105312500D02*
X218974999Y-106237499D01*
X226174999Y-119062501D02*
X226150000Y-119087500D01*
D28*
%TO.N,Net-(D50-Pad2)*%
X493502000Y-142348000D02*
X488800000Y-147050000D01*
X493502000Y-115197000D02*
X493502000Y-142348000D01*
%TD*%
%TA.AperFunction,Conductor*%
%TO.N,GND*%
G36*
X227709065Y-120206892D02*
G01*
X227726705Y-120218229D01*
X227753908Y-120239103D01*
X227795775Y-120296442D01*
X227798099Y-120303567D01*
X227804044Y-120323813D01*
X227817583Y-120325842D01*
X227877194Y-120317994D01*
X227877427Y-120319765D01*
X227922507Y-120319766D01*
X227922676Y-120318481D01*
X228032669Y-120332962D01*
X228032670Y-120332962D01*
X228036756Y-120333500D01*
X228190500Y-120333500D01*
X228258621Y-120353502D01*
X228305114Y-120407158D01*
X228316500Y-120459500D01*
X228316500Y-120613244D01*
X228317038Y-120617330D01*
X228317038Y-120617331D01*
X228331519Y-120727324D01*
X228329974Y-120727527D01*
X228329974Y-120772473D01*
X228331519Y-120772676D01*
X228317189Y-120881526D01*
X228316500Y-120886756D01*
X228316500Y-121113244D01*
X228317038Y-121117330D01*
X228317038Y-121117331D01*
X228331519Y-121227324D01*
X228329974Y-121227527D01*
X228329974Y-121272473D01*
X228331519Y-121272676D01*
X228316500Y-121386756D01*
X228316500Y-121613244D01*
X228317038Y-121617330D01*
X228317038Y-121617331D01*
X228331519Y-121727324D01*
X228329974Y-121727527D01*
X228329974Y-121772473D01*
X228331519Y-121772676D01*
X228316500Y-121886756D01*
X228316500Y-122113244D01*
X228317038Y-122117330D01*
X228317038Y-122117331D01*
X228331519Y-122227324D01*
X228329974Y-122227527D01*
X228329974Y-122272473D01*
X228331519Y-122272676D01*
X228316500Y-122386756D01*
X228316500Y-122613244D01*
X228317038Y-122617330D01*
X228317038Y-122617331D01*
X228331519Y-122727324D01*
X228329974Y-122727527D01*
X228329974Y-122772473D01*
X228331519Y-122772676D01*
X228316500Y-122886756D01*
X228316500Y-123113244D01*
X228317038Y-123117330D01*
X228317038Y-123117331D01*
X228331519Y-123227324D01*
X228329974Y-123227527D01*
X228329974Y-123272473D01*
X228331519Y-123272676D01*
X228316500Y-123386756D01*
X228316500Y-123613244D01*
X228317038Y-123617330D01*
X228317038Y-123617331D01*
X228331519Y-123727324D01*
X228329974Y-123727527D01*
X228329974Y-123772473D01*
X228331519Y-123772676D01*
X228316500Y-123886756D01*
X228316500Y-124113244D01*
X228317038Y-124117330D01*
X228317038Y-124117331D01*
X228331519Y-124227324D01*
X228329974Y-124227527D01*
X228329974Y-124272473D01*
X228331519Y-124272676D01*
X228316500Y-124386756D01*
X228316500Y-124613244D01*
X228317038Y-124617330D01*
X228317038Y-124617331D01*
X228331519Y-124727324D01*
X228329974Y-124727527D01*
X228329974Y-124772473D01*
X228331519Y-124772676D01*
X228316500Y-124886756D01*
X228316500Y-125113244D01*
X228317038Y-125117330D01*
X228317038Y-125117331D01*
X228331519Y-125227324D01*
X228330234Y-125227493D01*
X228330235Y-125272573D01*
X228332006Y-125272806D01*
X228324208Y-125332040D01*
X228326419Y-125346222D01*
X228345784Y-125351783D01*
X228405737Y-125389811D01*
X228410967Y-125396184D01*
X228431771Y-125423296D01*
X228457372Y-125489516D01*
X228443108Y-125559065D01*
X228431771Y-125576705D01*
X228410897Y-125603908D01*
X228353558Y-125645775D01*
X228346433Y-125648099D01*
X228326187Y-125654044D01*
X228324158Y-125667583D01*
X228332006Y-125727194D01*
X228330235Y-125727427D01*
X228330234Y-125772507D01*
X228331519Y-125772676D01*
X228316500Y-125886756D01*
X228316500Y-126040500D01*
X228296498Y-126108621D01*
X228242842Y-126155114D01*
X228190500Y-126166500D01*
X228036756Y-126166500D01*
X228032670Y-126167038D01*
X228032669Y-126167038D01*
X227922676Y-126181519D01*
X227922473Y-126179974D01*
X227877527Y-126179974D01*
X227877324Y-126181519D01*
X227767331Y-126167038D01*
X227767330Y-126167038D01*
X227763244Y-126166500D01*
X227536756Y-126166500D01*
X227532670Y-126167038D01*
X227532669Y-126167038D01*
X227422676Y-126181519D01*
X227422473Y-126179974D01*
X227377527Y-126179974D01*
X227377324Y-126181519D01*
X227267331Y-126167038D01*
X227267330Y-126167038D01*
X227263244Y-126166500D01*
X227036756Y-126166500D01*
X227032670Y-126167038D01*
X227032669Y-126167038D01*
X226922676Y-126181519D01*
X226922473Y-126179974D01*
X226877527Y-126179974D01*
X226877324Y-126181519D01*
X226767331Y-126167038D01*
X226767330Y-126167038D01*
X226763244Y-126166500D01*
X226536756Y-126166500D01*
X226532670Y-126167038D01*
X226532669Y-126167038D01*
X226422676Y-126181519D01*
X226422473Y-126179974D01*
X226377527Y-126179974D01*
X226377324Y-126181519D01*
X226267331Y-126167038D01*
X226267330Y-126167038D01*
X226263244Y-126166500D01*
X226036756Y-126166500D01*
X226032670Y-126167038D01*
X226032669Y-126167038D01*
X225922676Y-126181519D01*
X225922473Y-126179974D01*
X225877527Y-126179974D01*
X225877324Y-126181519D01*
X225767331Y-126167038D01*
X225767330Y-126167038D01*
X225763244Y-126166500D01*
X225536756Y-126166500D01*
X225532670Y-126167038D01*
X225532669Y-126167038D01*
X225422676Y-126181519D01*
X225422473Y-126179974D01*
X225377527Y-126179974D01*
X225377324Y-126181519D01*
X225267331Y-126167038D01*
X225267330Y-126167038D01*
X225263244Y-126166500D01*
X225036756Y-126166500D01*
X225032670Y-126167038D01*
X225032669Y-126167038D01*
X224922676Y-126181519D01*
X224922507Y-126180234D01*
X224877427Y-126180235D01*
X224877194Y-126182006D01*
X224817960Y-126174208D01*
X224803778Y-126176419D01*
X224798217Y-126195784D01*
X224760189Y-126255737D01*
X224753816Y-126260967D01*
X224726704Y-126281771D01*
X224660484Y-126307372D01*
X224590935Y-126293108D01*
X224573295Y-126281771D01*
X224546092Y-126260897D01*
X224504225Y-126203558D01*
X224501901Y-126196433D01*
X224495956Y-126176187D01*
X224482417Y-126174158D01*
X224422806Y-126182006D01*
X224422573Y-126180235D01*
X224377493Y-126180234D01*
X224377324Y-126181519D01*
X224267331Y-126167038D01*
X224267330Y-126167038D01*
X224263244Y-126166500D01*
X224036756Y-126166500D01*
X224032670Y-126167038D01*
X224032669Y-126167038D01*
X223922676Y-126181519D01*
X223922473Y-126179974D01*
X223877527Y-126179974D01*
X223877324Y-126181519D01*
X223767331Y-126167038D01*
X223767330Y-126167038D01*
X223763244Y-126166500D01*
X223536756Y-126166500D01*
X223532670Y-126167038D01*
X223532669Y-126167038D01*
X223422676Y-126181519D01*
X223422473Y-126179974D01*
X223377527Y-126179974D01*
X223377324Y-126181519D01*
X223267331Y-126167038D01*
X223267330Y-126167038D01*
X223263244Y-126166500D01*
X223036756Y-126166500D01*
X223032670Y-126167038D01*
X223032669Y-126167038D01*
X222922676Y-126181519D01*
X222922473Y-126179974D01*
X222877527Y-126179974D01*
X222877324Y-126181519D01*
X222767331Y-126167038D01*
X222767330Y-126167038D01*
X222763244Y-126166500D01*
X222609500Y-126166500D01*
X222541379Y-126146498D01*
X222494886Y-126092842D01*
X222483500Y-126040500D01*
X222483500Y-125886756D01*
X222468481Y-125772676D01*
X222470026Y-125772473D01*
X222470026Y-125727527D01*
X222468481Y-125727324D01*
X222482962Y-125617331D01*
X222482962Y-125617330D01*
X222483500Y-125613244D01*
X222483500Y-125386756D01*
X222468481Y-125272676D01*
X222470026Y-125272473D01*
X222470026Y-125227527D01*
X222468481Y-125227324D01*
X222482962Y-125117331D01*
X222482962Y-125117330D01*
X222483500Y-125113244D01*
X222483500Y-124886756D01*
X222468481Y-124772676D01*
X222470026Y-124772473D01*
X222470026Y-124727527D01*
X222468481Y-124727324D01*
X222482962Y-124617331D01*
X222482962Y-124617330D01*
X222483500Y-124613244D01*
X222483500Y-124386756D01*
X222468481Y-124272676D01*
X222470026Y-124272473D01*
X222470026Y-124227527D01*
X222468481Y-124227324D01*
X222482962Y-124117331D01*
X222482962Y-124117330D01*
X222483500Y-124113244D01*
X222483500Y-123886756D01*
X222468481Y-123772676D01*
X222470026Y-123772473D01*
X222470026Y-123727527D01*
X222468481Y-123727324D01*
X222482962Y-123617331D01*
X222482962Y-123617330D01*
X222483500Y-123613244D01*
X222483500Y-123386756D01*
X222468481Y-123272676D01*
X222470026Y-123272473D01*
X222470026Y-123227527D01*
X222468481Y-123227324D01*
X222482962Y-123117331D01*
X222482962Y-123117330D01*
X222483500Y-123113244D01*
X222483500Y-122886756D01*
X222468481Y-122772676D01*
X222470026Y-122772473D01*
X222470026Y-122727527D01*
X222468481Y-122727324D01*
X222482962Y-122617331D01*
X222482962Y-122617330D01*
X222483500Y-122613244D01*
X222483500Y-122386756D01*
X222468481Y-122272676D01*
X222470026Y-122272473D01*
X222470026Y-122227527D01*
X222468481Y-122227324D01*
X222482962Y-122117331D01*
X222482962Y-122117330D01*
X222483500Y-122113244D01*
X222483500Y-121886756D01*
X222468481Y-121772676D01*
X222470026Y-121772473D01*
X222470026Y-121727527D01*
X222468481Y-121727324D01*
X222482962Y-121617331D01*
X222482962Y-121617330D01*
X222483500Y-121613244D01*
X222483500Y-121386756D01*
X222468481Y-121272676D01*
X222469766Y-121272507D01*
X222469765Y-121227427D01*
X222467994Y-121227194D01*
X222475792Y-121167960D01*
X222473581Y-121153778D01*
X222454216Y-121148217D01*
X222394263Y-121110189D01*
X222389033Y-121103816D01*
X222368229Y-121076704D01*
X222342628Y-121010484D01*
X222356892Y-120940935D01*
X222368229Y-120923295D01*
X222389103Y-120896092D01*
X222446442Y-120854225D01*
X222453567Y-120851901D01*
X222473813Y-120845956D01*
X222475842Y-120832417D01*
X222467994Y-120772806D01*
X222469765Y-120772573D01*
X222469766Y-120727493D01*
X222468481Y-120727324D01*
X222482962Y-120617331D01*
X222482962Y-120617330D01*
X222483500Y-120613244D01*
X222483500Y-120459500D01*
X222503502Y-120391379D01*
X222557158Y-120344886D01*
X222609500Y-120333500D01*
X222763244Y-120333500D01*
X222767330Y-120332962D01*
X222767331Y-120332962D01*
X222877324Y-120318481D01*
X222877527Y-120320026D01*
X222922473Y-120320026D01*
X222922676Y-120318481D01*
X223032669Y-120332962D01*
X223032670Y-120332962D01*
X223036756Y-120333500D01*
X223263244Y-120333500D01*
X223267330Y-120332962D01*
X223267331Y-120332962D01*
X223377324Y-120318481D01*
X223377527Y-120320026D01*
X223422473Y-120320026D01*
X223422676Y-120318481D01*
X223532669Y-120332962D01*
X223532670Y-120332962D01*
X223536756Y-120333500D01*
X223763244Y-120333500D01*
X223767330Y-120332962D01*
X223767331Y-120332962D01*
X223877324Y-120318481D01*
X223877527Y-120320026D01*
X223922473Y-120320026D01*
X223922676Y-120318481D01*
X224032669Y-120332962D01*
X224032670Y-120332962D01*
X224036756Y-120333500D01*
X224263244Y-120333500D01*
X224267330Y-120332962D01*
X224267331Y-120332962D01*
X224377324Y-120318481D01*
X224377527Y-120320026D01*
X224422473Y-120320026D01*
X224422676Y-120318481D01*
X224532669Y-120332962D01*
X224532670Y-120332962D01*
X224536756Y-120333500D01*
X224763244Y-120333500D01*
X224767330Y-120332962D01*
X224767331Y-120332962D01*
X224877324Y-120318481D01*
X224877527Y-120320026D01*
X224922473Y-120320026D01*
X224922676Y-120318481D01*
X225032669Y-120332962D01*
X225032670Y-120332962D01*
X225036756Y-120333500D01*
X225263244Y-120333500D01*
X225267330Y-120332962D01*
X225267331Y-120332962D01*
X225377324Y-120318481D01*
X225377527Y-120320026D01*
X225422473Y-120320026D01*
X225422676Y-120318481D01*
X225532669Y-120332962D01*
X225532670Y-120332962D01*
X225536756Y-120333500D01*
X225763244Y-120333500D01*
X225767330Y-120332962D01*
X225767331Y-120332962D01*
X225877324Y-120318481D01*
X225877527Y-120320026D01*
X225922473Y-120320026D01*
X225922676Y-120318481D01*
X226032669Y-120332962D01*
X226032670Y-120332962D01*
X226036756Y-120333500D01*
X226263244Y-120333500D01*
X226267330Y-120332962D01*
X226267331Y-120332962D01*
X226377324Y-120318481D01*
X226377527Y-120320026D01*
X226422473Y-120320026D01*
X226422676Y-120318481D01*
X226532669Y-120332962D01*
X226532670Y-120332962D01*
X226536756Y-120333500D01*
X226763244Y-120333500D01*
X226767330Y-120332962D01*
X226767331Y-120332962D01*
X226877324Y-120318481D01*
X226877527Y-120320026D01*
X226922473Y-120320026D01*
X226922676Y-120318481D01*
X227032669Y-120332962D01*
X227032670Y-120332962D01*
X227036756Y-120333500D01*
X227263244Y-120333500D01*
X227267330Y-120332962D01*
X227267331Y-120332962D01*
X227377324Y-120318481D01*
X227377493Y-120319766D01*
X227422573Y-120319765D01*
X227422806Y-120317994D01*
X227482040Y-120325792D01*
X227496222Y-120323581D01*
X227501783Y-120304216D01*
X227539811Y-120244263D01*
X227546184Y-120239033D01*
X227573296Y-120218229D01*
X227639516Y-120192628D01*
X227709065Y-120206892D01*
G37*
%TD.AperFunction*%
%TD*%
M02*
