M48
; DRILL file {KiCad (6.0.7)} date Fri Aug 26 18:50:08 2022
; FORMAT={-:-/ absolute / inch / decimal}
; #@! TF.CreationDate,2022-08-26T18:50:08-04:00
; #@! TF.GenerationSoftware,Kicad,Pcbnew,(6.0.7)
; #@! TF.FileFunction,NonPlated,1,2,NPTH
FMAT,2
INCH
; #@! TA.AperFunction,NonPlated,NPTH,ComponentDrill
T1C0.0689
; #@! TA.AperFunction,NonPlated,NPTH,ComponentDrill
T2C0.1200
; #@! TA.AperFunction,NonPlated,NPTH,ComponentDrill
T3C0.1570
%
G90
G05
T1
X7.4105Y-3.2353
X7.4105Y-3.9853
X7.4105Y-4.7353
X7.4105Y-5.4853
X7.4105Y-6.2353
X7.8105Y-3.2353
X7.8105Y-3.9853
X7.8105Y-4.7353
X7.8105Y-5.4853
X7.8105Y-6.2353
X8.1605Y-3.2353
X8.1605Y-3.9853
X8.1605Y-4.7353
X8.1605Y-5.4853
X8.1605Y-6.2353
X8.5605Y-3.2353
X8.5605Y-3.9853
X8.5605Y-4.7353
X8.5605Y-5.4853
X8.5605Y-6.2353
X9.098Y-3.2353
X9.1917Y-4.7353
X9.1917Y-6.2353
X9.2855Y-3.9853
X9.2855Y-6.2353
X9.3792Y-4.7353
X9.498Y-3.2353
X9.5667Y-5.4853
X9.5917Y-4.7353
X9.5917Y-6.2353
X9.6855Y-3.9853
X9.6855Y-6.2353
X9.7792Y-4.7353
X9.848Y-3.2353
X9.9667Y-5.4853
X10.1292Y-6.2353
X10.223Y-3.9853
X10.223Y-6.2353
X10.248Y-3.2353
X10.4105Y-4.7353
X10.5292Y-6.2353
X10.598Y-3.2353
X10.623Y-3.9853
X10.623Y-6.2353
X10.7855Y-5.4853
X10.8105Y-4.7353
X10.973Y-3.9853
X10.998Y-3.2353
X11.0667Y-6.2353
X11.1605Y-4.7353
X11.1605Y-6.2353
X11.1855Y-5.4853
X11.348Y-3.2353
X11.373Y-3.9853
X11.4667Y-6.2353
X11.5355Y-5.4853
X11.5605Y-4.7353
X11.5605Y-6.2353
X11.723Y-3.9853
X11.748Y-3.2353
X11.9105Y-4.7353
X11.9355Y-5.4853
X12.098Y-3.2353
X12.123Y-3.9853
X12.2855Y-5.4853
X12.3105Y-4.7353
X12.473Y-3.9853
X12.498Y-3.2353
X12.6605Y-4.7353
X12.6855Y-5.4853
X12.848Y-3.2353
X12.873Y-3.9853
X13.0355Y-5.4853
X13.0605Y-4.7353
X13.223Y-3.9853
X13.248Y-3.2353
X13.4105Y-4.7353
X13.4355Y-5.4853
X13.598Y-3.2353
X13.623Y-3.9853
X13.7855Y-5.4853
X13.8105Y-4.7353
X13.8792Y-6.2353
X13.973Y-3.9853
X13.998Y-3.2353
X14.1605Y-4.7353
X14.1855Y-5.4853
X14.2792Y-6.2353
X14.348Y-3.2353
X14.348Y-6.2353
X14.373Y-3.9853
X14.5355Y-5.4853
X14.5605Y-4.7353
X14.723Y-3.9853
X14.748Y-3.2353
X14.748Y-6.2353
X14.9105Y-4.7353
X14.9355Y-5.4853
X15.098Y-3.2353
X15.123Y-3.9853
X15.2855Y-5.4853
X15.3105Y-4.7353
X15.473Y-3.9853
X15.498Y-3.2353
X15.6605Y-4.7353
X15.6855Y-5.4853
X15.848Y-3.2353
X15.873Y-3.9853
X16.0355Y-5.4853
X16.0605Y-4.7353
X16.223Y-3.9853
X16.248Y-3.2353
X16.4105Y-4.7353
X16.4355Y-5.4853
X16.598Y-3.2353
X16.623Y-3.9853
X16.6917Y-6.2353
X16.7855Y-5.4853
X16.8105Y-4.7353
X16.973Y-3.9853
X16.998Y-3.2353
X17.0917Y-6.2353
X17.1605Y-4.7353
X17.1855Y-5.4853
X17.348Y-3.2353
X17.373Y-3.9853
X17.5355Y-5.4853
X17.5355Y-6.2353
X17.5605Y-4.7353
X17.6292Y-6.2353
X17.723Y-3.9853
X17.748Y-3.2353
X17.9105Y-4.7353
X17.9355Y-5.4853
X17.9355Y-6.2353
X18.0292Y-6.2353
X18.098Y-3.2353
X18.123Y-3.9853
X18.3105Y-4.7353
X18.473Y-3.9853
X18.473Y-6.2353
X18.498Y-3.2353
X18.5667Y-5.4853
X18.5667Y-6.2353
X18.848Y-3.2353
X18.873Y-3.9853
X18.873Y-6.2353
X18.9417Y-5.4853
X18.9667Y-5.4853
X18.9667Y-6.2353
X19.1292Y-4.7353
X19.223Y-3.2353
X19.248Y-3.2353
X19.3417Y-5.4853
X19.4105Y-3.9853
X19.4105Y-6.2353
X19.5042Y-6.2353
X19.5292Y-4.7353
X19.598Y-3.2353
X19.598Y-5.4853
X19.623Y-3.2353
X19.8105Y-3.9853
X19.8105Y-6.2353
X19.9042Y-6.2353
X19.998Y-3.2353
X19.998Y-5.4853
T2
X9.298Y-5.2103
X10.2355Y-5.2103
X12.1107Y-6.5103
X12.298Y-6.5103
X16.0477Y-6.5103
X16.798Y-6.5103
X18.673Y-5.2103
X18.8605Y-4.4603
X18.9542Y-2.9603
X19.6105Y-5.2103
X19.798Y-4.4603
X19.8917Y-2.9603
T3
X7.6105Y-3.2353
X7.6105Y-3.9853
X7.6105Y-4.7353
X7.6105Y-5.4853
X7.6105Y-6.2353
X8.3605Y-3.2353
X8.3605Y-3.9853
X8.3605Y-4.7353
X8.3605Y-5.4853
X8.3605Y-6.2353
X9.298Y-3.2353
X9.298Y-5.8103
X9.3917Y-4.7353
X9.3917Y-6.2353
X9.4855Y-3.9853
X9.4855Y-6.2353
X9.5792Y-4.7353
X9.7667Y-5.4853
X10.048Y-3.2353
X10.2355Y-5.8103
X10.3292Y-6.2353
X10.423Y-3.9853
X10.423Y-6.2353
X10.6105Y-4.7353
X10.798Y-3.2353
X10.9855Y-5.4853
X11.173Y-3.9853
X11.2667Y-6.2353
X11.3605Y-4.7353
X11.3605Y-6.2353
X11.548Y-3.2353
X11.7355Y-5.4853
X11.923Y-3.9853
X12.1105Y-4.7353
X12.1107Y-5.9103
X12.298Y-3.2353
X12.298Y-5.9103
X12.4855Y-5.4853
X12.673Y-3.9853
X12.8605Y-4.7353
X13.048Y-3.2353
X13.2355Y-5.4853
X13.423Y-3.9853
X13.6105Y-4.7353
X13.798Y-3.2353
X13.9855Y-5.4853
X14.0792Y-6.2353
X14.173Y-3.9853
X14.3605Y-4.7353
X14.548Y-3.2353
X14.548Y-6.2353
X14.7355Y-5.4853
X14.923Y-3.9853
X15.1105Y-4.7353
X15.298Y-3.2353
X15.4855Y-5.4853
X15.673Y-3.9853
X15.8605Y-4.7353
X16.0477Y-5.9103
X16.048Y-3.2353
X16.2355Y-5.4853
X16.423Y-3.9853
X16.6105Y-4.7353
X16.798Y-3.2353
X16.798Y-5.9103
X16.8917Y-6.2353
X16.9855Y-5.4853
X17.173Y-3.9853
X17.3605Y-4.7353
X17.548Y-3.2353
X17.7355Y-5.4853
X17.7355Y-6.2353
X17.8292Y-6.2353
X17.923Y-3.9853
X18.1105Y-4.7353
X18.298Y-3.2353
X18.673Y-3.9853
X18.673Y-5.8103
X18.673Y-6.2353
X18.7667Y-5.4853
X18.7667Y-6.2353
X18.8605Y-5.0603
X18.9542Y-3.5603
X19.048Y-3.2353
X19.1417Y-5.4853
X19.3292Y-4.7353
X19.423Y-3.2353
X19.6105Y-3.9853
X19.6105Y-5.8103
X19.6105Y-6.2353
X19.7042Y-6.2353
X19.798Y-3.2353
X19.798Y-5.0603
X19.798Y-5.4853
X19.8917Y-3.5603
T0
M30
