%TF.GenerationSoftware,KiCad,Pcbnew,(6.0.7)*%
%TF.CreationDate,2022-08-26T18:50:00-04:00*%
%TF.ProjectId,thocc-master,74686f63-632d-46d6-9173-7465722e6b69,rev?*%
%TF.SameCoordinates,Original*%
%TF.FileFunction,Copper,L1,Top*%
%TF.FilePolarity,Positive*%
%FSLAX46Y46*%
G04 Gerber Fmt 4.6, Leading zero omitted, Abs format (unit mm)*
G04 Created by KiCad (PCBNEW (6.0.7)) date 2022-08-26 18:50:00*
%MOMM*%
%LPD*%
G01*
G04 APERTURE LIST*
%TA.AperFunction,ComponentPad*%
%ADD10C,2.250000*%
%TD*%
%TA.AperFunction,ComponentPad*%
%ADD11R,1.350000X1.350000*%
%TD*%
%TA.AperFunction,ComponentPad*%
%ADD12O,1.350000X1.350000*%
%TD*%
%TA.AperFunction,ViaPad*%
%ADD13C,0.800000*%
%TD*%
%TA.AperFunction,Conductor*%
%ADD14C,0.250000*%
%TD*%
G04 APERTURE END LIST*
D10*
%TO.P,MX53,1,COL*%
%TO.N,Col2*%
X244264500Y-136787000D03*
%TO.P,MX53,2,ROW*%
%TO.N,Net-(D53-Pad2)*%
X250614500Y-134247000D03*
%TD*%
%TO.P,MX76,1,COL*%
%TO.N,Col7*%
X365708250Y-155837000D03*
%TO.P,MX76,2,ROW*%
%TO.N,Net-(D75-Pad2)*%
X372058250Y-153297000D03*
%TD*%
%TO.P,MX75,1,COL*%
%TO.N,Col7*%
X353802000Y-155837000D03*
%TO.P,MX75,2,ROW*%
%TO.N,Net-(D75-Pad2)*%
X360152000Y-153297000D03*
%TD*%
%TO.P,MX50,1,COL*%
%TO.N,Col15*%
X487152000Y-117737000D03*
%TO.P,MX50,2,ROW*%
%TO.N,Net-(D50-Pad2)*%
X493502000Y-115197000D03*
%TD*%
%TO.P,MX17,1,COL*%
%TO.N,Col15*%
X489533250Y-79637000D03*
%TO.P,MX17,2,ROW*%
%TO.N,Net-(D16-Pad2)*%
X495883250Y-77097000D03*
%TD*%
%TO.P,MX65,1,COL*%
%TO.N,Col14*%
X482389500Y-136787000D03*
%TO.P,MX65,2,ROW*%
%TO.N,Net-(D64-Pad2)*%
X488739500Y-134247000D03*
%TD*%
%TO.P,MX30,1,COL*%
%TO.N,Col11*%
X413333250Y-98687000D03*
%TO.P,MX30,2,ROW*%
%TO.N,Net-(D30-Pad2)*%
X419683250Y-96147000D03*
%TD*%
%TO.P,MX42,1,COL*%
%TO.N,Col6*%
X322845750Y-117737000D03*
%TO.P,MX42,2,ROW*%
%TO.N,Net-(D42-Pad2)*%
X329195750Y-115197000D03*
%TD*%
%TO.P,MX44,1,COL*%
%TO.N,Col8*%
X360945750Y-117737000D03*
%TO.P,MX44,2,ROW*%
%TO.N,Net-(D44-Pad2)*%
X367295750Y-115197000D03*
%TD*%
%TO.P,MX78,1,COL*%
%TO.N,Col11*%
X446670750Y-155837000D03*
%TO.P,MX78,2,ROW*%
%TO.N,Net-(D78-Pad2)*%
X453020750Y-153297000D03*
%TD*%
%TO.P,MX70,1,COL*%
%TO.N,Col2*%
X237120750Y-155837000D03*
%TO.P,MX70,2,ROW*%
%TO.N,Net-(D69-Pad2)*%
X243470750Y-153297000D03*
%TD*%
%TO.P,MX41,1,COL*%
%TO.N,Col5*%
X303795750Y-117737000D03*
%TO.P,MX41,2,ROW*%
%TO.N,Net-(D41-Pad2)*%
X310145750Y-115197000D03*
%TD*%
%TO.P,MX34,1,COL*%
%TO.N,Col15*%
X494295750Y-98687000D03*
%TO.P,MX34,2,ROW*%
%TO.N,Net-(D34-Pad2)*%
X500645750Y-96147000D03*
%TD*%
%TO.P,MX11,1,COL*%
%TO.N,Col10*%
X384758250Y-79637000D03*
%TO.P,MX11,2,ROW*%
%TO.N,Net-(D11-Pad2)*%
X391108250Y-77097000D03*
%TD*%
%TO.P,MX72,1,COL*%
%TO.N,Col3*%
X260933250Y-155837000D03*
%TO.P,MX72,2,ROW*%
%TO.N,Net-(D71-Pad2)*%
X267283250Y-153297000D03*
%TD*%
%TO.P,MX43,1,COL*%
%TO.N,Col7*%
X341895750Y-117737000D03*
%TO.P,MX43,2,ROW*%
%TO.N,Net-(D43-Pad2)*%
X348245750Y-115197000D03*
%TD*%
%TO.P,MX71,1,COL*%
%TO.N,Col3*%
X258552000Y-155837000D03*
%TO.P,MX71,2,ROW*%
%TO.N,Net-(D71-Pad2)*%
X264902000Y-153297000D03*
%TD*%
%TO.P,MX52,1,COL*%
%TO.N,Col1*%
X208545750Y-136787000D03*
%TO.P,MX52,2,ROW*%
%TO.N,Net-(D52-Pad2)*%
X214895750Y-134247000D03*
%TD*%
%TO.P,MX57,1,COL*%
%TO.N,Col6*%
X332370750Y-136787000D03*
%TO.P,MX57,2,ROW*%
%TO.N,Net-(D57-Pad2)*%
X338720750Y-134247000D03*
%TD*%
%TO.P,MX18,1,COL*%
%TO.N,Col15*%
X499058250Y-79637000D03*
%TO.P,MX18,2,ROW*%
%TO.N,Net-(D17-Pad2)*%
X505408250Y-77097000D03*
%TD*%
%TO.P,MX40,1,COL*%
%TO.N,Col4*%
X284745750Y-117737000D03*
%TO.P,MX40,2,ROW*%
%TO.N,Net-(D40-Pad2)*%
X291095750Y-115197000D03*
%TD*%
%TO.P,MX15,1,COL*%
%TO.N,Col14*%
X460958250Y-79637000D03*
%TO.P,MX15,2,ROW*%
%TO.N,Net-(D15-Pad2)*%
X467308250Y-77097000D03*
%TD*%
%TO.P,MX26,1,COL*%
%TO.N,Col7*%
X337133250Y-98687000D03*
%TO.P,MX26,2,ROW*%
%TO.N,Net-(D26-Pad2)*%
X343483250Y-96147000D03*
%TD*%
%TO.P,MX39,1,COL*%
%TO.N,Col3*%
X265695750Y-117737000D03*
%TO.P,MX39,2,ROW*%
%TO.N,Net-(D39-Pad2)*%
X272045750Y-115197000D03*
%TD*%
%TO.P,MX7,1,COL*%
%TO.N,Col6*%
X308558250Y-79637000D03*
%TO.P,MX7,2,ROW*%
%TO.N,Net-(D7-Pad2)*%
X314908250Y-77097000D03*
%TD*%
%TO.P,MX54,1,COL*%
%TO.N,Col3*%
X275220750Y-136787000D03*
%TO.P,MX54,2,ROW*%
%TO.N,Net-(D54-Pad2)*%
X281570750Y-134247000D03*
%TD*%
%TO.P,MX3,1,COL*%
%TO.N,Col2*%
X232358250Y-79637000D03*
%TO.P,MX3,2,ROW*%
%TO.N,Net-(D3-Pad2)*%
X238708250Y-77097000D03*
%TD*%
%TO.P,MX20,1,COL*%
%TO.N,Col1*%
X208545750Y-98687000D03*
%TO.P,MX20,2,ROW*%
%TO.N,Net-(D20-Pad2)*%
X214895750Y-96147000D03*
%TD*%
%TO.P,MX51,1,COL*%
%TO.N,Col0*%
X189495750Y-136787000D03*
%TO.P,MX51,2,ROW*%
%TO.N,Net-(D51-Pad2)*%
X195845750Y-134247000D03*
%TD*%
%TO.P,MX63,1,COL*%
%TO.N,Col12*%
X446670750Y-136787000D03*
%TO.P,MX63,2,ROW*%
%TO.N,Net-(D63-Pad2)*%
X453020750Y-134247000D03*
%TD*%
%TO.P,MX61,1,COL*%
%TO.N,Col10*%
X408570750Y-136787000D03*
%TO.P,MX61,2,ROW*%
%TO.N,Net-(D61-Pad2)*%
X414920750Y-134247000D03*
%TD*%
%TO.P,MX82,1,COL*%
%TO.N,Col14*%
X494295750Y-155837000D03*
%TO.P,MX82,2,ROW*%
%TO.N,Net-(D82-Pad2)*%
X500645750Y-153297000D03*
%TD*%
%TO.P,MX14,1,COL*%
%TO.N,Col13*%
X441908250Y-79637000D03*
%TO.P,MX14,2,ROW*%
%TO.N,Net-(D14-Pad2)*%
X448258250Y-77097000D03*
%TD*%
%TO.P,MX49,1,COL*%
%TO.N,Col13*%
X456195750Y-117737000D03*
%TO.P,MX49,2,ROW*%
%TO.N,Net-(D49-Pad2)*%
X462545750Y-115197000D03*
%TD*%
%TO.P,MX2,1,COL*%
%TO.N,Col1*%
X208545750Y-79637000D03*
%TO.P,MX2,2,ROW*%
%TO.N,Net-(D2-Pad2)*%
X214895750Y-77097000D03*
%TD*%
%TO.P,MX36,1,COL*%
%TO.N,Col1*%
X208545750Y-117737000D03*
%TO.P,MX36,2,ROW*%
%TO.N,Net-(D36-Pad2)*%
X214895750Y-115197000D03*
%TD*%
%TO.P,MX64,1,COL*%
%TO.N,Col14*%
X472864500Y-136787000D03*
%TO.P,MX64,2,ROW*%
%TO.N,Net-(D64-Pad2)*%
X479214500Y-134247000D03*
%TD*%
%TO.P,MX47,1,COL*%
%TO.N,Col11*%
X418095750Y-117737000D03*
%TO.P,MX47,2,ROW*%
%TO.N,Net-(D47-Pad2)*%
X424445750Y-115197000D03*
%TD*%
%TO.P,MX56,1,COL*%
%TO.N,Col5*%
X313320750Y-136787000D03*
%TO.P,MX56,2,ROW*%
%TO.N,Net-(D56-Pad2)*%
X319670750Y-134247000D03*
%TD*%
%TO.P,MX83,1,COL*%
%TO.N,Col14*%
X496677000Y-155837000D03*
%TO.P,MX83,2,ROW*%
%TO.N,Net-(D82-Pad2)*%
X503027000Y-153297000D03*
%TD*%
%TO.P,MX8,1,COL*%
%TO.N,Col7*%
X327608250Y-79637000D03*
%TO.P,MX8,2,ROW*%
%TO.N,Net-(D8-Pad2)*%
X333958250Y-77097000D03*
%TD*%
%TO.P,MX13,1,COL*%
%TO.N,Col12*%
X422858250Y-79637000D03*
%TO.P,MX13,2,ROW*%
%TO.N,Net-(D13-Pad2)*%
X429208250Y-77097000D03*
%TD*%
%TO.P,MX80,1,COL*%
%TO.N,Col12*%
X470483250Y-155837000D03*
%TO.P,MX80,2,ROW*%
%TO.N,Net-(D80-Pad2)*%
X476833250Y-153297000D03*
%TD*%
%TO.P,MX1,1,COL*%
%TO.N,Col0*%
X189495750Y-79637000D03*
%TO.P,MX1,2,ROW*%
%TO.N,Net-(D1-Pad2)*%
X195845750Y-77097000D03*
%TD*%
%TO.P,MX62,1,COL*%
%TO.N,Col11*%
X427620750Y-136787000D03*
%TO.P,MX62,2,ROW*%
%TO.N,Net-(D62-Pad2)*%
X433970750Y-134247000D03*
%TD*%
%TO.P,MX33,1,COL*%
%TO.N,Col14*%
X470483250Y-98687000D03*
%TO.P,MX33,2,ROW*%
%TO.N,Net-(D33-Pad2)*%
X476833250Y-96147000D03*
%TD*%
%TO.P,MX58,1,COL*%
%TO.N,Col7*%
X351420750Y-136787000D03*
%TO.P,MX58,2,ROW*%
%TO.N,Net-(D58-Pad2)*%
X357770750Y-134247000D03*
%TD*%
%TO.P,MX31,1,COL*%
%TO.N,Col12*%
X432383250Y-98687000D03*
%TO.P,MX31,2,ROW*%
%TO.N,Net-(D31-Pad2)*%
X438733250Y-96147000D03*
%TD*%
%TO.P,MX29,1,COL*%
%TO.N,Col10*%
X394283250Y-98687000D03*
%TO.P,MX29,2,ROW*%
%TO.N,Net-(D29-Pad2)*%
X400633250Y-96147000D03*
%TD*%
%TO.P,MX6,1,COL*%
%TO.N,Col5*%
X289508250Y-79637000D03*
%TO.P,MX6,2,ROW*%
%TO.N,Net-(D6-Pad2)*%
X295858250Y-77097000D03*
%TD*%
%TO.P,MX35,1,COL*%
%TO.N,Col0*%
X189495750Y-117737000D03*
%TO.P,MX35,2,ROW*%
%TO.N,Net-(D35-Pad2)*%
X195845750Y-115197000D03*
%TD*%
%TO.P,MX48,1,COL*%
%TO.N,Col12*%
X437145750Y-117737000D03*
%TO.P,MX48,2,ROW*%
%TO.N,Net-(D48-Pad2)*%
X443495750Y-115197000D03*
%TD*%
%TO.P,MX79,1,COL*%
%TO.N,Col11*%
X449052000Y-155837000D03*
%TO.P,MX79,2,ROW*%
%TO.N,Net-(D78-Pad2)*%
X455402000Y-153297000D03*
%TD*%
%TO.P,MX66,1,COL*%
%TO.N,Col15*%
X499058250Y-136787000D03*
%TO.P,MX66,2,ROW*%
%TO.N,Net-(D66-Pad2)*%
X505408250Y-134247000D03*
%TD*%
%TO.P,MX12,1,COL*%
%TO.N,Col11*%
X403808250Y-79637000D03*
%TO.P,MX12,2,ROW*%
%TO.N,Net-(D12-Pad2)*%
X410158250Y-77097000D03*
%TD*%
%TO.P,MX28,1,COL*%
%TO.N,Col9*%
X375233250Y-98687000D03*
%TO.P,MX28,2,ROW*%
%TO.N,Net-(D28-Pad2)*%
X381583250Y-96147000D03*
%TD*%
%TO.P,MX37,1,COL*%
%TO.N,Col2*%
X234739500Y-117737000D03*
%TO.P,MX37,2,ROW*%
%TO.N,Net-(D37-Pad2)*%
X241089500Y-115197000D03*
%TD*%
%TO.P,MX59,1,COL*%
%TO.N,Col8*%
X370470750Y-136787000D03*
%TO.P,MX59,2,ROW*%
%TO.N,Net-(D59-Pad2)*%
X376820750Y-134247000D03*
%TD*%
%TO.P,MX81,1,COL*%
%TO.N,Col12*%
X472864500Y-155837000D03*
%TO.P,MX81,2,ROW*%
%TO.N,Net-(D80-Pad2)*%
X479214500Y-153297000D03*
%TD*%
%TO.P,MX45,1,COL*%
%TO.N,Col9*%
X379995750Y-117737000D03*
%TO.P,MX45,2,ROW*%
%TO.N,Net-(D45-Pad2)*%
X386345750Y-115197000D03*
%TD*%
%TO.P,MX55,1,COL*%
%TO.N,Col4*%
X294270750Y-136787000D03*
%TO.P,MX55,2,ROW*%
%TO.N,Net-(D55-Pad2)*%
X300620750Y-134247000D03*
%TD*%
%TO.P,MX25,1,COL*%
%TO.N,Col6*%
X318083250Y-98687000D03*
%TO.P,MX25,2,ROW*%
%TO.N,Net-(D25-Pad2)*%
X324433250Y-96147000D03*
%TD*%
%TO.P,MX4,1,COL*%
%TO.N,Col3*%
X251408250Y-79637000D03*
%TO.P,MX4,2,ROW*%
%TO.N,Net-(D4-Pad2)*%
X257758250Y-77097000D03*
%TD*%
%TO.P,MX69,1,COL*%
%TO.N,Col2*%
X234739500Y-155837000D03*
%TO.P,MX69,2,ROW*%
%TO.N,Net-(D69-Pad2)*%
X241089500Y-153297000D03*
%TD*%
%TO.P,MX32,1,COL*%
%TO.N,Col13*%
X451433250Y-98687000D03*
%TO.P,MX32,2,ROW*%
%TO.N,Net-(D32-Pad2)*%
X457783250Y-96147000D03*
%TD*%
%TO.P,MX9,1,COL*%
%TO.N,Col8*%
X346658250Y-79637000D03*
%TO.P,MX9,2,ROW*%
%TO.N,Net-(D9-Pad2)*%
X353008250Y-77097000D03*
%TD*%
%TO.P,MX73,1,COL*%
%TO.N,Col4*%
X282364500Y-155837000D03*
%TO.P,MX73,2,ROW*%
%TO.N,Net-(D73-Pad2)*%
X288714500Y-153297000D03*
%TD*%
%TO.P,MX27,1,COL*%
%TO.N,Col8*%
X356183250Y-98687000D03*
%TO.P,MX27,2,ROW*%
%TO.N,Net-(D27-Pad2)*%
X362533250Y-96147000D03*
%TD*%
%TO.P,MX74,1,COL*%
%TO.N,Col4*%
X284745750Y-155837000D03*
%TO.P,MX74,2,ROW*%
%TO.N,Net-(D73-Pad2)*%
X291095750Y-153297000D03*
%TD*%
%TO.P,MX46,1,COL*%
%TO.N,Col10*%
X399045750Y-117737000D03*
%TO.P,MX46,2,ROW*%
%TO.N,Net-(D46-Pad2)*%
X405395750Y-115197000D03*
%TD*%
%TO.P,MX19,1,COL*%
%TO.N,Col0*%
X189495750Y-98687000D03*
%TO.P,MX19,2,ROW*%
%TO.N,Net-(D19-Pad2)*%
X195845750Y-96147000D03*
%TD*%
%TO.P,MX24,1,COL*%
%TO.N,Col5*%
X299033250Y-98687000D03*
%TO.P,MX24,2,ROW*%
%TO.N,Net-(D24-Pad2)*%
X305383250Y-96147000D03*
%TD*%
%TO.P,MX23,1,COL*%
%TO.N,Col4*%
X279983250Y-98687000D03*
%TO.P,MX23,2,ROW*%
%TO.N,Net-(D23-Pad2)*%
X286333250Y-96147000D03*
%TD*%
%TO.P,MX77,1,COL*%
%TO.N,Col10*%
X425239500Y-155837000D03*
%TO.P,MX77,2,ROW*%
%TO.N,Net-(D77-Pad2)*%
X431589500Y-153297000D03*
%TD*%
%TO.P,MX10,1,COL*%
%TO.N,Col9*%
X365708250Y-79637000D03*
%TO.P,MX10,2,ROW*%
%TO.N,Net-(D10-Pad2)*%
X372058250Y-77097000D03*
%TD*%
%TO.P,MX5,1,COL*%
%TO.N,Col4*%
X270458250Y-79637000D03*
%TO.P,MX5,2,ROW*%
%TO.N,Net-(D5-Pad2)*%
X276808250Y-77097000D03*
%TD*%
%TO.P,MX21,1,COL*%
%TO.N,Col2*%
X237120750Y-98687000D03*
%TO.P,MX21,2,ROW*%
%TO.N,Net-(D21-Pad2)*%
X243470750Y-96147000D03*
%TD*%
%TO.P,MX67,1,COL*%
%TO.N,Col0*%
X189495750Y-155837000D03*
%TO.P,MX67,2,ROW*%
%TO.N,Net-(D67-Pad2)*%
X195845750Y-153297000D03*
%TD*%
%TO.P,MX38,1,COL*%
%TO.N,Col2*%
X239502000Y-117737000D03*
%TO.P,MX38,2,ROW*%
%TO.N,Net-(D37-Pad2)*%
X245852000Y-115197000D03*
%TD*%
%TO.P,MX60,1,COL*%
%TO.N,Col9*%
X389520750Y-136787000D03*
%TO.P,MX60,2,ROW*%
%TO.N,Net-(D60-Pad2)*%
X395870750Y-134247000D03*
%TD*%
%TO.P,MX68,1,COL*%
%TO.N,Col1*%
X208545750Y-155837000D03*
%TO.P,MX68,2,ROW*%
%TO.N,Net-(D68-Pad2)*%
X214895750Y-153297000D03*
%TD*%
%TO.P,MX22,1,COL*%
%TO.N,Col3*%
X260933250Y-98687000D03*
%TO.P,MX22,2,ROW*%
%TO.N,Net-(D22-Pad2)*%
X267283250Y-96147000D03*
%TD*%
%TO.P,MX16,1,COL*%
%TO.N,Col14*%
X480008250Y-79637000D03*
%TO.P,MX16,2,ROW*%
%TO.N,Net-(D16-Pad2)*%
X486358250Y-77097000D03*
%TD*%
D11*
%TO.P,J2,1,Pin_1*%
%TO.N,Net-(J2-Pad1)*%
X230550000Y-145950000D03*
D12*
%TO.P,J2,2,Pin_2*%
%TO.N,GND*%
X230550000Y-147950000D03*
%TO.P,J2,3,Pin_3*%
%TO.N,Net-(J2-Pad3)*%
X228550000Y-145950000D03*
%TO.P,J2,4,Pin_4*%
%TO.N,+3.3V*%
X228550000Y-147950000D03*
%TO.P,J2,5,Pin_5*%
%TO.N,Net-(J2-Pad5)*%
X226550000Y-145950000D03*
%TO.P,J2,6,Pin_6*%
%TO.N,Net-(J2-Pad6)*%
X226550000Y-147950000D03*
%TO.P,J2,7,Pin_7*%
%TO.N,GND*%
X224550000Y-145950000D03*
%TO.P,J2,8,Pin_8*%
%TO.N,unconnected-(J2-Pad8)*%
X224550000Y-147950000D03*
%TO.P,J2,9,Pin_9*%
%TO.N,+3.3V*%
X222550000Y-145950000D03*
%TO.P,J2,10,Pin_10*%
%TO.N,GND*%
X222550000Y-147950000D03*
%TD*%
D13*
%TO.N,+3.3V*%
X231800000Y-131775000D03*
X234075000Y-129325000D03*
X218950000Y-115100000D03*
X231750000Y-117550000D03*
X221100000Y-115250000D03*
X231575000Y-114875000D03*
X221550000Y-133300000D03*
%TO.N,GND*%
X224875500Y-135574500D03*
%TO.N,Row0*%
X205915373Y-121149704D03*
X201550000Y-86450000D03*
%TO.N,Row2*%
X228148649Y-137098647D03*
X238562500Y-123325500D03*
%TO.N,Row3*%
X219575500Y-140650000D03*
X221400000Y-128150000D03*
%TO.N,Row4*%
X220637299Y-129937299D03*
X220300000Y-159048286D03*
%TO.N,Col0*%
X207400000Y-125000000D03*
%TO.N,Col1*%
X208545750Y-124279750D03*
%TO.N,Col2*%
X247141999Y-122424500D03*
X230156049Y-118106049D03*
X230950000Y-120700000D03*
%TO.N,Col13*%
X456000000Y-126200000D03*
%TO.N,Col15*%
X487152000Y-124048000D03*
%TO.N,Net-(J2-Pad1)*%
X230050000Y-119150000D03*
X235321618Y-119360283D03*
X227500000Y-116600000D03*
%TO.N,Net-(J2-Pad3)*%
X234700500Y-124275500D03*
%TO.N,Net-(J2-Pad5)*%
X227030498Y-135530498D03*
%TO.N,Net-(J2-Pad6)*%
X231950000Y-119650000D03*
%TD*%
D14*
%TO.N,Net-(J2-Pad1)*%
X230550000Y-145500000D02*
X230550000Y-145950000D01*
X229581802Y-144531802D02*
X230550000Y-145500000D01*
X227768198Y-144531802D02*
X229581802Y-144531802D01*
X227400000Y-136822697D02*
X227400000Y-144163604D01*
X228905403Y-135317294D02*
X227400000Y-136822697D01*
X229582706Y-135317294D02*
X228905403Y-135317294D01*
X231500000Y-133400000D02*
X229582706Y-135317294D01*
X233450000Y-133400000D02*
X231500000Y-133400000D01*
X235050000Y-135000000D02*
X233450000Y-133400000D01*
X236180599Y-125530599D02*
X238950000Y-128300000D01*
X238950000Y-128300000D02*
X238950000Y-133313604D01*
X237263604Y-135000000D02*
X235050000Y-135000000D01*
X236180599Y-120219264D02*
X236180599Y-125530599D01*
X227400000Y-144163604D02*
X227768198Y-144531802D01*
X238950000Y-133313604D02*
X237263604Y-135000000D01*
X235321618Y-119360283D02*
X236180599Y-120219264D01*
%TO.N,Net-(J2-Pad3)*%
X226950000Y-144350000D02*
X228550000Y-145950000D01*
%TO.N,GND*%
X225150000Y-144100000D02*
X225150000Y-135849000D01*
X225150000Y-135849000D02*
X224875500Y-135574500D01*
X221200000Y-146600000D02*
X221200000Y-144800000D01*
X221900000Y-144100000D02*
X225150000Y-144100000D01*
X222550000Y-147950000D02*
X221200000Y-146600000D01*
X221200000Y-144800000D02*
X221900000Y-144100000D01*
%TO.N,+3.3V*%
X225300000Y-144600000D02*
X223900000Y-144600000D01*
X225600000Y-144300000D02*
X225300000Y-144600000D01*
X225600000Y-135300000D02*
X225600000Y-144300000D01*
X223900000Y-144600000D02*
X222550000Y-145950000D01*
X226050000Y-134850000D02*
X225600000Y-135300000D01*
%TO.N,Net-(J2-Pad6)*%
X225550000Y-146950000D02*
X226550000Y-147950000D01*
X225550000Y-145000000D02*
X225550000Y-146950000D01*
X226050000Y-144500000D02*
X225550000Y-145000000D01*
X226050000Y-135486396D02*
X226050000Y-144500000D01*
X227119102Y-134417294D02*
X226050000Y-135486396D01*
X229169102Y-134417294D02*
X227119102Y-134417294D01*
X231086396Y-132500000D02*
X229169102Y-134417294D01*
X234800000Y-131000000D02*
X233300000Y-132500000D01*
X233300000Y-132500000D02*
X231086396Y-132500000D01*
X234800000Y-129024695D02*
X234800000Y-131000000D01*
X234525000Y-128749695D02*
X234800000Y-129024695D01*
X234525000Y-125825000D02*
X234525000Y-128749695D01*
X232219499Y-123519499D02*
X234525000Y-125825000D01*
X232219499Y-119919499D02*
X232219499Y-123519499D01*
X231950000Y-119650000D02*
X232219499Y-119919499D01*
%TO.N,Net-(J2-Pad5)*%
X226500000Y-145900000D02*
X226550000Y-145950000D01*
X226500000Y-135672792D02*
X226500000Y-145900000D01*
X226642294Y-135530498D02*
X226500000Y-135672792D01*
X227030498Y-135530498D02*
X226642294Y-135530498D01*
%TO.N,Net-(J2-Pad3)*%
X226950000Y-136636301D02*
X226950000Y-144350000D01*
X228719007Y-134867294D02*
X226950000Y-136636301D01*
X229355498Y-134867294D02*
X228719007Y-134867294D01*
X231272792Y-132950000D02*
X229355498Y-134867294D01*
X235236396Y-134550000D02*
X233636396Y-132950000D01*
X237050000Y-134550000D02*
X235236396Y-134550000D01*
X237213604Y-127200000D02*
X238500000Y-128486396D01*
X233636396Y-132950000D02*
X231272792Y-132950000D01*
X235700000Y-127200000D02*
X237213604Y-127200000D01*
X235150000Y-126650000D02*
X235700000Y-127200000D01*
X235150000Y-124725000D02*
X235150000Y-126650000D01*
X238500000Y-128486396D02*
X238500000Y-133100000D01*
X238500000Y-133100000D02*
X237050000Y-134550000D01*
X234700500Y-124275500D02*
X235150000Y-124725000D01*
%TO.N,Row2*%
X238562500Y-127262500D02*
X238562500Y-123325500D01*
X239400000Y-128100000D02*
X238562500Y-127262500D01*
X239400000Y-133500000D02*
X239400000Y-128100000D01*
X237450000Y-135450000D02*
X239400000Y-133500000D01*
X231686396Y-133850000D02*
X233200000Y-133850000D01*
X229731850Y-135804546D02*
X231686396Y-133850000D01*
X229054547Y-135804546D02*
X229731850Y-135804546D01*
X228148649Y-136710444D02*
X229054547Y-135804546D01*
X234800000Y-135450000D02*
X237450000Y-135450000D01*
X228148649Y-137098647D02*
X228148649Y-136710444D01*
X233200000Y-133850000D02*
X234800000Y-135450000D01*
%TO.N,+3.3V*%
X234075000Y-129325000D02*
X234075000Y-131088604D01*
X231225000Y-119949695D02*
X231750000Y-120474695D01*
X231750000Y-123750000D02*
X234075000Y-126075000D01*
X232200000Y-115500000D02*
X231575000Y-114875000D01*
X234075000Y-126075000D02*
X234075000Y-127000000D01*
X231750000Y-120474695D02*
X231750000Y-123750000D01*
X233369302Y-131794302D02*
X231819302Y-131794302D01*
X232200000Y-117100000D02*
X232200000Y-115500000D01*
X231750000Y-117550000D02*
X232200000Y-117100000D01*
X226932706Y-133967294D02*
X226050000Y-134850000D01*
X231750000Y-117550000D02*
X231225000Y-118075000D01*
X226160000Y-114200000D02*
X229200000Y-114200000D01*
X219850000Y-115250000D02*
X219100000Y-115250000D01*
X221550000Y-134250000D02*
X222150000Y-134850000D01*
X221550000Y-133300000D02*
X221550000Y-134250000D01*
X225110000Y-115250000D02*
X226160000Y-114200000D01*
X228982706Y-133967294D02*
X226932706Y-133967294D01*
X222150000Y-134850000D02*
X226050000Y-134850000D01*
X221100000Y-115250000D02*
X225110000Y-115250000D01*
X219100000Y-115250000D02*
X218950000Y-115100000D01*
X234075000Y-131088604D02*
X233369302Y-131794302D01*
X231575000Y-114875000D02*
X230900000Y-114200000D01*
X231225000Y-118075000D02*
X231225000Y-119949695D01*
X221100000Y-115250000D02*
X219850000Y-115250000D01*
X231800000Y-131775000D02*
X231175000Y-131775000D01*
X230900000Y-114200000D02*
X229200000Y-114200000D01*
X231819302Y-131794302D02*
X231800000Y-131775000D01*
X231175000Y-131775000D02*
X228982706Y-133967294D01*
X234075000Y-127000000D02*
X234075000Y-129325000D01*
%TO.N,Row0*%
X203925000Y-117525000D02*
X205850000Y-119450000D01*
X201550000Y-103750000D02*
X203925000Y-106125000D01*
X205915373Y-119515373D02*
X205915373Y-121149704D01*
X205850000Y-119450000D02*
X205915373Y-119515373D01*
X203925000Y-106125000D02*
X203925000Y-117525000D01*
X201550000Y-86450000D02*
X201550000Y-103750000D01*
%TO.N,Row3*%
X221400000Y-128150000D02*
X219575500Y-129974500D01*
X219575500Y-140650000D02*
X219575500Y-131124500D01*
X219575500Y-129974500D02*
X219575500Y-131124500D01*
%TO.N,Row4*%
X220300000Y-131463586D02*
X220300000Y-130274598D01*
X220300000Y-131463586D02*
X220300000Y-159048286D01*
X220300000Y-130274598D02*
X220637299Y-129937299D01*
%TO.N,Col0*%
X189495750Y-117737000D02*
X189495750Y-125004250D01*
X189495750Y-136787000D02*
X189495750Y-155837000D01*
X189495750Y-125004250D02*
X207395750Y-125004250D01*
X189495750Y-79637000D02*
X189495750Y-98687000D01*
X189495750Y-98687000D02*
X189495750Y-117737000D01*
X207395750Y-125004250D02*
X207400000Y-125000000D01*
X189495750Y-125004250D02*
X189495750Y-136787000D01*
%TO.N,Col1*%
X208545750Y-136787000D02*
X208545750Y-155837000D01*
X208545750Y-98687000D02*
X208545750Y-117737000D01*
X208545750Y-117737000D02*
X208545750Y-136787000D01*
X208545750Y-79637000D02*
X208545750Y-98687000D01*
%TO.N,Col2*%
X233000000Y-94566250D02*
X237120750Y-98687000D01*
X237120750Y-115355750D02*
X234739500Y-117737000D01*
X237120750Y-98687000D02*
X237120750Y-115355750D01*
X230950000Y-120700000D02*
X230775000Y-120525000D01*
X247141999Y-122424500D02*
X247141999Y-133909501D01*
X230775000Y-119000000D02*
X230775000Y-118725000D01*
X244264500Y-146312000D02*
X234739500Y-155837000D01*
X230775000Y-120525000D02*
X230775000Y-119000000D01*
X244264500Y-136787000D02*
X244264500Y-146312000D01*
X230775000Y-118725000D02*
X230156049Y-118106049D01*
X233000000Y-80278750D02*
X233000000Y-94566250D01*
X232358250Y-79637000D02*
X233000000Y-80278750D01*
X247141999Y-133909501D02*
X244264500Y-136787000D01*
%TO.N,Col3*%
X266400000Y-127966250D02*
X275220750Y-136787000D01*
X265695750Y-117737000D02*
X266400000Y-118441250D01*
X261600000Y-99353750D02*
X261600000Y-113641250D01*
X275220750Y-136787000D02*
X275220750Y-153679250D01*
X252000000Y-89753750D02*
X260933250Y-98687000D01*
X275220750Y-153679250D02*
X273063000Y-155837000D01*
X252000000Y-80228750D02*
X252000000Y-89753750D01*
X266400000Y-118441250D02*
X266400000Y-127966250D01*
X260933250Y-98687000D02*
X261600000Y-99353750D01*
X261600000Y-113641250D02*
X265695750Y-117737000D01*
X251408250Y-79637000D02*
X252000000Y-80228750D01*
X273063000Y-155837000D02*
X260933250Y-155837000D01*
%TO.N,Col4*%
X271000000Y-80178750D02*
X271000000Y-89703750D01*
X280600000Y-99303750D02*
X280600000Y-113591250D01*
X285400000Y-118391250D02*
X285400000Y-127916250D01*
X284745750Y-117737000D02*
X285400000Y-118391250D01*
X270458250Y-79637000D02*
X271000000Y-80178750D01*
X294270750Y-136787000D02*
X294270750Y-153529250D01*
X291963000Y-155837000D02*
X284745750Y-155837000D01*
X294270750Y-153529250D02*
X291963000Y-155837000D01*
X279983250Y-98687000D02*
X280600000Y-99303750D01*
X280600000Y-113591250D02*
X284745750Y-117737000D01*
X271000000Y-89703750D02*
X279983250Y-98687000D01*
X285400000Y-127916250D02*
X294270750Y-136787000D01*
%TO.N,Col5*%
X289508250Y-79637000D02*
X290200000Y-80328750D01*
X299800000Y-99453750D02*
X299800000Y-113741250D01*
X304400000Y-118341250D02*
X304400000Y-127866250D01*
X299800000Y-113741250D02*
X303795750Y-117737000D01*
X304400000Y-127866250D02*
X313320750Y-136787000D01*
X290200000Y-80328750D02*
X290200000Y-89853750D01*
X303795750Y-117737000D02*
X304400000Y-118341250D01*
X299033250Y-98687000D02*
X299800000Y-99453750D01*
X290200000Y-89853750D02*
X299033250Y-98687000D01*
%TO.N,Col6*%
X323400000Y-118291250D02*
X323400000Y-127816250D01*
X309200000Y-89803750D02*
X318083250Y-98687000D01*
X318800000Y-113691250D02*
X322845750Y-117737000D01*
X318083250Y-98687000D02*
X318800000Y-99403750D01*
X322845750Y-117737000D02*
X323400000Y-118291250D01*
X308558250Y-79637000D02*
X309200000Y-80278750D01*
X318800000Y-99403750D02*
X318800000Y-113691250D01*
X309200000Y-80278750D02*
X309200000Y-89803750D01*
X323400000Y-127816250D02*
X332370750Y-136787000D01*
%TO.N,Col7*%
X328400000Y-80428750D02*
X328400000Y-89953750D01*
X341895750Y-117737000D02*
X342600000Y-118441250D01*
X342600000Y-118441250D02*
X342600000Y-127966250D01*
X352000000Y-154035000D02*
X353802000Y-155837000D01*
X328400000Y-89953750D02*
X337133250Y-98687000D01*
X352000000Y-137366250D02*
X352000000Y-154035000D01*
X342600000Y-127966250D02*
X351420750Y-136787000D01*
X337800000Y-113641250D02*
X341895750Y-117737000D01*
X337800000Y-99353750D02*
X337800000Y-113641250D01*
X327608250Y-79637000D02*
X328400000Y-80428750D01*
X351420750Y-136787000D02*
X352000000Y-137366250D01*
X337133250Y-98687000D02*
X337800000Y-99353750D01*
%TO.N,Col8*%
X346658250Y-79637000D02*
X347400000Y-80378750D01*
X360945750Y-117737000D02*
X361600000Y-118391250D01*
X347400000Y-80378750D02*
X347400000Y-89903750D01*
X356183250Y-98687000D02*
X356800000Y-99303750D01*
X361600000Y-118391250D02*
X361600000Y-127916250D01*
X361600000Y-127916250D02*
X370470750Y-136787000D01*
X347400000Y-89903750D02*
X356183250Y-98687000D01*
X356800000Y-99303750D02*
X356800000Y-113591250D01*
X356800000Y-113591250D02*
X360945750Y-117737000D01*
%TO.N,Col9*%
X376000000Y-99453750D02*
X376000000Y-113741250D01*
X366400000Y-80328750D02*
X366400000Y-89853750D01*
X379995750Y-117737000D02*
X380800000Y-118541250D01*
X380800000Y-128066250D02*
X389520750Y-136787000D01*
X365708250Y-79637000D02*
X366400000Y-80328750D01*
X375233250Y-98687000D02*
X376000000Y-99453750D01*
X366400000Y-89853750D02*
X375233250Y-98687000D01*
X380800000Y-118541250D02*
X380800000Y-128066250D01*
X376000000Y-113741250D02*
X379995750Y-117737000D01*
%TO.N,Col10*%
X384758250Y-79637000D02*
X385400000Y-80278750D01*
X408570750Y-136787000D02*
X409200000Y-137416250D01*
X399600000Y-127816250D02*
X408570750Y-136787000D01*
X399600000Y-118291250D02*
X399600000Y-127816250D01*
X395000000Y-113691250D02*
X399045750Y-117737000D01*
X409200000Y-137416250D02*
X409200000Y-142000000D01*
X409200000Y-142000000D02*
X423037000Y-155837000D01*
X385400000Y-89803750D02*
X394283250Y-98687000D01*
X395000000Y-99403750D02*
X395000000Y-113691250D01*
X385400000Y-80278750D02*
X385400000Y-89803750D01*
X394283250Y-98687000D02*
X395000000Y-99403750D01*
X423037000Y-155837000D02*
X425239500Y-155837000D01*
X399045750Y-117737000D02*
X399600000Y-118291250D01*
%TO.N,Col11*%
X414200000Y-113841250D02*
X418095750Y-117737000D01*
X428200000Y-143600000D02*
X440437000Y-155837000D01*
X403808250Y-79637000D02*
X404600000Y-80428750D01*
X427620750Y-136787000D02*
X428200000Y-137366250D01*
X413333250Y-98687000D02*
X414200000Y-99553750D01*
X414200000Y-99553750D02*
X414200000Y-113841250D01*
X440437000Y-155837000D02*
X446670750Y-155837000D01*
X404600000Y-89953750D02*
X413333250Y-98687000D01*
X418800000Y-118441250D02*
X418800000Y-127966250D01*
X418800000Y-127966250D02*
X427620750Y-136787000D01*
X418095750Y-117737000D02*
X418800000Y-118441250D01*
X428200000Y-137366250D02*
X428200000Y-143600000D01*
X404600000Y-80428750D02*
X404600000Y-89953750D01*
%TO.N,Col12*%
X423500000Y-89803750D02*
X432383250Y-98687000D01*
X437800000Y-118391250D02*
X437800000Y-127916250D01*
X433100000Y-99403750D02*
X433100000Y-113691250D01*
X432383250Y-98687000D02*
X433100000Y-99403750D01*
X433100000Y-113691250D02*
X437145750Y-117737000D01*
X446670750Y-136787000D02*
X447400000Y-137516250D01*
X447400000Y-141500000D02*
X461737000Y-155837000D01*
X437800000Y-127916250D02*
X446670750Y-136787000D01*
X437145750Y-117737000D02*
X437800000Y-118391250D01*
X447400000Y-137516250D02*
X447400000Y-141500000D01*
X423500000Y-80278750D02*
X423500000Y-89803750D01*
X422858250Y-79637000D02*
X423500000Y-80278750D01*
X461737000Y-155837000D02*
X470483250Y-155837000D01*
%TO.N,Col13*%
X442600000Y-80328750D02*
X442600000Y-89853750D01*
X441908250Y-79637000D02*
X442600000Y-80328750D01*
X452200000Y-99453750D02*
X452200000Y-113741250D01*
X452200000Y-113741250D02*
X456195750Y-117737000D01*
X456195750Y-126004250D02*
X456195750Y-117737000D01*
X451433250Y-98687000D02*
X452200000Y-99453750D01*
X456000000Y-126200000D02*
X456195750Y-126004250D01*
X442600000Y-89853750D02*
X451433250Y-98687000D01*
%TO.N,Col14*%
X488537000Y-155837000D02*
X494295750Y-155837000D01*
X470483250Y-98687000D02*
X471700000Y-99903750D01*
X460958250Y-79637000D02*
X480008250Y-79637000D01*
X471700000Y-135622500D02*
X472864500Y-136787000D01*
X460958250Y-89162000D02*
X470483250Y-98687000D01*
X471700000Y-99903750D02*
X471700000Y-135622500D01*
X473600000Y-140900000D02*
X488537000Y-155837000D01*
X472864500Y-136787000D02*
X473600000Y-137522500D01*
X473600000Y-137522500D02*
X473600000Y-140900000D01*
X460958250Y-79637000D02*
X460958250Y-89162000D01*
%TO.N,Col15*%
X499058250Y-136787000D02*
X487152000Y-124880750D01*
X487152000Y-103565214D02*
X487152000Y-117737000D01*
X500183250Y-92799500D02*
X494295750Y-98687000D01*
X487152000Y-124880750D02*
X487152000Y-124048000D01*
X499058250Y-79637000D02*
X500183250Y-80762000D01*
X492030214Y-98687000D02*
X487152000Y-103565214D01*
X494295750Y-98687000D02*
X492030214Y-98687000D01*
X500183250Y-80762000D02*
X500183250Y-92799500D01*
X487152000Y-124048000D02*
X487152000Y-117908099D01*
%TO.N,Net-(J2-Pad1)*%
X227500000Y-116600000D02*
X230050000Y-119150000D01*
%TD*%
M02*
